<svg width="81" height="81" viewBox="0 0 81 81" fill="none" xmlns="http://www.w3.org/2000/svg">
<path d="M25.7502 28.0161V23.0161C25.7502 19.0379 27.3306 15.2226 30.1436 12.4095C32.9567 9.59647 36.772 8.01611 40.7502 8.01611V8.01611C44.7285 8.01611 48.5438 9.59647 51.3568 12.4095C54.1699 15.2226 55.7502 19.0379 55.7502 23.0161V28.0161M13.2502 28.0161C12.5872 28.0161 11.9513 28.2795 11.4825 28.7483C11.0136 29.2172 10.7502 29.8531 10.7502 30.5161V64.2661C10.7502 68.9911 14.7752 73.0161 19.5002 73.0161H62.0002C66.7252 73.0161 70.7502 69.1864 70.7502 64.4614V30.5161C70.7502 29.8531 70.4868 29.2172 70.018 28.7483C69.5492 28.2795 68.9133 28.0161 68.2502 28.0161H13.2502Z" stroke="#43A047" stroke-width="4" stroke-linecap="round" stroke-linejoin="round"/>
</svg>
