<svg width="80" height="81" viewBox="0 0 80 81" fill="none" xmlns="http://www.w3.org/2000/svg">
<path d="M25.0002 28.0161V23.0161C25.0002 19.0379 26.5806 15.2226 29.3936 12.4095C32.2067 9.59647 36.022 8.01611 40.0002 8.01611V8.01611C43.9785 8.01611 47.7938 9.59647 50.6068 12.4095C53.4199 15.2226 55.0002 19.0379 55.0002 23.0161V28.0161M12.5002 28.0161C11.8372 28.0161 11.2013 28.2795 10.7325 28.7483C10.2636 29.2172 10.0002 29.8531 10.0002 30.5161V64.2661C10.0002 68.9911 14.0252 73.0161 18.7502 73.0161H61.2502C65.9752 73.0161 70.0002 69.1864 70.0002 64.4614V30.5161C70.0002 29.8531 69.7368 29.2172 69.268 28.7483C68.7992 28.2795 68.1633 28.0161 67.5002 28.0161H12.5002Z" stroke="#FF5220" stroke-width="4" stroke-linecap="round" stroke-linejoin="round"/>
</svg>
