<svg width="81" height="81" viewBox="0 0 81 81" fill="none" xmlns="http://www.w3.org/2000/svg">
<path d="M27.7496 65.5073V75.5073V65.5073ZM12.7496 5.50732H42.7496C44.0757 5.50732 45.3475 6.03411 46.2852 6.97179C47.2228 7.90947 47.7496 9.18124 47.7496 10.5073V74.8823C47.7496 75.0481 47.6838 75.207 47.5666 75.3243C47.4494 75.4415 47.2904 75.5073 47.1246 75.5073H7.74963V10.5073C7.74963 9.18124 8.27642 7.90947 9.2141 6.97179C10.1518 6.03411 11.4236 5.50732 12.7496 5.50732V5.50732ZM50.2496 30.5073H67.7496C69.0757 30.5073 70.3475 31.0341 71.2852 31.9718C72.2228 32.9095 72.7496 34.1812 72.7496 35.5073V75.5073H47.7496V33.0073C47.7496 32.3443 48.013 31.7084 48.4819 31.2396C48.9507 30.7707 49.5866 30.5073 50.2496 30.5073Z" stroke="#43A047" stroke-width="4" stroke-linecap="round" stroke-linejoin="round"/>
<path d="M15.5749 67.9832C15.0572 68.0509 14.5312 67.9548 14.0708 67.7083C13.6105 67.4619 13.2388 67.0775 13.0081 66.609C12.7773 66.1406 12.699 65.6117 12.7842 65.0965C12.8694 64.5813 13.1137 64.1057 13.483 63.7365C13.8522 63.3673 14.3278 63.1229 14.843 63.0377C15.3582 62.9526 15.8871 63.0309 16.3555 63.2616C16.8239 63.4924 17.2083 63.864 17.4548 64.3244C17.7012 64.7847 17.7973 65.3107 17.7296 65.8285C17.6582 66.3749 17.4082 66.8824 17.0185 67.272C16.6288 67.6617 16.1213 67.9117 15.5749 67.9832ZM15.5749 55.4832C15.0572 55.5509 14.5312 55.4548 14.0708 55.2083C13.6105 54.9619 13.2388 54.5775 13.0081 54.109C12.7773 53.6406 12.699 53.1117 12.7842 52.5965C12.8694 52.0813 13.1137 51.6057 13.483 51.2365C13.8522 50.8673 14.3278 50.6229 14.843 50.5377C15.3582 50.4526 15.8871 50.5309 16.3555 50.7616C16.8239 50.9924 17.2083 51.364 17.4548 51.8244C17.7012 52.2847 17.7973 52.8107 17.7296 53.3285C17.6582 53.8749 17.4082 54.3824 17.0185 54.772C16.6288 55.1617 16.1213 55.4117 15.5749 55.4832ZM15.5749 42.9832C15.0572 43.0509 14.5312 42.9548 14.0708 42.7083C13.6105 42.4619 13.2388 42.0775 13.0081 41.609C12.7773 41.1406 12.699 40.6117 12.7842 40.0965C12.8694 39.5813 13.1137 39.1057 13.483 38.7365C13.8522 38.3673 14.3278 38.1229 14.843 38.0378C15.3582 37.9526 15.8871 38.0309 16.3555 38.2616C16.8239 38.4924 17.2083 38.864 17.4548 39.3244C17.7012 39.7847 17.7973 40.3107 17.7296 40.8285C17.6582 41.3749 17.4082 41.8824 17.0185 42.272C16.6288 42.6617 16.1213 42.9117 15.5749 42.9832ZM15.5749 30.4832C15.0572 30.5509 14.5312 30.4548 14.0708 30.2083C13.6105 29.9619 13.2388 29.5775 13.0081 29.109C12.7773 28.6406 12.699 28.1117 12.7842 27.5965C12.8694 27.0813 13.1137 26.6057 13.483 26.2365C13.8522 25.8673 14.3278 25.6229 14.843 25.5378C15.3582 25.4526 15.8871 25.5309 16.3555 25.7616C16.8239 25.9924 17.2083 26.364 17.4548 26.8244C17.7012 27.2847 17.7973 27.8107 17.7296 28.3285C17.6582 28.8749 17.4082 29.3824 17.0185 29.772C16.6288 30.1617 16.1213 30.4117 15.5749 30.4832ZM15.5749 17.9832C15.0572 18.0509 14.5312 17.9548 14.0708 17.7083C13.6105 17.4619 13.2388 17.0775 13.0081 16.609C12.7773 16.1406 12.699 15.6117 12.7842 15.0965C12.8694 14.5813 13.1137 14.1057 13.483 13.7365C13.8522 13.3673 14.3278 13.1229 14.843 13.0378C15.3582 12.9526 15.8871 13.0309 16.3555 13.2616C16.8239 13.4924 17.2083 13.864 17.4548 14.3244C17.7012 14.7847 17.7973 15.3107 17.7296 15.8285C17.6582 16.3749 17.4082 16.8824 17.0185 17.272C16.6288 17.6617 16.1213 17.9117 15.5749 17.9832ZM28.0749 55.4832C27.5572 55.5509 27.0312 55.4548 26.5708 55.2083C26.1105 54.9619 25.7388 54.5775 25.5081 54.109C25.2773 53.6406 25.199 53.1117 25.2842 52.5965C25.3694 52.0813 25.6137 51.6057 25.983 51.2365C26.3522 50.8673 26.8278 50.6229 27.343 50.5377C27.8582 50.4526 28.3871 50.5309 28.8555 50.7616C29.3239 50.9924 29.7083 51.364 29.9548 51.8244C30.2012 52.2847 30.2973 52.8107 30.2296 53.3285C30.1582 53.8749 29.9082 54.3824 29.5185 54.772C29.1288 55.1617 28.6213 55.4117 28.0749 55.4832ZM28.0749 42.9832C27.5572 43.0509 27.0312 42.9548 26.5708 42.7083C26.1105 42.4619 25.7388 42.0775 25.5081 41.609C25.2773 41.1406 25.199 40.6117 25.2842 40.0965C25.3694 39.5813 25.6137 39.1057 25.983 38.7365C26.3522 38.3673 26.8278 38.1229 27.343 38.0378C27.8582 37.9526 28.3871 38.0309 28.8555 38.2616C29.3239 38.4924 29.7083 38.864 29.9548 39.3244C30.2012 39.7847 30.2973 40.3107 30.2296 40.8285C30.1582 41.3749 29.9082 41.8824 29.5185 42.272C29.1288 42.6617 28.6213 42.9117 28.0749 42.9832ZM28.0749 30.4832C27.5572 30.5509 27.0312 30.4548 26.5708 30.2083C26.1105 29.9619 25.7388 29.5775 25.5081 29.109C25.2773 28.6406 25.199 28.1117 25.2842 27.5965C25.3694 27.0813 25.6137 26.6057 25.983 26.2365C26.3522 25.8673 26.8278 25.6229 27.343 25.5378C27.8582 25.4526 28.3871 25.5309 28.8555 25.7616C29.3239 25.9924 29.7083 26.364 29.9548 26.8244C30.2012 27.2847 30.2973 27.8107 30.2296 28.3285C30.1582 28.8749 29.9082 29.3824 29.5185 29.772C29.1288 30.1617 28.6213 30.4117 28.0749 30.4832ZM28.0749 17.9832C27.5572 18.0509 27.0312 17.9548 26.5708 17.7083C26.1105 17.4619 25.7388 17.0775 25.5081 16.609C25.2773 16.1406 25.199 15.6117 25.2842 15.0965C25.3694 14.5813 25.6137 14.1057 25.983 13.7365C26.3522 13.3673 26.8278 13.1229 27.343 13.0378C27.8582 12.9526 28.3871 13.0309 28.8555 13.2616C29.3239 13.4924 29.7083 13.864 29.9548 14.3244C30.2012 14.7847 30.2973 15.3107 30.2296 15.8285C30.1582 16.3749 29.9082 16.8824 29.5185 17.272C29.1288 17.6617 28.6213 17.9117 28.0749 17.9832ZM40.5749 67.9832C40.0572 68.0509 39.5312 67.9548 39.0708 67.7083C38.6105 67.4619 38.2388 67.0775 38.0081 66.609C37.7773 66.1406 37.699 65.6117 37.7842 65.0965C37.8694 64.5813 38.1137 64.1057 38.483 63.7365C38.8522 63.3673 39.3278 63.1229 39.843 63.0377C40.3582 62.9526 40.8871 63.0309 41.3555 63.2616C41.8239 63.4924 42.2083 63.864 42.4548 64.3244C42.7012 64.7847 42.7973 65.3107 42.7296 65.8285C42.6582 66.3749 42.4082 66.8824 42.0185 67.272C41.6288 67.6617 41.1213 67.9117 40.5749 67.9832ZM40.5749 55.4832C40.0572 55.5509 39.5312 55.4548 39.0708 55.2083C38.6105 54.9619 38.2388 54.5775 38.0081 54.109C37.7773 53.6406 37.699 53.1117 37.7842 52.5965C37.8694 52.0813 38.1137 51.6057 38.483 51.2365C38.8522 50.8673 39.3278 50.6229 39.843 50.5377C40.3582 50.4526 40.8871 50.5309 41.3555 50.7616C41.8239 50.9924 42.2083 51.364 42.4548 51.8244C42.7012 52.2847 42.7973 52.8107 42.7296 53.3285C42.6582 53.8749 42.4082 54.3824 42.0185 54.772C41.6288 55.1617 41.1213 55.4117 40.5749 55.4832ZM40.5749 42.9832C40.0572 43.0509 39.5312 42.9548 39.0708 42.7083C38.6105 42.4619 38.2388 42.0775 38.0081 41.609C37.7773 41.1406 37.699 40.6117 37.7842 40.0965C37.8694 39.5813 38.1137 39.1057 38.483 38.7365C38.8522 38.3673 39.3278 38.1229 39.843 38.0378C40.3582 37.9526 40.8871 38.0309 41.3555 38.2616C41.8239 38.4924 42.2083 38.864 42.4548 39.3244C42.7012 39.7847 42.7973 40.3107 42.7296 40.8285C42.6582 41.3749 42.4082 41.8824 42.0185 42.272C41.6288 42.6617 41.1213 42.9117 40.5749 42.9832Z" fill="#43A047"/>
<path d="M42.0208 29.7782C42.9941 28.805 42.9901 27.223 42.012 26.2449C41.0339 25.2667 39.4519 25.2628 38.4787 26.236C37.5054 27.2093 37.5094 28.7912 38.4875 29.7694C39.4657 30.7475 41.0476 30.7515 42.0208 29.7782Z" fill="#43A047"/>
<path d="M40.5749 17.9832C40.0572 18.0509 39.5312 17.9548 39.0708 17.7083C38.6105 17.4619 38.2388 17.0775 38.0081 16.609C37.7773 16.1406 37.699 15.6117 37.7842 15.0965C37.8694 14.5813 38.1137 14.1057 38.483 13.7365C38.8522 13.3673 39.3278 13.1229 39.843 13.0378C40.3582 12.9526 40.8871 13.0309 41.3555 13.2616C41.8239 13.4924 42.2083 13.864 42.4548 14.3244C42.7012 14.7847 42.7973 15.3107 42.7296 15.8285C42.6582 16.3749 42.4082 16.8824 42.0185 17.272C41.6288 17.6617 41.1213 17.9117 40.5749 17.9832ZM62.7499 63.0035C62.2555 63.0035 61.7721 63.1501 61.361 63.4248C60.9499 63.6995 60.6295 64.09 60.4402 64.5468C60.251 65.0036 60.2015 65.5062 60.298 65.9912C60.3944 66.4762 60.6325 66.9216 60.9822 67.2712C61.3318 67.6209 61.7773 67.859 62.2622 67.9554C62.7472 68.0519 63.2498 68.0024 63.7066 67.8132C64.1635 67.624 64.5539 67.3035 64.8286 66.8924C65.1033 66.4813 65.2499 65.9979 65.2499 65.5035C65.2499 64.8404 64.9865 64.2045 64.5177 63.7357C64.0489 63.2669 63.413 63.0035 62.7499 63.0035ZM62.7499 50.5035C62.2555 50.5035 61.7721 50.6501 61.361 50.9248C60.9499 51.1995 60.6295 51.59 60.4402 52.0468C60.251 52.5036 60.2015 53.0062 60.298 53.4912C60.3944 53.9762 60.6325 54.4216 60.9822 54.7712C61.3318 55.1209 61.7773 55.359 62.2622 55.4554C62.7472 55.5519 63.2498 55.5024 63.7066 55.3132C64.1635 55.124 64.5539 54.8035 64.8286 54.3924C65.1033 53.9813 65.2499 53.4979 65.2499 53.0035C65.2499 52.3404 64.9865 51.7045 64.5177 51.2357C64.0489 50.7669 63.413 50.5035 62.7499 50.5035ZM62.7499 38.0035C62.2555 38.0035 61.7721 38.1501 61.361 38.4248C60.9499 38.6995 60.6295 39.0899 60.4402 39.5468C60.251 40.0036 60.2015 40.5062 60.298 40.9912C60.3944 41.4762 60.6325 41.9216 60.9822 42.2712C61.3318 42.6209 61.7773 42.859 62.2622 42.9554C62.7472 43.0519 63.2498 43.0024 63.7066 42.8132C64.1635 42.624 64.5539 42.3035 64.8286 41.8924C65.1033 41.4813 65.2499 40.9979 65.2499 40.5035C65.2499 39.8404 64.9865 39.2045 64.5177 38.7357C64.0489 38.2669 63.413 38.0035 62.7499 38.0035ZM52.7499 63.0035C52.2555 63.0035 51.7721 63.1501 51.361 63.4248C50.9499 63.6995 50.6295 64.09 50.4402 64.5468C50.251 65.0036 50.2015 65.5062 50.298 65.9912C50.3944 66.4762 50.6325 66.9216 50.9822 67.2712C51.3318 67.6209 51.7773 67.859 52.2622 67.9554C52.7472 68.0519 53.2498 68.0024 53.7066 67.8132C54.1635 67.624 54.5539 67.3035 54.8286 66.8924C55.1033 66.4813 55.2499 65.9979 55.2499 65.5035C55.2499 64.8404 54.9865 64.2045 54.5177 63.7357C54.0489 63.2669 53.413 63.0035 52.7499 63.0035ZM52.7499 50.5035C52.2555 50.5035 51.7721 50.6501 51.361 50.9248C50.9499 51.1995 50.6295 51.59 50.4402 52.0468C50.251 52.5036 50.2015 53.0062 50.298 53.4912C50.3944 53.9762 50.6325 54.4216 50.9822 54.7712C51.3318 55.1209 51.7773 55.359 52.2622 55.4554C52.7472 55.5519 53.2498 55.5024 53.7066 55.3132C54.1635 55.124 54.5539 54.8035 54.8286 54.3924C55.1033 53.9813 55.2499 53.4979 55.2499 53.0035C55.2499 52.3404 54.9865 51.7045 54.5177 51.2357C54.0489 50.7669 53.413 50.5035 52.7499 50.5035ZM52.7499 38.0035C52.2555 38.0035 51.7721 38.1501 51.361 38.4248C50.9499 38.6995 50.6295 39.0899 50.4402 39.5468C50.251 40.0036 50.2015 40.5062 50.298 40.9912C50.3944 41.4762 50.6325 41.9216 50.9822 42.2712C51.3318 42.6209 51.7773 42.859 52.2622 42.9554C52.7472 43.0519 53.2498 43.0024 53.7066 42.8132C54.1635 42.624 54.5539 42.3035 54.8286 41.8924C55.1033 41.4813 55.2499 40.9979 55.2499 40.5035C55.2499 39.8404 54.9865 39.2045 54.5177 38.7357C54.0489 38.2669 53.413 38.0035 52.7499 38.0035Z" fill="#43A047"/>
</svg>
