<svg width="81" height="81" viewBox="0 0 81 81" fill="none" xmlns="http://www.w3.org/2000/svg">
<path d="M27.9998 65.5073V75.5073V65.5073ZM12.9998 5.50732H42.9998C44.3258 5.50732 45.5976 6.03411 46.5353 6.97179C47.473 7.90947 47.9998 9.18124 47.9998 10.5073V74.8823C47.9998 75.0481 47.9339 75.207 47.8167 75.3243C47.6995 75.4415 47.5405 75.5073 47.3748 75.5073H7.99976V10.5073C7.99976 9.18124 8.52654 7.90947 9.46422 6.97179C10.4019 6.03411 11.6737 5.50732 12.9998 5.50732V5.50732ZM50.4998 30.5073H67.9998C69.3258 30.5073 70.5976 31.0341 71.5353 31.9718C72.473 32.9095 72.9997 34.1812 72.9997 35.5073V75.5073H47.9998V33.0073C47.9998 32.3443 48.2631 31.7084 48.732 31.2396C49.2008 30.7707 49.8367 30.5073 50.4998 30.5073Z" stroke="#FF5220" stroke-width="4" stroke-linecap="round" stroke-linejoin="round"/>
<path d="M15.8249 67.9832C15.3072 68.0509 14.7812 67.9548 14.3208 67.7083C13.8605 67.4619 13.4888 67.0775 13.2581 66.609C13.0273 66.1406 12.949 65.6117 13.0342 65.0965C13.1194 64.5813 13.3637 64.1057 13.733 63.7365C14.1022 63.3673 14.5778 63.1229 15.093 63.0377C15.6082 62.9526 16.1371 63.0309 16.6055 63.2616C17.0739 63.4924 17.4583 63.864 17.7048 64.3244C17.9512 64.7847 18.0473 65.3107 17.9796 65.8285C17.9082 66.3749 17.6582 66.8824 17.2685 67.272C16.8788 67.6617 16.3713 67.9117 15.8249 67.9832V67.9832ZM15.8249 55.4832C15.3072 55.5509 14.7812 55.4548 14.3208 55.2083C13.8605 54.9619 13.4888 54.5775 13.2581 54.109C13.0273 53.6406 12.949 53.1117 13.0342 52.5965C13.1194 52.0813 13.3637 51.6057 13.733 51.2365C14.1022 50.8673 14.5778 50.6229 15.093 50.5377C15.6082 50.4526 16.1371 50.5309 16.6055 50.7616C17.0739 50.9924 17.4583 51.364 17.7048 51.8244C17.9512 52.2847 18.0473 52.8107 17.9796 53.3285C17.9082 53.8749 17.6582 54.3824 17.2685 54.772C16.8788 55.1617 16.3713 55.4117 15.8249 55.4832V55.4832ZM15.8249 42.9832C15.3072 43.0509 14.7812 42.9548 14.3208 42.7083C13.8605 42.4619 13.4888 42.0775 13.2581 41.609C13.0273 41.1406 12.949 40.6117 13.0342 40.0965C13.1194 39.5813 13.3637 39.1057 13.733 38.7365C14.1022 38.3673 14.5778 38.1229 15.093 38.0378C15.6082 37.9526 16.1371 38.0309 16.6055 38.2616C17.0739 38.4924 17.4583 38.864 17.7048 39.3244C17.9512 39.7847 18.0473 40.3107 17.9796 40.8285C17.9082 41.3749 17.6582 41.8824 17.2685 42.272C16.8788 42.6617 16.3713 42.9117 15.8249 42.9832V42.9832ZM15.8249 30.4832C15.3072 30.5509 14.7812 30.4548 14.3208 30.2083C13.8605 29.9619 13.4888 29.5775 13.2581 29.109C13.0273 28.6406 12.949 28.1117 13.0342 27.5965C13.1194 27.0813 13.3637 26.6057 13.733 26.2365C14.1022 25.8673 14.5778 25.6229 15.093 25.5378C15.6082 25.4526 16.1371 25.5309 16.6055 25.7616C17.0739 25.9924 17.4583 26.364 17.7048 26.8244C17.9512 27.2847 18.0473 27.8107 17.9796 28.3285C17.9082 28.8749 17.6582 29.3824 17.2685 29.772C16.8788 30.1617 16.3713 30.4117 15.8249 30.4832V30.4832ZM15.8249 17.9832C15.3072 18.0509 14.7812 17.9548 14.3208 17.7083C13.8605 17.4619 13.4888 17.0775 13.2581 16.609C13.0273 16.1406 12.949 15.6117 13.0342 15.0965C13.1194 14.5813 13.3637 14.1057 13.733 13.7365C14.1022 13.3673 14.5778 13.1229 15.093 13.0378C15.6082 12.9526 16.1371 13.0309 16.6055 13.2616C17.0739 13.4924 17.4583 13.864 17.7048 14.3244C17.9512 14.7847 18.0473 15.3107 17.9796 15.8285C17.9082 16.3749 17.6582 16.8824 17.2685 17.272C16.8788 17.6617 16.3713 17.9117 15.8249 17.9832V17.9832ZM28.3249 55.4832C27.8072 55.5509 27.2812 55.4548 26.8208 55.2083C26.3605 54.9619 25.9888 54.5775 25.7581 54.109C25.5273 53.6406 25.449 53.1117 25.5342 52.5965C25.6194 52.0813 25.8637 51.6057 26.233 51.2365C26.6022 50.8673 27.0778 50.6229 27.593 50.5377C28.1082 50.4526 28.6371 50.5309 29.1055 50.7616C29.5739 50.9924 29.9583 51.364 30.2048 51.8244C30.4512 52.2847 30.5473 52.8107 30.4796 53.3285C30.4082 53.8749 30.1582 54.3824 29.7685 54.772C29.3788 55.1617 28.8713 55.4117 28.3249 55.4832V55.4832ZM28.3249 42.9832C27.8072 43.0509 27.2812 42.9548 26.8208 42.7083C26.3605 42.4619 25.9888 42.0775 25.7581 41.609C25.5273 41.1406 25.449 40.6117 25.5342 40.0965C25.6194 39.5813 25.8637 39.1057 26.233 38.7365C26.6022 38.3673 27.0778 38.1229 27.593 38.0378C28.1082 37.9526 28.6371 38.0309 29.1055 38.2616C29.5739 38.4924 29.9583 38.864 30.2048 39.3244C30.4512 39.7847 30.5473 40.3107 30.4796 40.8285C30.4082 41.3749 30.1582 41.8824 29.7685 42.272C29.3788 42.6617 28.8713 42.9117 28.3249 42.9832V42.9832ZM28.3249 30.4832C27.8072 30.5509 27.2812 30.4548 26.8208 30.2083C26.3605 29.9619 25.9888 29.5775 25.7581 29.109C25.5273 28.6406 25.449 28.1117 25.5342 27.5965C25.6194 27.0813 25.8637 26.6057 26.233 26.2365C26.6022 25.8673 27.0778 25.6229 27.593 25.5378C28.1082 25.4526 28.6371 25.5309 29.1055 25.7616C29.5739 25.9924 29.9583 26.364 30.2048 26.8244C30.4512 27.2847 30.5473 27.8107 30.4796 28.3285C30.4082 28.8749 30.1582 29.3824 29.7685 29.772C29.3788 30.1617 28.8713 30.4117 28.3249 30.4832V30.4832ZM28.3249 17.9832C27.8072 18.0509 27.2812 17.9548 26.8208 17.7083C26.3605 17.4619 25.9888 17.0775 25.7581 16.609C25.5273 16.1406 25.449 15.6117 25.5342 15.0965C25.6194 14.5813 25.8637 14.1057 26.233 13.7365C26.6022 13.3673 27.0778 13.1229 27.593 13.0378C28.1082 12.9526 28.6371 13.0309 29.1055 13.2616C29.5739 13.4924 29.9583 13.864 30.2048 14.3244C30.4512 14.7847 30.5473 15.3107 30.4796 15.8285C30.4082 16.3749 30.1582 16.8824 29.7685 17.272C29.3788 17.6617 28.8713 17.9117 28.3249 17.9832V17.9832ZM40.8249 67.9832C40.3072 68.0509 39.7812 67.9548 39.3208 67.7083C38.8605 67.4619 38.4888 67.0775 38.2581 66.609C38.0273 66.1406 37.949 65.6117 38.0342 65.0965C38.1194 64.5813 38.3637 64.1057 38.733 63.7365C39.1022 63.3673 39.5778 63.1229 40.093 63.0377C40.6082 62.9526 41.1371 63.0309 41.6055 63.2616C42.0739 63.4924 42.4583 63.864 42.7048 64.3244C42.9512 64.7847 43.0473 65.3107 42.9796 65.8285C42.9082 66.3749 42.6582 66.8824 42.2685 67.272C41.8788 67.6617 41.3713 67.9117 40.8249 67.9832V67.9832ZM40.8249 55.4832C40.3072 55.5509 39.7812 55.4548 39.3208 55.2083C38.8605 54.9619 38.4888 54.5775 38.2581 54.109C38.0273 53.6406 37.949 53.1117 38.0342 52.5965C38.1194 52.0813 38.3637 51.6057 38.733 51.2365C39.1022 50.8673 39.5778 50.6229 40.093 50.5377C40.6082 50.4526 41.1371 50.5309 41.6055 50.7616C42.0739 50.9924 42.4583 51.364 42.7048 51.8244C42.9512 52.2847 43.0473 52.8107 42.9796 53.3285C42.9082 53.8749 42.6582 54.3824 42.2685 54.772C41.8788 55.1617 41.3713 55.4117 40.8249 55.4832V55.4832ZM40.8249 42.9832C40.3072 43.0509 39.7812 42.9548 39.3208 42.7083C38.8605 42.4619 38.4888 42.0775 38.2581 41.609C38.0273 41.1406 37.949 40.6117 38.0342 40.0965C38.1194 39.5813 38.3637 39.1057 38.733 38.7365C39.1022 38.3673 39.5778 38.1229 40.093 38.0378C40.6082 37.9526 41.1371 38.0309 41.6055 38.2616C42.0739 38.4924 42.4583 38.864 42.7048 39.3244C42.9512 39.7847 43.0473 40.3107 42.9796 40.8285C42.9082 41.3749 42.6582 41.8824 42.2685 42.272C41.8788 42.6617 41.3713 42.9117 40.8249 42.9832V42.9832Z" fill="#FF5220"/>
<path d="M42.271 29.7782C43.2442 28.805 43.2403 27.223 42.2621 26.2449C41.284 25.2667 39.7021 25.2628 38.7288 26.236C37.7555 27.2093 37.7595 28.7912 38.7376 29.7694C39.7158 30.7475 41.2977 30.7515 42.271 29.7782Z" fill="#FF5220"/>
<path d="M40.8249 17.9832C40.3072 18.0509 39.7812 17.9548 39.3208 17.7083C38.8605 17.4619 38.4888 17.0775 38.2581 16.609C38.0273 16.1406 37.949 15.6117 38.0342 15.0965C38.1194 14.5813 38.3637 14.1057 38.733 13.7365C39.1022 13.3673 39.5778 13.1229 40.093 13.0378C40.6082 12.9526 41.1371 13.0309 41.6055 13.2616C42.0739 13.4924 42.4583 13.864 42.7048 14.3244C42.9512 14.7847 43.0473 15.3107 42.9796 15.8285C42.9082 16.3749 42.6582 16.8824 42.2685 17.272C41.8788 17.6617 41.3713 17.9117 40.8249 17.9832V17.9832ZM62.9999 63.0035C62.5055 63.0035 62.0221 63.1501 61.611 63.4248C61.1999 63.6995 60.8795 64.0899 60.6902 64.5468C60.501 65.0036 60.4515 65.5062 60.548 65.9912C60.6444 66.4762 60.8825 66.9216 61.2322 67.2712C61.5818 67.6209 62.0273 67.859 62.5122 67.9554C62.9972 68.0519 63.4998 68.0024 63.9566 67.8132C64.4135 67.624 64.8039 67.3035 65.0786 66.8924C65.3533 66.4813 65.4999 65.9979 65.4999 65.5035C65.4999 64.8404 65.2365 64.2045 64.7677 63.7357C64.2989 63.2669 63.663 63.0035 62.9999 63.0035ZM62.9999 50.5035C62.5055 50.5035 62.0221 50.6501 61.611 50.9248C61.1999 51.1995 60.8795 51.59 60.6902 52.0468C60.501 52.5036 60.4515 53.0062 60.548 53.4912C60.6444 53.9762 60.8825 54.4216 61.2322 54.7712C61.5818 55.1209 62.0273 55.359 62.5122 55.4554C62.9972 55.5519 63.4998 55.5024 63.9566 55.3132C64.4135 55.124 64.8039 54.8035 65.0786 54.3924C65.3533 53.9813 65.4999 53.4979 65.4999 53.0035C65.4999 52.3404 65.2365 51.7045 64.7677 51.2357C64.2989 50.7669 63.663 50.5035 62.9999 50.5035ZM62.9999 38.0035C62.5055 38.0035 62.0221 38.1501 61.611 38.4248C61.1999 38.6995 60.8795 39.0899 60.6902 39.5468C60.501 40.0036 60.4515 40.5062 60.548 40.9912C60.6444 41.4762 60.8825 41.9216 61.2322 42.2712C61.5818 42.6209 62.0273 42.859 62.5122 42.9554C62.9972 43.0519 63.4998 43.0024 63.9566 42.8132C64.4135 42.624 64.8039 42.3035 65.0786 41.8924C65.3533 41.4813 65.4999 40.9979 65.4999 40.5035C65.4999 39.8404 65.2365 39.2045 64.7677 38.7357C64.2989 38.2669 63.663 38.0035 62.9999 38.0035ZM52.9999 63.0035C52.5055 63.0035 52.0221 63.1501 51.611 63.4248C51.1999 63.6995 50.8795 64.0899 50.6902 64.5468C50.501 65.0036 50.4515 65.5062 50.548 65.9912C50.6444 66.4762 50.8825 66.9216 51.2322 67.2712C51.5818 67.6209 52.0273 67.859 52.5122 67.9554C52.9972 68.0519 53.4998 68.0024 53.9566 67.8132C54.4135 67.624 54.8039 67.3035 55.0786 66.8924C55.3533 66.4813 55.4999 65.9979 55.4999 65.5035C55.4999 64.8404 55.2365 64.2045 54.7677 63.7357C54.2989 63.2669 53.663 63.0035 52.9999 63.0035ZM52.9999 50.5035C52.5055 50.5035 52.0221 50.6501 51.611 50.9248C51.1999 51.1995 50.8795 51.59 50.6902 52.0468C50.501 52.5036 50.4515 53.0062 50.548 53.4912C50.6444 53.9762 50.8825 54.4216 51.2322 54.7712C51.5818 55.1209 52.0273 55.359 52.5122 55.4554C52.9972 55.5519 53.4998 55.5024 53.9566 55.3132C54.4135 55.124 54.8039 54.8035 55.0786 54.3924C55.3533 53.9813 55.4999 53.4979 55.4999 53.0035C55.4999 52.3404 55.2365 51.7045 54.7677 51.2357C54.2989 50.7669 53.663 50.5035 52.9999 50.5035ZM52.9999 38.0035C52.5055 38.0035 52.0221 38.1501 51.611 38.4248C51.1999 38.6995 50.8795 39.0899 50.6902 39.5468C50.501 40.0036 50.4515 40.5062 50.548 40.9912C50.6444 41.4762 50.8825 41.9216 51.2322 42.2712C51.5818 42.6209 52.0273 42.859 52.5122 42.9554C52.9972 43.0519 53.4998 43.0024 53.9566 42.8132C54.4135 42.624 54.8039 42.3035 55.0786 41.8924C55.3533 41.4813 55.4999 40.9979 55.4999 40.5035C55.4999 39.8404 55.2365 39.2045 54.7677 38.7357C54.2989 38.2669 53.663 38.0035 52.9999 38.0035Z" fill="#FF5220"/>
</svg>
