<svg width="988" height="61" viewBox="0 0 988 61" fill="none" xmlns="http://www.w3.org/2000/svg">
<circle cx="30.5" cy="30.5" r="29" fill="white" stroke="#FF5220" stroke-width="3"/>
<circle cx="489.5" cy="30.5" r="29" fill="white" stroke="#FF5220" stroke-width="3"/>
<circle cx="957.5" cy="30.5" r="29" fill="white" stroke="#FF5220" stroke-width="3"/>
<line x1="61" y1="29" x2="459" y2="29" stroke="#FF5220" stroke-width="4"/>
<line x1="520" y1="29" x2="927" y2="29" stroke="#FF5220" stroke-width="4"/>
<path d="M33.7637 42H29.6152V25.459C29.6152 24.9082 29.6211 24.3574 29.6328 23.8066C29.6445 23.2559 29.6562 22.7168 29.668 22.1895C29.6914 21.6621 29.7207 21.1582 29.7559 20.6777C29.5098 20.9473 29.2051 21.2402 28.8418 21.5566C28.4902 21.873 28.1152 22.2012 27.7168 22.541L24.7637 24.8965L22.6895 22.2773L30.3184 16.3008H33.7637V42Z" fill="#FF5220"/>
<path d="M498.02 44H480.617V40.8887L487.279 34.1387C488.568 32.8262 489.629 31.6953 490.461 30.7461C491.293 29.7852 491.908 28.877 492.307 28.0215C492.717 27.166 492.922 26.2344 492.922 25.2266C492.922 23.9844 492.564 23.0469 491.85 22.4141C491.135 21.7695 490.191 21.4473 489.02 21.4473C487.906 21.4473 486.875 21.6699 485.926 22.1152C484.988 22.5488 484.016 23.1699 483.008 23.9785L480.74 21.2539C481.455 20.6445 482.217 20.0879 483.025 19.584C483.846 19.0801 484.76 18.6816 485.768 18.3887C486.775 18.084 487.924 17.9316 489.213 17.9316C490.842 17.9316 492.248 18.2246 493.432 18.8105C494.615 19.3848 495.523 20.1875 496.156 21.2188C496.801 22.25 497.123 23.4512 497.123 24.8223C497.123 26.2051 496.848 27.4824 496.297 28.6543C495.746 29.8262 494.961 30.9863 493.941 32.1348C492.922 33.2715 491.709 34.5078 490.303 35.8438L485.855 40.1855V40.3789H498.02V44Z" fill="#FF5220"/>
<path d="M965.035 24.1719C965.035 25.332 964.801 26.3398 964.332 27.1953C963.863 28.0508 963.219 28.7539 962.398 29.3047C961.59 29.8438 960.652 30.2305 959.586 30.4648V30.5879C961.637 30.8457 963.184 31.4902 964.227 32.5215C965.281 33.5527 965.809 34.918 965.809 36.6172C965.809 38.1055 965.451 39.4355 964.736 40.6074C964.021 41.7676 962.926 42.6816 961.449 43.3496C959.973 44.0176 958.074 44.3516 955.754 44.3516C954.359 44.3516 953.064 44.2402 951.869 44.0176C950.686 43.7949 949.561 43.4375 948.494 42.9453V39.2715C949.584 39.8105 950.744 40.2266 951.975 40.5195C953.205 40.8125 954.371 40.959 955.473 40.959C957.617 40.959 959.146 40.5605 960.061 39.7637C960.975 38.9551 961.432 37.8418 961.432 36.4238C961.432 35.5098 961.191 34.7598 960.711 34.1738C960.242 33.5879 959.51 33.1484 958.514 32.8555C957.529 32.5625 956.258 32.416 954.699 32.416H952.432V29.0938H954.717C956.205 29.0938 957.4 28.918 958.303 28.5664C959.205 28.2031 959.855 27.7051 960.254 27.0723C960.664 26.4395 960.869 25.7012 960.869 24.8574C960.869 23.7559 960.512 22.9004 959.797 22.291C959.082 21.6699 958.021 21.3594 956.615 21.3594C955.748 21.3594 954.957 21.459 954.242 21.6582C953.539 21.8574 952.889 22.1094 952.291 22.4141C951.693 22.7188 951.125 23.0469 950.586 23.3984L948.6 20.5332C949.572 19.8066 950.732 19.1914 952.08 18.6875C953.428 18.1836 954.998 17.9316 956.791 17.9316C959.428 17.9316 961.461 18.5 962.891 19.6367C964.32 20.7617 965.035 22.2734 965.035 24.1719Z" fill="#FF5220"/>
</svg>
