<svg width="986" height="67" viewBox="0 0 986 67" fill="none" xmlns="http://www.w3.org/2000/svg">
<path d="M33.5213 27.5001C32.1407 27.4883 31.0119 28.598 31.0001 29.9787C30.9883 31.3593 32.098 32.4881 33.4787 32.4999L33.5213 27.5001ZM921.446 40.0786L923.946 40.0999L923.989 35.1001L921.489 35.0788L921.446 40.0786ZM45.1624 32.5996L47.6624 32.621L47.705 27.6211L45.2051 27.5998L45.1624 32.5996ZM68.5727 27.7992L66.0728 27.7779L66.0301 32.7777L68.53 32.7991L68.5727 27.7992ZM91.8976 32.9985L94.3975 33.0198L94.4402 28.02L91.9403 27.9987L91.8976 32.9985ZM115.308 28.1981L112.808 28.1768L112.765 33.1766L115.265 33.1979L115.308 28.1981ZM138.633 33.3974L141.133 33.4187L141.175 28.4189L138.675 28.3976L138.633 33.3974ZM162.043 28.597L159.543 28.5757L159.5 33.5755L162 33.5968L162.043 28.597ZM185.368 33.7963L187.868 33.8176L187.91 28.8178L185.411 28.7964L185.368 33.7963ZM208.778 28.9959L206.278 28.9745L206.236 33.9744L208.735 33.9957L208.778 28.9959ZM232.103 34.1951L234.603 34.2165L234.646 29.2167L232.146 29.1953L232.103 34.1951ZM255.513 29.3948L253.013 29.3734L252.971 34.3732L255.471 34.3946L255.513 29.3948ZM278.838 34.594L281.338 34.6154L281.381 29.6155L278.881 29.5942L278.838 34.594ZM302.248 29.7936L299.748 29.7723L299.706 34.7721L302.206 34.7935L302.248 29.7936ZM325.573 34.9929L328.073 35.0142L328.116 30.0144L325.616 29.9931L325.573 34.9929ZM348.984 30.1925L346.484 30.1712L346.441 35.171L348.941 35.1923L348.984 30.1925ZM372.308 35.3918L374.808 35.4131L374.851 30.4133L372.351 30.392L372.308 35.3918ZM395.719 30.5914L393.219 30.5701L393.176 35.5699L395.676 35.5912L395.719 30.5914ZM419.044 35.7906L421.543 35.812L421.586 30.8122L419.086 30.7908L419.044 35.7906ZM442.454 30.9903L439.954 30.9689L439.911 35.9687L442.411 35.9901L442.454 30.9903ZM465.779 36.1895L468.279 36.2109L468.321 31.211L465.821 31.1897L465.779 36.1895ZM489.189 31.3891L486.689 31.3678L486.646 36.3676L489.146 36.389L489.189 31.3891ZM512.514 36.5884L515.014 36.6097L515.056 31.6099L512.556 31.5886L512.514 36.5884ZM535.924 31.788L533.424 31.7667L533.381 36.7665L535.881 36.7878L535.924 31.788ZM559.249 36.9873L561.749 37.0086L561.791 32.0088L559.292 31.9875L559.249 36.9873ZM582.659 32.1869L580.159 32.1656L580.117 37.1654L582.616 37.1867L582.659 32.1869ZM605.984 37.3862L608.484 37.4075L608.527 32.4077L606.027 32.3863L605.984 37.3862ZM629.394 32.5858L626.894 32.5644L626.852 37.5643L629.352 37.5856L629.394 32.5858ZM652.719 37.785L655.219 37.8064L655.262 32.8066L652.762 32.7852L652.719 37.785ZM676.129 32.9847L673.629 32.9633L673.587 37.9631L676.087 37.9845L676.129 32.9847ZM699.454 38.1839L701.954 38.2052L701.997 33.2054L699.497 33.1841L699.454 38.1839ZM722.864 33.3835L720.365 33.3622L720.322 38.362L722.822 38.3833L722.864 33.3835ZM746.189 38.5828L748.689 38.6041L748.732 33.6043L746.232 33.583L746.189 38.5828ZM769.6 33.7824L767.1 33.7611L767.057 38.7609L769.557 38.7822L769.6 33.7824ZM792.924 38.9817L795.424 39.003L795.467 34.0032L792.967 33.9818L792.924 38.9817ZM816.335 34.1813L813.835 34.1599L813.792 39.1598L816.292 39.1811L816.335 34.1813ZM839.66 39.3805L842.159 39.4019L842.202 34.4021L839.702 34.3807L839.66 39.3805ZM863.07 34.5802L860.57 34.5588L860.527 39.5586L863.027 39.58L863.07 34.5802ZM886.395 39.7794L888.895 39.8008L888.937 34.8009L886.437 34.7796L886.395 39.7794ZM909.805 34.979L907.305 34.9577L907.262 39.9575L909.762 39.9789L909.805 34.979ZM33.4787 32.4999L45.1624 32.5996L45.2051 27.5998L33.5213 27.5001L33.4787 32.4999ZM68.53 32.7991L91.8976 32.9985L91.9403 27.9987L68.5727 27.7992L68.53 32.7991ZM115.265 33.1979L138.633 33.3974L138.675 28.3976L115.308 28.1981L115.265 33.1979ZM162 33.5968L185.368 33.7963L185.411 28.7964L162.043 28.597L162 33.5968ZM208.735 33.9957L232.103 34.1951L232.146 29.1953L208.778 28.9959L208.735 33.9957ZM255.471 34.3946L278.838 34.594L278.881 29.5942L255.513 29.3948L255.471 34.3946ZM302.206 34.7935L325.573 34.9929L325.616 29.9931L302.248 29.7936L302.206 34.7935ZM348.941 35.1923L372.308 35.3918L372.351 30.392L348.984 30.1925L348.941 35.1923ZM395.676 35.5912L419.044 35.7906L419.086 30.7908L395.719 30.5914L395.676 35.5912ZM442.411 35.9901L465.779 36.1895L465.821 31.1897L442.454 30.9903L442.411 35.9901ZM489.146 36.389L512.514 36.5884L512.556 31.5886L489.189 31.3891L489.146 36.389ZM535.881 36.7878L559.249 36.9873L559.292 31.9875L535.924 31.788L535.881 36.7878ZM582.616 37.1867L605.984 37.3862L606.027 32.3863L582.659 32.1869L582.616 37.1867ZM629.352 37.5856L652.719 37.785L652.762 32.7852L629.394 32.5858L629.352 37.5856ZM676.087 37.9845L699.454 38.1839L699.497 33.1841L676.129 32.9847L676.087 37.9845ZM722.822 38.3833L746.189 38.5828L746.232 33.583L722.864 33.3835L722.822 38.3833ZM769.557 38.7822L792.924 38.9817L792.967 33.9818L769.6 33.7824L769.557 38.7822ZM816.292 39.1811L839.66 39.3805L839.702 34.3807L816.335 34.1813L816.292 39.1811ZM863.027 39.58L886.395 39.7794L886.437 34.7796L863.07 34.5802L863.027 39.58ZM909.762 39.9789L921.446 40.0786L921.489 35.0788L909.805 34.979L909.762 39.9789Z" fill="#FF5220"/>
<circle cx="34" cy="33.5" r="30.5" fill="white" stroke="#FF5220" stroke-width="6" stroke-linecap="round" stroke-linejoin="round" stroke-dasharray="12 12"/>
<path d="M40.0586 47H33.0098V34.291C33.0098 34.0566 33.0098 33.6289 33.0098 33.0078C33.0098 32.375 33.0156 31.6777 33.0273 30.916C33.0508 30.1543 33.0801 29.4688 33.1152 28.8594C32.8105 29.2227 32.5234 29.5332 32.2539 29.791C31.9961 30.0488 31.7441 30.2891 31.498 30.5117L28.5801 32.9199L24.9766 28.4902L33.8008 21.3008H40.0586V47Z" fill="#FF5220"/>
<circle cx="493" cy="33.5" r="30.5" fill="white" stroke="#FF5220" stroke-width="6" stroke-linecap="round" stroke-linejoin="round" stroke-dasharray="12 12"/>
<path d="M502.223 47H483.572V42.4297L489.848 36.084C491.148 34.7246 492.156 33.6348 492.871 32.8145C493.598 31.9941 494.107 31.2969 494.4 30.7227C494.693 30.1484 494.84 29.5508 494.84 28.9297C494.84 28.168 494.594 27.6172 494.102 27.2773C493.609 26.9375 493.029 26.7676 492.361 26.7676C491.553 26.7676 490.732 27.002 489.9 27.4707C489.08 27.9277 488.148 28.6074 487.105 29.5098L483.291 25.0449C484.064 24.3535 484.885 23.6973 485.752 23.0762C486.619 22.4434 487.645 21.9277 488.828 21.5293C490.012 21.1309 491.453 20.9316 493.152 20.9316C494.898 20.9316 496.41 21.2363 497.688 21.8457C498.977 22.4551 499.973 23.293 500.676 24.3594C501.379 25.4141 501.73 26.6152 501.73 27.9629C501.73 29.4512 501.455 30.7812 500.904 31.9531C500.365 33.1133 499.551 34.2793 498.461 35.4512C497.371 36.6113 496.012 37.9297 494.383 39.4062L492.502 41.0938V41.2695H502.223V47Z" fill="#FF5220"/>
<circle cx="952" cy="33.5" r="30.5" fill="white" stroke="#FF5220" stroke-width="6" stroke-linecap="round" stroke-linejoin="round" stroke-dasharray="12 12"/>
<path d="M960.361 26.873C960.361 28.0918 960.098 29.1465 959.57 30.0371C959.055 30.916 958.363 31.6367 957.496 32.1992C956.641 32.7617 955.703 33.1836 954.684 33.4648V33.5703C956.734 33.8281 958.316 34.4551 959.43 35.4512C960.555 36.4355 961.117 37.8359 961.117 39.6523C961.117 41.0586 960.742 42.3477 959.992 43.5195C959.242 44.6797 958.076 45.6113 956.494 46.3145C954.912 47.0059 952.879 47.3516 950.395 47.3516C948.73 47.3516 947.312 47.2285 946.141 46.9824C944.969 46.7363 943.832 46.3965 942.73 45.9629V40.1973C943.844 40.7715 944.986 41.1992 946.158 41.4805C947.342 41.75 948.42 41.8848 949.393 41.8848C951.08 41.8848 952.229 41.6445 952.838 41.1641C953.459 40.6836 953.77 40.0391 953.77 39.2305C953.77 38.6445 953.623 38.1465 953.33 37.7363C953.037 37.3262 952.492 37.0098 951.695 36.7871C950.91 36.5645 949.779 36.4531 948.303 36.4531H946.721V31.2324H948.338C949.65 31.2324 950.688 31.1152 951.449 30.8809C952.223 30.6465 952.779 30.3301 953.119 29.9316C953.459 29.5215 953.629 29.0527 953.629 28.5254C953.629 27.8457 953.365 27.3418 952.838 27.0137C952.311 26.6855 951.613 26.5215 950.746 26.5215C949.973 26.5215 949.246 26.627 948.566 26.8379C947.887 27.0488 947.295 27.2832 946.791 27.541C946.287 27.7988 945.906 28.0098 945.648 28.1738L942.766 23.5332C943.832 22.8066 945.051 22.1914 946.422 21.6875C947.805 21.1836 949.609 20.9316 951.836 20.9316C954.484 20.9316 956.564 21.459 958.076 22.5137C959.6 23.5684 960.361 25.0215 960.361 26.873Z" fill="#FF5220"/>
</svg>
