<svg width="268" height="30" viewBox="0 0 268 30" fill="none" xmlns="http://www.w3.org/2000/svg">
<g clip-path="url(#clip0_907_1714)">
<path d="M11.343 7.89082C11.6224 7.89082 11.925 7.89082 12.3207 7.93182C12.7165 7.97281 12.99 8.0021 13.217 8.04896L12.798 13.1207C12.5474 13.0483 12.2899 13.0032 12.0298 12.986C11.6922 12.986 11.407 12.945 11.1626 12.945C10.4598 12.9435 9.75963 13.032 9.07906 13.2085C8.42778 13.3748 7.81495 13.6672 7.27489 14.0695C6.73215 14.4769 6.29661 15.0117 6.00615 15.6273C5.68202 16.3641 5.52496 17.1644 5.54637 17.9699V28.0607H0V8.25978H4.20198L5.01676 11.598H5.2903C5.7017 10.9113 6.20718 10.2863 6.79183 9.74148C7.39597 9.17874 8.09065 8.72328 8.84626 8.39449C9.6352 8.0555 10.4852 7.88403 11.343 7.89082Z" fill="#02311A"/>
<path d="M25.2939 7.89439C26.9724 7.84926 28.6371 8.21082 30.1477 8.94857C31.4779 9.6272 32.5748 10.6923 33.2963 12.0057C34.0745 13.5158 34.4552 15.2014 34.4021 16.9017V19.5254H21.2898C21.278 20.8619 21.7855 22.1502 22.7041 23.1155C23.1973 23.5669 23.7752 23.9144 24.4039 24.1377C25.0326 24.361 25.6993 24.4555 26.3648 24.4156C27.5649 24.4263 28.7621 24.2966 29.9324 24.0291C31.0742 23.7443 32.1868 23.3522 33.2556 22.8578V27.0394C32.2525 27.5258 31.1927 27.8839 30.1012 28.1052C28.7846 28.3495 27.4474 28.4633 26.1087 28.4449C24.2482 28.4802 22.4025 28.1044 20.702 27.3439C19.159 26.6356 17.8706 25.4658 17.0122 23.994C16.0633 22.2593 15.6007 20.2977 15.6736 18.319C15.6035 16.3199 16.019 14.3337 16.8842 12.5328C17.6244 11.0515 18.8013 9.83654 20.2539 9.05398C21.8127 8.25377 23.5444 7.85533 25.2939 7.89439ZM25.3288 11.7421C24.3375 11.7086 23.3731 12.0707 22.6459 12.7494C21.9358 13.421 21.5265 14.4791 21.4179 15.9237H29.2049C29.2031 15.1858 29.0506 14.4562 28.7568 13.7802C28.4859 13.1694 28.0427 12.6522 27.4822 12.2926C26.8332 11.9016 26.0846 11.7102 25.3288 11.7421Z" fill="#02311A"/>
<path d="M47.165 28.4438C45.3898 28.4952 43.6275 28.1261 42.0202 27.3662C40.6032 26.6542 39.464 25.4851 38.7843 24.0455C37.9808 22.2354 37.6006 20.2639 37.6727 18.2827C37.5964 16.2276 38.0389 14.1865 38.9589 12.3501C39.7352 10.8794 40.9589 9.69728 42.4508 8.97672C44.084 8.22575 45.8645 7.85539 47.6597 7.89326C48.8858 7.8741 50.1095 8.00788 51.3029 8.29152C52.226 8.5186 53.1246 8.83637 53.9859 9.24027L52.3447 13.4218C51.4717 13.0821 50.6569 12.801 49.9061 12.5843C49.175 12.3666 48.4164 12.2561 47.6538 12.2564C46.7985 12.2222 45.9534 12.4532 45.2328 12.9182C44.5551 13.4135 44.0517 14.1129 43.7952 14.9152C43.4525 15.9913 43.2931 17.118 43.3238 18.2476C43.2893 19.3577 43.4631 20.4644 43.836 21.5097C44.11 22.292 44.626 22.9653 45.3084 23.4306C46.0059 23.8667 46.8155 24.0867 47.6364 24.0631C48.678 24.0788 49.7155 23.9265 50.7093 23.6121C51.6302 23.2967 52.5096 22.87 53.3283 22.3413V26.968C52.5016 27.4781 51.6029 27.8592 50.6627 28.0983C49.5141 28.3498 48.3403 28.4657 47.165 28.4438Z" fill="#02311A"/>
<path d="M63.605 28.0842H58.0586V0.5H63.605V28.0842Z" fill="#02311A"/>
<path d="M77.7473 7.84382C80.4633 7.84382 82.5545 8.42947 84.0212 9.60077C85.4878 10.7721 86.2153 12.529 86.2036 14.8716V28.0781H82.3334L81.2567 25.3841H81.1112C80.5906 26.0403 79.9926 26.6303 79.3303 27.141C78.7012 27.599 77.9926 27.9347 77.241 28.1308C76.3003 28.3617 75.334 28.47 74.3659 28.4529C73.2533 28.462 72.1524 28.224 71.1417 27.756C70.2003 27.3144 69.4162 26.5928 68.8952 25.6886C68.3148 24.6121 68.0314 23.3987 68.0746 22.1747C68.0746 20.0742 68.8331 18.5124 70.3502 17.4895C71.8672 16.4666 74.1389 15.9141 77.1653 15.8321L80.698 15.7267V14.8716C80.7341 14.4514 80.6777 14.0284 80.5329 13.6326C80.388 13.2368 80.1583 12.878 79.8599 12.5817C79.198 12.0618 78.37 11.8036 77.532 11.8555C76.5476 11.8524 75.5677 11.9905 74.622 12.2655C73.656 12.5445 72.7092 12.8869 71.7877 13.2904L69.9486 9.64177C71.1017 9.0577 72.3212 8.61715 73.5802 8.3299C74.9453 8.00308 76.3441 7.83992 77.7473 7.84382ZM80.698 18.8892L78.533 18.9712C76.7405 19.0181 75.495 19.3343 74.7966 19.9082C74.4579 20.1824 74.1871 20.5319 74.0053 20.9293C73.8235 21.3266 73.7358 21.7609 73.749 22.1981C73.7174 22.5303 73.7691 22.8651 73.8992 23.1721C74.0293 23.479 74.2338 23.7482 74.494 23.9551C75.074 24.3296 75.7552 24.5138 76.4436 24.4822C77.537 24.5131 78.605 24.1473 79.4525 23.4514C79.8658 23.0901 80.1914 22.6383 80.4043 22.1307C80.6171 21.6231 80.7116 21.0732 80.6805 20.5232L80.698 18.8892Z" fill="#02311A"/>
<path d="M115.782 7.89451C118.086 7.89451 119.832 8.47041 121.019 9.62219C122.207 10.774 122.789 12.6207 122.765 15.1625V28.0878H117.202V16.5095C117.278 15.3887 117.019 14.2707 116.457 13.3001C116.194 12.934 115.841 12.6424 115.433 12.4537C115.025 12.2649 114.576 12.1852 114.129 12.2225C112.662 12.2225 111.62 12.732 111.003 13.751C110.387 14.7701 110.078 16.2342 110.078 18.1434V28.0995H104.532V16.5095C104.551 15.7063 104.441 14.9053 104.206 14.1376C104.031 13.5634 103.681 13.0593 103.205 12.6969C102.687 12.3584 102.076 12.1924 101.459 12.2225C100.586 12.1699 99.7246 12.4361 99.0319 12.9721C98.393 13.5619 97.9534 14.338 97.7748 15.1917C97.5039 16.3624 97.3788 17.5625 97.4023 18.7642V28.0878H91.9199V8.26348H96.1568L96.9018 10.7994H97.2102C97.6014 10.1356 98.1341 9.5675 98.7699 9.13611C99.3992 8.70758 100.096 8.38881 100.83 8.1932C101.579 7.99462 102.349 7.89423 103.123 7.89451C104.422 7.85646 105.714 8.09808 106.912 8.60317C107.924 9.05566 108.764 9.82625 109.304 10.7994H109.793C110.389 9.79774 111.294 9.02016 112.371 8.5856C113.451 8.1299 114.61 7.89497 115.782 7.89451Z" fill="#02311A"/>
<path d="M136.808 7.84385C139.524 7.84385 141.615 8.4295 143.082 9.6008C144.548 10.7721 145.276 12.5291 145.264 14.8717V28.0781H141.388L140.311 25.3841H140.166C139.645 26.0403 139.047 26.6303 138.385 27.1411C137.756 27.5991 137.047 27.9347 136.296 28.1308C135.355 28.3614 134.389 28.4696 133.421 28.4529C132.308 28.4693 131.205 28.2393 130.191 27.7794C129.251 27.3375 128.469 26.6159 127.95 25.7121C127.369 24.6355 127.086 23.4222 127.129 22.1982C127.129 20.0976 127.888 18.5359 129.405 17.513C130.922 16.49 133.194 15.9375 136.22 15.8556L139.747 15.7501V14.8717C139.783 14.452 139.726 14.0296 139.583 13.634C139.439 13.2384 139.211 12.8793 138.915 12.5818C138.252 12.0629 137.425 11.8047 136.587 11.8556C135.602 11.8521 134.622 11.9901 133.677 12.2655C132.71 12.5436 131.764 12.886 130.842 13.2904L129.003 9.6418C130.154 9.05775 131.372 8.61719 132.629 8.32993C133.998 8.0023 135.401 7.83914 136.808 7.84385ZM139.753 18.8892L137.611 18.9595C135.813 19.0064 134.567 19.3226 133.875 19.8966C133.536 20.1708 133.265 20.5203 133.083 20.9176C132.901 21.3149 132.814 21.7492 132.827 22.1864C132.795 22.5186 132.847 22.8535 132.977 23.1604C133.107 23.4673 133.312 23.7365 133.572 23.9434C134.15 24.3178 134.829 24.5021 135.516 24.4705C136.609 24.5036 137.678 24.1375 138.525 23.4398C138.939 23.0793 139.265 22.6276 139.478 22.1198C139.691 21.612 139.785 21.0617 139.753 20.5115V18.8892Z" fill="#02311A"/>
<path d="M174.83 22.1982C174.868 23.4105 174.528 24.6043 173.858 25.6126C173.125 26.5979 172.11 27.3337 170.949 27.7209C169.402 28.2423 167.777 28.4861 166.147 28.4412C164.925 28.4546 163.705 28.3645 162.498 28.1719C161.448 27.9842 160.42 27.6878 159.431 27.2875V22.819C160.58 23.3131 161.77 23.705 162.987 23.9903C164.076 24.2826 165.195 24.4419 166.322 24.4647C167.127 24.5299 167.933 24.3655 168.65 23.9903C168.865 23.8662 169.043 23.687 169.167 23.4709C169.29 23.2549 169.355 23.0097 169.354 22.7604C169.356 22.4388 169.256 22.1249 169.069 21.8644C168.733 21.4815 168.32 21.1742 167.858 20.9625C166.911 20.4718 165.94 20.0301 164.948 19.6389C163.857 19.2104 162.807 18.6831 161.811 18.0635C161.056 17.5969 160.429 16.9463 159.99 16.1719C159.568 15.3102 159.367 14.3556 159.408 13.3959C159.368 12.5722 159.551 11.7531 159.936 11.0252C160.321 10.2973 160.895 9.68784 161.596 9.26117C163.055 8.33194 165.01 7.86732 167.462 7.86732C168.675 7.86259 169.884 7.98626 171.071 8.23628C172.287 8.50457 173.472 8.89704 174.609 9.40758L172.933 13.308C172.003 12.9123 171.053 12.5643 170.087 12.2655C169.207 11.9929 168.291 11.8547 167.369 11.8556C166.742 11.8192 166.114 11.9294 165.536 12.1777C165.347 12.2585 165.187 12.3943 165.076 12.5676C164.965 12.7409 164.909 12.9438 164.913 13.1499C164.912 13.463 165.026 13.7654 165.233 13.9991C165.586 14.3688 166.007 14.6653 166.473 14.8717C167.09 15.1762 167.986 15.5628 169.173 16.043C170.209 16.4483 171.213 16.9318 172.177 17.4896C172.971 17.9411 173.644 18.5802 174.138 19.352C174.629 20.2167 174.869 21.2029 174.83 22.1982Z" fill="#F24E1E"/>
<path d="M203.033 7.89464C205.338 7.89464 207.084 8.47054 208.271 9.62232C209.459 10.7741 210.05 12.6209 210.046 15.1626V28.0879H204.483V16.5096C204.556 15.3891 204.297 14.2719 203.738 13.3002C203.473 12.9354 203.121 12.6448 202.713 12.4561C202.306 12.2675 201.857 12.1871 201.41 12.2226C199.943 12.2226 198.899 12.7321 198.279 13.7512C197.658 14.7702 197.349 16.2343 197.353 18.1435V28.0996H191.807V16.5096C191.829 15.7063 191.719 14.9048 191.481 14.1377C191.308 13.5625 190.957 13.0578 190.48 12.697C189.962 12.3585 189.351 12.1925 188.734 12.2226C187.862 12.17 187 12.4362 186.307 12.9722C185.668 13.5611 185.23 14.3379 185.056 15.1919C184.785 16.3626 184.66 17.5626 184.683 18.7643V28.0879H179.16V8.2636H183.397L184.142 10.7995H184.456C184.847 10.1375 185.378 9.56977 186.01 9.13624C186.641 8.70652 187.339 8.38768 188.076 8.19333C188.823 7.9948 189.591 7.8944 190.363 7.89464C191.664 7.85593 192.958 8.09755 194.158 8.60329C195.17 9.05578 196.01 9.82637 196.55 10.7995H197.039C197.629 9.79542 198.534 9.01683 199.611 8.58572C200.695 8.12985 201.859 7.89495 203.033 7.89464Z" fill="#F24E1E"/>
<path d="M224.031 7.84383C226.755 7.84383 228.85 8.42948 230.299 9.60079C231.748 10.7721 232.481 12.529 232.481 14.8716V28.0781H228.611L227.54 25.3841H227.395C226.872 26.0405 226.272 26.6305 225.608 27.1411C224.98 27.6001 224.271 27.9359 223.519 28.1308C222.578 28.3617 221.612 28.47 220.644 28.4529C219.533 28.4693 218.432 28.2394 217.419 27.7794C216.478 27.3378 215.694 26.6163 215.173 25.7121C214.595 24.6349 214.313 23.4216 214.358 22.1982C214.358 20.0976 215.115 18.5359 216.628 17.5129C218.141 16.49 220.415 15.9356 223.449 15.8497L226.976 15.7443V14.8716C227.012 14.4514 226.955 14.0284 226.811 13.6326C226.666 13.2368 226.436 12.878 226.138 12.5817C225.476 12.0619 224.648 11.8036 223.81 11.8555C222.825 11.8525 221.845 11.9905 220.9 12.2655C219.934 12.5455 218.987 12.8878 218.065 13.2904L216.226 9.64179C217.38 9.05862 218.599 8.61811 219.858 8.32991C221.225 8.00274 222.626 7.83958 224.031 7.84383ZM226.976 18.8892L224.828 18.9595C223.036 19.0064 221.79 19.3226 221.092 19.8965C220.753 20.1707 220.482 20.5202 220.3 20.9176C220.119 21.3149 220.031 21.7492 220.044 22.1864C220.013 22.5186 220.064 22.8534 220.194 23.1603C220.325 23.4673 220.529 23.7365 220.789 23.9434C221.369 24.3179 222.05 24.5021 222.739 24.4705C223.832 24.5014 224.9 24.1356 225.748 23.4397C226.161 23.0784 226.487 22.6266 226.699 22.119C226.912 21.6114 227.007 21.0615 226.976 20.5115V18.8892Z" fill="#F24E1E"/>
<path d="M249.564 7.89079C249.843 7.89079 250.146 7.89079 250.536 7.93179C250.926 7.97279 251.205 8.00208 251.438 8.04893L251.019 13.1207C250.766 13.0478 250.507 13.0027 250.245 12.986C249.913 12.986 249.622 12.945 249.383 12.945C248.68 12.9434 247.98 13.032 247.3 13.2085C246.647 13.3746 246.032 13.667 245.49 14.0694C244.949 14.4773 244.515 15.0121 244.227 15.6273C243.901 16.3636 243.741 17.1639 243.761 17.9699V28.0606H238.221V8.25975H242.417L243.237 11.598H243.511C243.918 10.9101 244.422 10.2849 245.007 9.74145C245.611 9.17871 246.306 8.72325 247.061 8.39446C247.852 8.05597 248.704 7.88453 249.564 7.89079Z" fill="#F24E1E"/>
<path d="M255.761 19.0631V12.621H253.131V10.3018L256.186 8.49796L257.787 4.32812H261.331V8.55067H267.023V12.6092H261.331V19.0514" fill="#F24E1E"/>
<path d="M261.326 23.4297H255.768V28.5073H261.326V23.4297Z" fill="#F24E1E"/>
</g>
<defs>
<clipPath id="clip0_907_1714">
<rect width="268" height="29" fill="white" transform="translate(0 0.5)"/>
</clipPath>
</defs>
</svg>
