<svg width="32" height="33" viewBox="0 0 32 33" fill="none" xmlns="http://www.w3.org/2000/svg">
<path d="M21.833 4.91613C23.3788 4.92075 24.8599 5.53686 25.953 6.6299C27.046 7.72294 27.6621 9.2041 27.6668 10.7499V22.4161C27.6621 23.9619 27.046 25.4431 25.953 26.5361C24.8599 27.6292 23.3788 28.2453 21.833 28.2499H10.1668C8.62097 28.2453 7.13981 27.6292 6.04677 26.5361C4.95373 25.4431 4.33762 23.9619 4.333 22.4161V10.7499C4.33762 9.2041 4.95373 7.72294 6.04677 6.6299C7.13981 5.53686 8.62097 4.92075 10.1668 4.91613H21.833V4.91613ZM21.833 2.58301H10.1668C5.67488 2.58301 1.99988 6.25801 1.99988 10.7499V22.4161C1.99988 26.908 5.67488 30.583 10.1668 30.583H21.833C26.3249 30.583 29.9999 26.908 29.9999 22.4161V10.7499C29.9999 6.25801 26.3249 2.58301 21.833 2.58301V2.58301Z" fill="#02311A"/>
<path d="M23.5831 10.7471C23.237 10.7471 22.8987 10.6444 22.6109 10.4521C22.3231 10.2599 22.0988 9.98654 21.9663 9.66677C21.8339 9.347 21.7992 8.99513 21.8668 8.65566C21.9343 8.3162 22.1009 8.00438 22.3457 7.75963C22.5904 7.51489 22.9023 7.34822 23.2417 7.2807C23.5812 7.21317 23.9331 7.24783 24.2528 7.38028C24.5726 7.51274 24.8459 7.73704 25.0382 8.02482C25.2305 8.31261 25.3331 8.65095 25.3331 8.99707C25.3336 9.22702 25.2887 9.45481 25.2009 9.66735C25.1131 9.87989 24.9843 10.073 24.8217 10.2356C24.6591 10.3982 24.4659 10.5271 24.2534 10.6149C24.0409 10.7026 23.8131 10.7476 23.5831 10.7471V10.7471ZM16 11.9133C16.923 11.9133 17.8253 12.187 18.5928 12.6998C19.3602 13.2126 19.9584 13.9415 20.3116 14.7943C20.6649 15.647 20.7573 16.5854 20.5772 17.4907C20.3971 18.3959 19.9527 19.2275 19.3 19.8802C18.6473 20.5328 17.8157 20.9773 16.9105 21.1574C16.0052 21.3375 15.0668 21.2451 14.2141 20.8918C13.3613 20.5386 12.6324 19.9404 12.1196 19.173C11.6068 18.4055 11.3331 17.5032 11.3331 16.5802C11.3345 15.3429 11.8266 14.1566 12.7015 13.2817C13.5764 12.4068 14.7627 11.9146 16 11.9133V11.9133ZM16 9.5802C14.6155 9.5802 13.2622 9.99074 12.111 10.7599C10.9599 11.5291 10.0627 12.6223 9.53285 13.9014C9.00303 15.1805 8.86441 16.588 9.13451 17.9458C9.4046 19.3037 10.0713 20.551 11.0503 21.5299C12.0292 22.5089 13.2765 23.1756 14.6344 23.4457C15.9922 23.7158 17.3997 23.5772 18.6788 23.0474C19.9579 22.5175 21.0511 21.6203 21.8203 20.4692C22.5895 19.318 23 17.9647 23 16.5802C23 14.7237 22.2625 12.9432 20.9497 11.6304C19.637 10.3177 17.8565 9.5802 16 9.5802V9.5802Z" fill="#02311A"/>
</svg>
