<svg width="32" height="33" viewBox="0 0 32 33" fill="none" xmlns="http://www.w3.org/2000/svg">
<path d="M25.7619 8.00609C25.5594 7.90144 25.3623 7.78671 25.1713 7.66234C24.6158 7.29513 24.1065 6.86244 23.6544 6.37359C22.5231 5.07922 22.1006 3.76609 21.945 2.84672H21.9513C21.8213 2.08359 21.875 1.58984 21.8831 1.58984H16.7306V21.5136C16.7306 21.7811 16.7306 22.0455 16.7194 22.3067C16.7194 22.3392 16.7163 22.3692 16.7144 22.4042C16.7144 22.4186 16.7144 22.4336 16.7113 22.4486V22.4598C16.6569 23.1747 16.4278 23.8653 16.0439 24.4708C15.6601 25.0763 15.1333 25.5782 14.51 25.9323C13.8603 26.3019 13.1256 26.4958 12.3781 26.4948C9.97751 26.4948 8.03188 24.5373 8.03188 22.1198C8.03188 19.7023 9.97751 17.7448 12.3781 17.7448C12.8326 17.7444 13.2842 17.8159 13.7163 17.9567L13.7225 12.7105C12.4109 12.541 11.0783 12.6453 9.80899 13.0166C8.53964 13.388 7.36103 14.0183 6.34751 14.868C5.45942 15.6396 4.71281 16.5603 4.14126 17.5886C3.92376 17.9636 3.10313 19.4705 3.00376 21.9161C2.94126 23.3042 3.35813 24.7423 3.55688 25.3367V25.3492C3.68188 25.6992 4.16626 26.8936 4.95563 27.9005C5.59215 28.7081 6.34419 29.4176 7.18751 30.0061V29.9936L7.20001 30.0061C9.69438 31.7011 12.46 31.5898 12.46 31.5898C12.9388 31.5705 14.5425 31.5898 16.3638 30.7267C18.3838 29.7698 19.5338 28.3442 19.5338 28.3442C20.2684 27.4924 20.8526 26.5216 21.2613 25.4736C21.7275 24.248 21.8831 22.778 21.8831 22.1905V11.6205C21.9456 11.658 22.7781 12.2086 22.7781 12.2086C22.7781 12.2086 23.9775 12.9773 25.8488 13.478C27.1913 13.8342 29 13.9092 29 13.9092V8.79422C28.3663 8.86297 27.0794 8.66297 25.7619 8.00609Z" fill="#02311A"/>
</svg>
