<svg width="28" height="29" viewBox="0 0 28 29" fill="none" xmlns="http://www.w3.org/2000/svg">
<path fill-rule="evenodd" clip-rule="evenodd" d="M23.9204 4.65719C22.626 3.36224 21.0884 2.33608 19.3958 1.63779C17.7033 0.9395 15.8894 0.582875 14.0585 0.588443C6.37476 0.588443 0.119756 6.81219 0.116631 14.4634C0.113232 16.8998 0.75544 19.2935 1.97788 21.4009L-0.000244141 28.5884L7.39038 26.6591C9.43614 27.7673 11.7262 28.3474 14.0529 28.3466H14.0585C21.7416 28.3466 27.996 22.1222 27.9998 14.4716C28.0044 12.6469 27.6461 10.8396 26.9458 9.15465C26.2455 7.46975 25.2171 5.94094 23.9204 4.65719V4.65719ZM14.0585 26.0047H14.0535C11.9794 26.0053 9.94294 25.4502 8.15601 24.3972L7.73288 24.1472L3.34726 25.2922L4.51788 21.0366L4.24226 20.5991C3.0825 18.7629 2.46804 16.6352 2.47038 14.4634C2.47038 8.10532 7.67101 2.93219 14.0629 2.93219C17.1291 2.92672 20.072 4.1394 22.2442 6.30352C24.4164 8.46763 25.64 11.4059 25.646 14.4722C25.6435 20.8309 20.4454 26.0047 14.0585 26.0047V26.0047ZM20.4141 17.3678C20.066 17.1941 18.3516 16.3553 18.0341 16.2397C17.7166 16.1241 17.4823 16.0659 17.2504 16.4134C17.0185 16.7609 16.3504 17.5384 16.1473 17.7728C15.9441 18.0072 15.741 18.0328 15.3929 17.8591C15.0448 17.6853 13.9216 17.3197 12.591 16.1384C11.5554 15.2191 10.8566 14.0841 10.6535 13.7372C10.4504 13.3903 10.6316 13.2022 10.806 13.0297C10.9629 12.8741 11.1541 12.6247 11.3285 12.4222C11.5029 12.2197 11.561 12.0747 11.6766 11.8434C11.7923 11.6122 11.7348 11.4097 11.6479 11.2366C11.561 11.0634 10.8641 9.35657 10.5741 8.66219C10.291 7.98594 10.0041 8.07782 9.79038 8.06719C9.58725 8.05719 9.35288 8.05469 9.12226 8.05469C8.94595 8.05928 8.77248 8.10017 8.61269 8.1748C8.45289 8.24943 8.31019 8.3562 8.19351 8.48844C7.87413 8.83594 6.97413 9.67594 6.97413 11.3809C6.97413 13.0859 8.22413 14.7359 8.39663 14.9672C8.56913 15.1984 10.8529 18.7003 14.3473 20.2022C14.9961 20.4801 15.6591 20.7237 16.3335 20.9322C17.1679 21.1959 17.9273 21.1591 18.5273 21.0697C19.1966 20.9703 20.5898 20.2309 20.8791 19.4209C21.1685 18.6109 21.1691 17.9172 21.0823 17.7728C20.9954 17.6284 20.7629 17.5409 20.4141 17.3678V17.3678Z" fill="#02311A"/>
</svg>
