<svg width="267" height="28" viewBox="0 0 267 28" fill="none" xmlns="http://www.w3.org/2000/svg">
<g clip-path="url(#clip0_817_570)">
<path d="M11.343 7.39082C11.6224 7.39082 11.925 7.39082 12.3207 7.43182C12.7165 7.47281 12.99 7.5021 13.217 7.54896L12.798 12.6207C12.5474 12.5483 12.2899 12.5032 12.0298 12.486C11.6922 12.486 11.407 12.445 11.1626 12.445C10.4598 12.4435 9.75963 12.532 9.07906 12.7085C8.42778 12.8748 7.81495 13.1672 7.27489 13.5695C6.73215 13.9769 6.29661 14.5117 6.00615 15.1273C5.68202 15.8641 5.52496 16.6644 5.54637 17.4699V27.5607H0V7.75978H4.20198L5.01676 11.098H5.2903C5.7017 10.4113 6.20718 9.7863 6.79183 9.24148C7.39597 8.67874 8.09065 8.22328 8.84626 7.89449C9.6352 7.5555 10.4852 7.38403 11.343 7.39082Z" fill="#02311A"/>
<path d="M25.2939 7.39439C26.9724 7.34926 28.6371 7.71082 30.1477 8.44857C31.4779 9.1272 32.5748 10.1923 33.2963 11.5057C34.0745 13.0158 34.4552 14.7014 34.4021 16.4017V19.0254H21.2898C21.278 20.3619 21.7855 21.6502 22.7041 22.6155C23.1973 23.0669 23.7752 23.4144 24.4039 23.6377C25.0326 23.861 25.6993 23.9555 26.3648 23.9156C27.5649 23.9263 28.7621 23.7966 29.9324 23.5291C31.0742 23.2443 32.1868 22.8522 33.2556 22.3578V26.5394C32.2525 27.0258 31.1927 27.3839 30.1012 27.6052C28.7846 27.8495 27.4474 27.9633 26.1087 27.9449C24.2482 27.9802 22.4025 27.6044 20.702 26.8439C19.159 26.1356 17.8706 24.9658 17.0122 23.494C16.0633 21.7593 15.6007 19.7977 15.6736 17.819C15.6035 15.8199 16.019 13.8337 16.8842 12.0328C17.6244 10.5515 18.8013 9.33654 20.2539 8.55398C21.8127 7.75377 23.5444 7.35533 25.2939 7.39439ZM25.3288 11.2421C24.3375 11.2086 23.3731 11.5707 22.6459 12.2494C21.9358 12.921 21.5265 13.9791 21.4179 15.4237H29.2049C29.2031 14.6858 29.0506 13.9562 28.7568 13.2802C28.4859 12.6694 28.0427 12.1522 27.4822 11.7926C26.8332 11.4016 26.0846 11.2102 25.3288 11.2421Z" fill="#02311A"/>
<path d="M47.165 27.9438C45.3898 27.9952 43.6275 27.6261 42.0202 26.8662C40.6032 26.1542 39.464 24.9851 38.7843 23.5455C37.9808 21.7354 37.6006 19.7639 37.6727 17.7827C37.5964 15.7276 38.0389 13.6865 38.9589 11.8501C39.7352 10.3794 40.9589 9.19728 42.4508 8.47672C44.084 7.72575 45.8645 7.35539 47.6597 7.39326C48.8858 7.3741 50.1095 7.50788 51.3029 7.79152C52.226 8.0186 53.1246 8.33637 53.9859 8.74027L52.3447 12.9218C51.4717 12.5821 50.6569 12.301 49.9061 12.0843C49.175 11.8666 48.4164 11.7561 47.6538 11.7564C46.7985 11.7222 45.9534 11.9532 45.2328 12.4182C44.5551 12.9135 44.0517 13.6129 43.7952 14.4152C43.4525 15.4913 43.2931 16.618 43.3238 17.7476C43.2893 18.8577 43.4631 19.9644 43.836 21.0097C44.11 21.792 44.626 22.4653 45.3084 22.9306C46.0059 23.3667 46.8155 23.5867 47.6364 23.5631C48.678 23.5788 49.7155 23.4265 50.7093 23.1121C51.6302 22.7967 52.5096 22.37 53.3283 21.8413V26.468C52.5016 26.9781 51.6029 27.3592 50.6627 27.5983C49.5141 27.8498 48.3403 27.9657 47.165 27.9438Z" fill="#02311A"/>
<path d="M63.605 27.5842H58.0586V0H63.605V27.5842Z" fill="#02311A"/>
<path d="M77.7473 7.34382C80.4633 7.34382 82.5545 7.92947 84.0212 9.10077C85.4878 10.2721 86.2153 12.029 86.2036 14.3716V27.5781H82.3334L81.2567 24.8841H81.1112C80.5906 25.5403 79.9926 26.1303 79.3303 26.641C78.7012 27.099 77.9926 27.4347 77.241 27.6308C76.3003 27.8617 75.334 27.97 74.3659 27.9529C73.2533 27.962 72.1524 27.724 71.1417 27.256C70.2003 26.8144 69.4162 26.0928 68.8952 25.1886C68.3148 24.1121 68.0314 22.8987 68.0746 21.6747C68.0746 19.5742 68.8331 18.0124 70.3502 16.9895C71.8672 15.9666 74.1389 15.4141 77.1653 15.3321L80.698 15.2267V14.3716C80.7341 13.9514 80.6777 13.5284 80.5329 13.1326C80.388 12.7368 80.1583 12.378 79.8599 12.0817C79.198 11.5618 78.37 11.3036 77.532 11.3555C76.5476 11.3524 75.5677 11.4905 74.622 11.7655C73.656 12.0445 72.7092 12.3869 71.7877 12.7904L69.9486 9.14177C71.1017 8.5577 72.3212 8.11715 73.5802 7.8299C74.9453 7.50308 76.3441 7.33992 77.7473 7.34382ZM80.698 18.3892L78.533 18.4712C76.7405 18.5181 75.495 18.8343 74.7966 19.4082C74.4579 19.6824 74.1871 20.0319 74.0053 20.4293C73.8235 20.8266 73.7358 21.2609 73.749 21.6981C73.7174 22.0303 73.7691 22.3651 73.8992 22.6721C74.0293 22.979 74.2338 23.2482 74.494 23.4551C75.074 23.8296 75.7552 24.0138 76.4436 23.9822C77.537 24.0131 78.605 23.6473 79.4525 22.9514C79.8658 22.5901 80.1914 22.1383 80.4043 21.6307C80.6171 21.1231 80.7116 20.5732 80.6805 20.0232L80.698 18.3892Z" fill="#02311A"/>
<path d="M115.782 7.39451C118.086 7.39451 119.832 7.97041 121.019 9.12219C122.207 10.274 122.789 12.1207 122.765 14.6625V27.5878H117.202V16.0095C117.278 14.8887 117.019 13.7707 116.457 12.8001C116.194 12.434 115.841 12.1424 115.433 11.9537C115.025 11.7649 114.576 11.6852 114.129 11.7225C112.662 11.7225 111.62 12.232 111.003 13.251C110.387 14.2701 110.078 15.7342 110.078 17.6434V27.5995H104.532V16.0095C104.551 15.2063 104.441 14.4053 104.206 13.6376C104.031 13.0634 103.681 12.5593 103.205 12.1969C102.687 11.8584 102.076 11.6924 101.459 11.7225C100.586 11.6699 99.7246 11.9361 99.0319 12.4721C98.393 13.0619 97.9534 13.838 97.7748 14.6917C97.5039 15.8624 97.3788 17.0625 97.4023 18.2642V27.5878H91.9199V7.76348H96.1568L96.9018 10.2994H97.2102C97.6014 9.63559 98.1341 9.0675 98.7699 8.63611C99.3992 8.20758 100.096 7.88881 100.83 7.6932C101.579 7.49462 102.349 7.39423 103.123 7.39451C104.422 7.35646 105.714 7.59808 106.912 8.10317C107.924 8.55566 108.764 9.32625 109.304 10.2994H109.793C110.389 9.29774 111.294 8.52016 112.371 8.0856C113.451 7.6299 114.61 7.39497 115.782 7.39451Z" fill="#02311A"/>
<path d="M136.808 7.34385C139.524 7.34385 141.615 7.9295 143.082 9.1008C144.548 10.2721 145.276 12.0291 145.264 14.3717V27.5781H141.388L140.311 24.8841H140.166C139.645 25.5403 139.047 26.1303 138.385 26.6411C137.756 27.0991 137.047 27.4347 136.296 27.6308C135.355 27.8614 134.389 27.9696 133.421 27.9529C132.308 27.9693 131.205 27.7393 130.191 27.2794C129.251 26.8375 128.469 26.1159 127.95 25.2121C127.369 24.1355 127.086 22.9222 127.129 21.6982C127.129 19.5976 127.888 18.0359 129.405 17.013C130.922 15.99 133.194 15.4375 136.22 15.3556L139.747 15.2501V14.3717C139.783 13.952 139.726 13.5296 139.583 13.134C139.439 12.7384 139.211 12.3793 138.915 12.0818C138.252 11.5629 137.425 11.3047 136.587 11.3556C135.602 11.3521 134.622 11.4901 133.677 11.7655C132.71 12.0436 131.764 12.386 130.842 12.7904L129.003 9.1418C130.154 8.55775 131.372 8.11719 132.629 7.82993C133.998 7.5023 135.401 7.33914 136.808 7.34385ZM139.753 18.3892L137.611 18.4595C135.813 18.5064 134.567 18.8226 133.875 19.3966C133.536 19.6708 133.265 20.0203 133.083 20.4176C132.901 20.8149 132.814 21.2492 132.827 21.6864C132.795 22.0186 132.847 22.3535 132.977 22.6604C133.107 22.9673 133.312 23.2365 133.572 23.4434C134.15 23.8178 134.829 24.0021 135.516 23.9705C136.609 24.0036 137.678 23.6375 138.525 22.9398C138.939 22.5793 139.265 22.1276 139.478 21.6198C139.691 21.112 139.785 20.5617 139.753 20.0115V18.3892Z" fill="#02311A"/>
<path d="M174.83 21.6982C174.868 22.9105 174.528 24.1043 173.858 25.1126C173.125 26.0979 172.11 26.8337 170.949 27.2209C169.402 27.7423 167.777 27.9861 166.147 27.9412C164.925 27.9546 163.705 27.8645 162.498 27.6719C161.448 27.4842 160.42 27.1878 159.431 26.7875V22.319C160.58 22.8131 161.77 23.205 162.987 23.4903C164.076 23.7826 165.195 23.9419 166.322 23.9647C167.127 24.0299 167.933 23.8655 168.65 23.4903C168.865 23.3662 169.043 23.187 169.167 22.9709C169.29 22.7549 169.355 22.5097 169.354 22.2604C169.356 21.9388 169.256 21.6249 169.069 21.3644C168.733 20.9815 168.32 20.6742 167.858 20.4625C166.911 19.9718 165.94 19.5301 164.948 19.1389C163.857 18.7104 162.807 18.1831 161.811 17.5635C161.056 17.0969 160.429 16.4463 159.99 15.6719C159.568 14.8102 159.367 13.8556 159.408 12.8959C159.368 12.0722 159.551 11.2531 159.936 10.5252C160.321 9.79735 160.895 9.18784 161.596 8.76117C163.055 7.83194 165.01 7.36732 167.462 7.36732C168.675 7.36259 169.884 7.48626 171.071 7.73628C172.287 8.00457 173.472 8.39704 174.609 8.90758L172.933 12.808C172.003 12.4123 171.053 12.0643 170.087 11.7655C169.207 11.4929 168.291 11.3547 167.369 11.3556C166.742 11.3192 166.114 11.4294 165.536 11.6777C165.347 11.7585 165.187 11.8943 165.076 12.0676C164.965 12.2409 164.909 12.4438 164.913 12.6499C164.912 12.963 165.026 13.2654 165.233 13.4991C165.586 13.8688 166.007 14.1653 166.473 14.3717C167.09 14.6762 167.986 15.0628 169.173 15.543C170.209 15.9483 171.213 16.4318 172.177 16.9896C172.971 17.4411 173.644 18.0802 174.138 18.852C174.629 19.7167 174.869 20.7029 174.83 21.6982Z" fill="#F24E1E"/>
<path d="M203.033 7.39464C205.338 7.39464 207.084 7.97054 208.271 9.12232C209.459 10.2741 210.05 12.1209 210.046 14.6626V27.5879H204.483V16.0096C204.556 14.8891 204.297 13.7719 203.738 12.8002C203.473 12.4354 203.121 12.1448 202.713 11.9561C202.306 11.7675 201.857 11.6871 201.41 11.7226C199.943 11.7226 198.899 12.2321 198.279 13.2512C197.658 14.2702 197.349 15.7343 197.353 17.6435V27.5996H191.807V16.0096C191.829 15.2063 191.719 14.4048 191.481 13.6377C191.308 13.0625 190.957 12.5578 190.48 12.197C189.962 11.8585 189.351 11.6925 188.734 11.7226C187.862 11.67 187 11.9362 186.307 12.4722C185.668 13.0611 185.23 13.8379 185.056 14.6919C184.785 15.8626 184.66 17.0626 184.683 18.2643V27.5879H179.16V7.7636H183.397L184.142 10.2995H184.456C184.847 9.63749 185.378 9.06977 186.01 8.63624C186.641 8.20652 187.339 7.88768 188.076 7.69333C188.823 7.4948 189.591 7.3944 190.363 7.39464C191.664 7.35593 192.958 7.59755 194.158 8.10329C195.17 8.55578 196.01 9.32637 196.55 10.2995H197.039C197.629 9.29542 198.534 8.51683 199.611 8.08572C200.695 7.62985 201.859 7.39495 203.033 7.39464Z" fill="#F24E1E"/>
<path d="M224.031 7.34383C226.755 7.34383 228.85 7.92948 230.299 9.10079C231.748 10.2721 232.481 12.029 232.481 14.3716V27.5781H228.611L227.54 24.8841H227.395C226.872 25.5405 226.272 26.1305 225.608 26.6411C224.98 27.1001 224.271 27.4359 223.519 27.6308C222.578 27.8617 221.612 27.97 220.644 27.9529C219.533 27.9693 218.432 27.7394 217.419 27.2794C216.478 26.8378 215.694 26.1163 215.173 25.2121C214.595 24.1349 214.313 22.9216 214.358 21.6982C214.358 19.5976 215.115 18.0359 216.628 17.0129C218.141 15.99 220.415 15.4356 223.449 15.3497L226.976 15.2443V14.3716C227.012 13.9514 226.955 13.5284 226.811 13.1326C226.666 12.7368 226.436 12.378 226.138 12.0817C225.476 11.5619 224.648 11.3036 223.81 11.3555C222.825 11.3525 221.845 11.4905 220.9 11.7655C219.934 12.0455 218.987 12.3878 218.065 12.7904L216.226 9.14179C217.38 8.55862 218.599 8.11811 219.858 7.82991C221.225 7.50274 222.626 7.33958 224.031 7.34383ZM226.976 18.3892L224.828 18.4595C223.036 18.5064 221.79 18.8226 221.092 19.3965C220.753 19.6707 220.482 20.0202 220.3 20.4176C220.119 20.8149 220.031 21.2492 220.044 21.6864C220.013 22.0186 220.064 22.3534 220.194 22.6603C220.325 22.9673 220.529 23.2365 220.789 23.4434C221.369 23.8179 222.05 24.0021 222.739 23.9705C223.832 24.0014 224.9 23.6356 225.748 22.9397C226.161 22.5784 226.487 22.1266 226.699 21.619C226.912 21.1114 227.007 20.5615 226.976 20.0115V18.3892Z" fill="#F24E1E"/>
<path d="M249.564 7.39079C249.843 7.39079 250.146 7.39079 250.536 7.43179C250.926 7.47279 251.205 7.50208 251.438 7.54893L251.019 12.6207C250.766 12.5478 250.507 12.5027 250.245 12.486C249.913 12.486 249.622 12.445 249.383 12.445C248.68 12.4434 247.98 12.532 247.3 12.7085C246.647 12.8746 246.032 13.167 245.49 13.5694C244.949 13.9773 244.515 14.5121 244.227 15.1273C243.901 15.8636 243.741 16.6639 243.761 17.4699V27.5606H238.221V7.75975H242.417L243.237 11.098H243.511C243.918 10.4101 244.422 9.78487 245.007 9.24145C245.611 8.67871 246.306 8.22325 247.061 7.89446C247.852 7.55597 248.704 7.38453 249.564 7.39079Z" fill="#F24E1E"/>
<path d="M255.761 18.5631V12.121H253.131V9.80178L256.186 7.99796L257.787 3.82812H261.331V8.05067H267.023V12.1092H261.331V18.5514" fill="#F24E1E"/>
<path d="M261.326 22.9297H255.768V28.0073H261.326V22.9297Z" fill="#F24E1E"/>
</g>
<defs>
<clipPath id="clip0_817_570">
<rect width="267" height="28" fill="white"/>
</clipPath>
</defs>
</svg>
