<svg width="83" height="64" viewBox="0 0 83 64" fill="none" xmlns="http://www.w3.org/2000/svg">
<path id="Vector" d="M7.2544 57.7143L28.683 32M75.8258 57.7143L54.3973 32M2.96869 14.8571L33.933 35.4997C36.6823 37.3327 38.0567 38.2494 39.5425 38.6051C40.8557 38.9201 42.2245 38.9201 43.5377 38.6051C45.0235 38.2494 46.398 37.3327 49.1473 35.4997L80.1115 14.8571M16.683 62H66.3973C71.1977 62 73.5981 62 75.4315 61.0657C77.0443 60.2441 78.3557 58.9327 79.1773 57.32C80.1115 55.4866 80.1115 53.0861 80.1115 48.2857V15.7143C80.1115 10.9139 80.1115 8.5136 79.1773 6.68009C78.3557 5.06724 77.0443 3.75599 75.4315 2.93424C73.5981 2 71.1977 2 66.3973 2H16.683C11.8825 2 9.48229 2 7.64877 2.93424C6.03593 3.75599 4.72467 5.06724 3.90293 6.68009C2.96869 8.5136 2.96869 10.9138 2.96869 15.7143V48.2857C2.96869 53.0861 2.96869 55.4866 3.90293 57.32C4.72467 58.9327 6.03593 60.2441 7.64877 61.0657C9.48229 62 11.8825 62 16.683 62Z" stroke="#FF5220" stroke-width="4" stroke-linecap="round" stroke-linejoin="round"/>
</svg>
