<svg width="317" height="530" viewBox="0 0 317 530" fill="none" xmlns="http://www.w3.org/2000/svg">
<g clip-path="url(#clip0_907_1487)">
<path d="M145.61 331.627L145.329 331.471C145.56 330.289 145.629 329.066 145.537 327.832C145.549 326.769 144.182 325.875 144.1 324.555C144.03 324.088 143.929 323.622 143.798 323.159C145.161 322.026 144.13 320.385 144.765 319.144L143.707 315.327L144.672 313.586C143.765 312.615 143.229 311.413 143.164 310.202L144.052 308.6L142.983 304.708L144.497 301.975L143.533 299.598L144.604 297.666L144.281 296.167L146.184 296.471C146.2 296.206 146.272 295.745 146.242 295.752C144.855 295.415 144.554 294.065 143.645 293.197C142.736 292.329 143.339 292.14 143.517 291.534C143.532 291.045 143.453 290.547 143.284 290.062L144.191 288.426L142.716 285.834C142.721 284.357 143.763 283.615 143.994 282.582C145.215 282.508 146.305 282.908 147.527 282.265L146.923 281.225L145.326 281.409L144.535 279.902L142.717 279.963C141.886 279.002 143.508 278.536 143.381 277.441C142.184 275.436 143.444 272.926 142.968 270.568C143.27 269.643 144.231 268.856 144.26 267.621L142.519 267.543L143.904 264.761L144.021 261.663L143.178 261.196L143.295 258.052L144.582 255.398L143.483 254.447L143.581 251.384C143.91 250.807 144.199 250.207 144.445 249.588C145.044 249.738 145.677 250.157 145.53 249.097C145.149 249.227 144.786 249.391 144.445 249.588C143.402 249.009 144.482 248.243 144.358 247.378L143.32 246.507L143.667 244.651L142.147 244.696C141.873 243.77 142.729 243.267 142.955 242.527L142.624 241.137L144.978 240.44L145.382 237.865L146.891 238.36C146.589 239.594 146.77 240.94 147.402 242.17L148.749 242.439L148.024 239.534L149.954 236.053L149.318 233.698C149.955 232.17 150.222 230.497 150.1 228.784C150.1 228.784 149.819 228.628 149.679 228.55L151.348 225.539C151.049 224.895 151.233 224.042 150.39 223.529L148.759 226.471C149.108 227.119 148.836 228.083 149.679 228.55L148.019 231.545L148.36 232.917L147.204 233.3L147.145 236.908C146.236 237.223 145.744 236.359 144.955 236.127C144.301 235.036 145.603 234.438 145.625 233.403L144.42 232.03L145.712 231.449L147.217 228.733L146.608 227.986L146.588 226.177L147.468 225.914C147.717 225.732 147.934 225.515 148.113 225.271L151.644 218.9L151.259 217.275L153.214 215.878L155.896 211.039C157.828 211.245 157.635 208.658 159.315 208.656L161.67 205.069L162.709 204.758L164.001 202.425C165.259 202.143 165.759 200.532 167.186 200.891L166 203.032L164.655 203.47C163.97 204.382 163.517 205.441 163.326 206.578L165.212 207.624L169 206.515C169 206.515 169.241 206.648 169.1 206.571L171.184 207.543L172.047 206.27L170.862 204.907L171.115 203.455L169.109 200.591C168.636 200.801 168.148 200.986 167.648 201.146C167.599 201.233 167.387 201.002 167.246 200.924L168.51 198.644C168.94 198.695 169.366 198.801 169.778 198.959C170.32 199.26 170.841 199.549 171.553 199.306C171.983 199.262 172.429 199.293 172.866 199.397L173.358 200.875C175.011 200.449 176.775 201.336 178.027 200.118C178.509 200.385 178.689 200.485 178.79 200.541C179.453 201.568 180.086 202.602 180.73 203.664C181.562 203.527 182.437 203.562 183.297 203.767L184.617 201.905C185.927 201.766 186.624 203.017 187.907 203.114C187.907 203.114 188.048 203.192 188.144 203.018C188.641 202.406 189.077 201.76 189.524 201.143C189.874 201.223 190.183 201.28 190.482 201.355C191.778 202.756 190.935 205.27 193 206.278L191.481 209.396C192.008 210.575 193.281 210.643 194.309 211.44C194.547 212.651 194.869 213.856 195.274 215.047C195.674 215.773 196.181 216.452 196.778 217.064L197.906 216.734C197.787 217.942 197.608 219.117 197.577 220.26C197.547 221.404 197.636 222.568 198.977 223.13L198.642 224.491C199.679 225.895 200.292 227.499 200.409 229.111C200.173 229.868 199.298 230.407 199.701 231.336L201.057 231.018C201.202 231.94 201.893 232.824 201.124 233.831L203.02 240.207C202.854 240.549 202.711 240.903 202.591 241.266C202.553 241.413 202.556 241.57 202.598 241.725C202.974 242.183 203.379 242.635 203.754 243.048L203.271 243.918L207.684 259.903L207.095 260.965L208.327 262.717L207.825 263.622C208.439 265.828 209.082 268.028 209.666 270.24C210.389 272.555 210.845 274.906 211.025 277.251C211.325 279.514 211.906 281.768 212.758 283.968L213.934 282.982C213.204 281.508 213.634 279.88 213.301 278.398C213.062 276.866 213.07 275.336 213.324 273.86C213.502 272.594 212.051 271.425 213.113 270.171C212.579 267.235 212.537 264.293 212.987 261.454C213.354 259.063 213.156 256.565 212.407 254.125C212.577 251.784 212.805 249.953 212.834 248.149C212.744 247.348 212.533 246.55 212.208 245.777L213.231 243.932C211.717 241.409 212.563 238.51 212.358 235.711C212.559 234.92 212.899 234.18 213.364 233.516C213.261 233.276 213.167 232.405 212.705 232.149C211.02 231.215 212.266 229.63 211.907 228.385C211.708 227.797 212.801 227.151 212.596 226.195C212.524 225.438 212.545 224.686 212.658 223.954L211.775 223.465C211.901 221.477 211.867 219.466 211.674 217.447C211.46 215.93 211.508 214.42 211.818 212.976C211.908 211.716 211.735 210.423 211.307 209.165C212.511 208.081 211.699 206.47 212.35 205.011L211.257 201.447C212.013 200.104 212.331 198.549 212.176 196.95C212.21 195.421 212.609 193.754 211.682 192.398L212.473 190.971C212.516 189.948 212.528 188.885 212.619 187.821C212.751 186.603 212.666 185.35 212.368 184.109C212.062 183.034 212.127 181.938 212.554 180.981C213.191 179.832 212.817 178.851 213.067 177.784C213.318 176.717 213.141 175.663 213.283 174.604C213.424 173.544 213.401 172.166 213.49 170.964C213.394 169.815 213.655 168.704 214.241 167.763C213.127 165.939 214.421 163.653 213.34 162.007C213.2 160.792 214.305 160.266 214.066 159.087C213.632 157.458 214.666 155.733 214.072 154.061C215.493 152.869 214.548 151.072 215.279 149.565C215.815 148.017 215.95 146.334 215.673 144.641C215.388 142.889 215.329 141.138 215.496 139.423L216.625 137.387L216.314 136.008L217.648 135.541L218.078 134.528L216.831 133.087L218.084 132.529L217.864 131.224L219.726 127.864L219.383 126.4L220.348 124.659L220.046 123.264L221.311 122.827L222.276 121.086L222.013 119.62C223.525 119.685 224.418 120.771 225.588 121.215C225.598 122.381 225.598 122.381 226.934 122.621C227.124 121.52 226.043 121.672 225.588 121.215C226.134 119.993 226.928 121.116 227.701 120.953C228.473 120.789 228.415 119.664 228.954 119.212L228.651 117.77L231.714 117.829L233.339 118.73L235.128 118.106L233.624 114.997C234.424 114.69 234.424 114.69 236.976 116.332L237.535 117.643L238.617 116.353C239.496 115.999 240.007 116.874 240.816 117.117L242.202 116.793L244.751 118.206L244.589 120.391L245.984 120.05L248.146 128.075L249.852 129.02L251.253 134.347L252.858 135.237C252.809 136.12 252.858 137.016 253.002 137.911C253.246 138.797 253.105 139.902 254.057 140.362C253.899 140.979 253.382 141.58 254.512 141.433C254.395 141.068 254.243 140.709 254.057 140.362C254.275 140.3 254.567 139.916 254.726 139.959C255.254 140.129 255.772 140.332 256.277 140.568L259.186 151.078C259.004 151.546 258.981 152.071 259.118 152.588C259.256 153.104 259.548 153.59 259.961 153.987C261.08 154.949 260.764 156.23 260.526 157.463L261.627 158.506L261.191 159.812C262.078 161.145 263.216 163.209 263 163.977C262.377 165.907 263.545 167.396 263.714 169.174L263.27 169.975C263.688 171.208 265.301 171.942 264.555 173.713C263.953 175.131 265.368 175.938 265.922 176.974L265.459 177.809C265.698 180.217 267.164 182.304 266.59 184.807L267.432 185.275L268.48 189.064C268.48 189.064 268.68 189.175 268.781 189.23C270.343 188.731 269.231 187.614 269.406 186.778C269.58 185.942 270.487 185.489 270.104 184.571C269.721 183.653 270.521 182.777 270.127 181.785C269.733 180.793 270.261 180.312 270.418 178.988L271.383 177.247C271.223 175.75 271.319 174.267 271.667 172.854C272.343 171.635 271.675 170.332 272.342 169.223C271.304 167.783 273.669 166.545 272.59 165.037L273.873 164.52L273.193 161.867L273.965 160.474L273.996 156.396L275.154 154.307C275.276 153.253 275.275 152.177 275.149 151.096C274.892 149.952 276.235 149.422 275.88 148.406C275.525 147.39 276.41 146.22 275.766 145.157L277.628 141.798C277.539 141.248 277.21 140.611 277.414 140.337C278.394 138.9 277.94 137.306 278.173 135.797C278.208 135.498 278.031 135.013 278.168 134.907C279.524 133.929 278.176 132.385 279.013 131.302C279.196 131.017 279.361 130.721 279.505 130.414L279.183 129.007L280.601 126.448L280.269 125.012L281.234 123.272L281.096 122.763C281.054 122.603 280.932 122.444 280.959 122.3C281.187 121.084 282.213 120.037 281.574 118.682L283.205 115.74L283.371 109.666L285.64 109.785L284.415 108.492L284.79 98.8245L287.067 94.7163C286.11 93.3668 286.689 91.7078 286.529 89.867L287.773 87.6214L287.489 86.0529L288.907 83.494L290.092 83.0588L290.097 80.3993L289.075 79.2635L290.054 77.2124C289.288 75.9914 290.337 75.0935 290.618 74.066L290.343 73.0945L291.828 72.1657C291.913 70.688 291.947 69.1595 292.13 67.6456C292.36 67.0177 292.684 66.4321 293.095 65.9048L291.954 61.8591C292.39 60.599 293.517 62.0201 294.266 61.6159C294.175 60.3596 293.946 59.1634 292.647 58.7161L294.239 55.8439L295.751 55.3396C295.783 54.9024 296.019 54.1457 295.868 54.0393C294.725 53.4054 294.617 52.3218 294.588 51.1908C295.139 49.6759 296.246 51.0859 296.995 50.6816L295.391 47.5174L296.465 46.3376L297.559 48.1957C299.118 48.0811 299.068 46.8931 299.55 45.9768L298.451 45.0262L297.963 43.2086L299.449 40.5278L299.116 39.0463L300.081 37.3055C300.987 36.8065 301.528 37.6754 302.548 38.0129L302.522 40.6153C304.56 40.6757 304.148 38.627 305.459 38.5801L305.89 39.9335L306.853 40.4673L307.938 39.4078C309.304 39.608 310.654 39.4293 311.816 38.8947C313.095 40.514 311.561 42.6672 312.798 44.1265C312.656 45.14 311.593 45.7338 312.048 46.8054C312.344 46.6966 312.593 46.7207 312.651 46.6163L315.063 42.2644L317.062 41.7339L318.747 42.6681L319.314 44.4842L318.253 46.3991L317.185 46.7173C317.229 46.9692 317.197 47.4063 317.327 47.4556C318.486 47.871 318.258 49.0411 318.609 49.8733C317.647 51.1832 318.909 52.3146 318.785 53.816L317.124 54.9204C317.407 55.8285 318.4 55.7874 318.966 56.3285L318.739 61.7547L316.335 62.4476C316.335 62.4476 316.34 62.7232 316.44 62.7789C317.845 63.5573 319.269 64.3469 320.674 65.1254C320.431 66.6519 320.975 68.2732 319.739 69.8408L320.693 72.1898L319.593 74.1743L318.14 74.666L317.796 76.091L319.42 75.7168C319.539 76.3062 319.909 77.0116 319.759 77.5658C319.292 79.3548 319.841 81.2518 319.267 83.1864L319.89 85.4208L319.637 86.3042C319.236 87.3109 318.117 88.147 318.845 89.4375C317.671 91.1763 318.726 93.6268 316.911 95.0557C317.379 96.8622 316.395 98.6837 317.53 99.9496C317.313 101.286 316.216 101.042 315.795 101.423L314.83 103.164L315.508 105.679L314.119 108.185L314.422 109.627C313.369 110.295 312.154 110.122 310.572 110.042L312.969 111.917C312.942 112.46 312.753 112.969 312.424 113.388C312.095 113.806 311.637 114.12 311.1 114.294L310.835 111.508C309.508 111.773 309.646 112.896 309.046 113.315L309.4 114.854L308.435 116.594C308.792 117.702 310.124 118.281 309.821 119.774L308.693 120.105C308.452 120.54 307.758 121.271 307.863 121.602C308.464 123.027 307.307 124.024 307.172 125.451L308.61 125.224L310.484 126.149L310.888 128.307L309.431 127.955L308.979 126.498L306.669 128.062C307.137 129.254 305.79 130.738 307.123 131.977L308.635 130.904L309.498 131.382C310.152 132.473 308.791 133.084 308.87 134.22L309.808 135.036C309.971 136.617 309.677 138.159 308.958 139.502L307.782 139.92L307.527 146.059L305.202 150.254L306.432 151.3L306.919 153.072C306.303 153.663 305.824 152.966 305.068 152.956L304.152 153.995C304.597 154.47 305.002 154.922 305.387 155.363C305.329 155.467 305.532 155.716 305.474 155.821L302.58 161.043C303.01 161.828 302.705 162.569 302.618 163.34C302.532 164.111 302.982 164.907 303.206 165.782L301.691 168.515L302.704 170.851L301.585 172.87L301.917 174.306L301.001 175.96L301.313 177.384L300.049 179.664L300.233 181.132L298.814 183.69L300.647 188.665L298.939 191.747L299.638 194.273L298.424 194.806L298.664 196.077L297.36 196.537L296.655 197.808C296.027 197.664 295.563 196.656 294.75 197.412C295.662 198.417 295.662 198.417 296.655 197.808C297.577 199.345 297.962 201.061 297.751 202.693C297.64 203.634 297.37 204.536 296.951 205.367L297.631 208.019L296.059 210.857L297.259 211.909L297.767 213.738L296.85 215.392L297.183 216.873L295.775 219.414L296.116 220.833L295.393 222.138L294.746 237.503L293.713 239.366C293.701 240.144 293.641 240.916 293.533 241.678C293.367 242.451 294.076 243.207 293.431 243.897C293.151 244.185 292.98 244.555 292.943 244.961C292.905 245.366 293.002 245.787 293.221 246.17L291.291 249.651L291.624 251.133L289.627 254.736L286.194 255.109C284.8 256.111 285.646 257.991 285.295 259.571L286.158 260.049L285.832 266.126L283.848 265.777C282.949 266.075 283.086 267.153 282.341 267.741L280.546 267.429C280.195 268.394 280.893 269.169 281.006 269.959C280.427 271.047 280.181 272.29 280.291 273.568C280.214 273.707 280.089 273.933 280.06 273.986C278.075 274.16 276.843 276.003 274.901 276.337L274.398 274.784L270.062 274.656L269.777 273.656L264.419 270.687C263.124 271.653 262.972 273.298 261.438 274.837L259.392 274.978C259.582 276.198 260.406 276.131 260.86 276.542L260.125 277.158L255.67 274.69C255.616 274.409 255.513 274.216 255.571 274.111L257.501 270.63L258.569 270.312C258.783 268.883 259.311 267.173 258.289 266.083C257.267 264.994 257.161 263.387 255.202 263.371L254.382 263.622L252.782 261.256C253.022 260.16 253.956 260.178 254.509 259.938L255.589 257.988C255.29 257.655 254.931 257.372 254.532 257.152C253.972 256.978 253.359 257.753 252.724 257.242L253.438 255.954C253.415 254.576 252.209 253.771 251.872 252.628C251.517 251.632 250.991 250.679 250.314 249.808C249.68 248.774 248.751 247.895 248.678 246.512C248.934 246.104 249.127 245.66 249.252 245.192C249.871 245.353 250.456 245.859 250.338 244.701C249.959 244.837 249.596 245.001 249.252 245.192C249.039 244.621 248.756 244.067 248.41 243.542C248.149 243.397 247.748 243.175 247.106 242.819C247.471 243.295 247.553 242.248 248.032 242.377C248.582 242.497 249.134 242.59 249.687 242.657L250.276 241.595C249.822 241.216 249.438 240.772 249.14 240.283C248.872 239.679 248.782 239.038 248.043 238.856L247.054 239.173C246.962 240.375 246.979 241.595 247.106 242.819C246.88 243.672 246.529 244.48 246.062 245.222L247.359 246.668L245.873 249.349C246.284 250.658 246.431 251.998 246.307 253.299C246.138 254.502 246.915 255.797 247.274 257.043L246.309 258.784C247.255 260.673 246.368 262.889 247.295 264.814C246.934 265.843 245.976 266.768 246.722 267.978L245.757 269.718C246.941 271.558 245.627 273.833 246.831 275.684L245.152 278.713L246.186 280.492L245.535 282.611L247.407 283.967C247.323 284.922 246.843 285.93 247.463 286.752C248.083 287.573 247.037 288.609 247.48 289.514L248.343 289.993L248.212 292.878C247.301 293.67 246.058 293.027 244.699 293.207L246.976 295.06L246.571 296.406L247.608 300.167C247.507 301.248 246.614 301.299 245.881 301.485C245.772 303.244 247.624 304.066 247.742 305.747C247.068 306.489 246.062 306.364 245.244 306.752C245.167 308.074 246.652 307.76 247.093 308.573C247.534 309.387 246.481 310.009 246.246 310.812L247.703 315.897L247.339 317.311C247.431 318.044 248.941 318.017 248.284 319.154C248.197 319.311 248.072 319.537 248.053 319.572C248.927 321.354 248.037 323.386 248.813 325.204L249.656 325.672L249.337 332.731C249.54 333.605 249.824 334.471 250.185 335.317C250.732 336.553 249.86 337.89 250.495 339.016C251.13 340.142 250.199 341.491 250.707 342.751C251.26 343.791 251.456 344.93 251.268 345.998C250.861 347.137 250.862 348.409 251.27 349.639C251.917 350.885 250.825 352.192 251.53 353.334L250.097 353.836C249.662 355.143 250.225 356.683 249.131 357.852C249.317 358.111 249.521 358.361 249.74 358.599C249.864 358.702 250.008 358.782 250.161 358.832C250.325 360.544 249.959 362.205 249.108 363.619L250.683 367.45L250.119 367.569C250.197 368.337 250.203 369.102 250.137 369.855C250.01 370.604 249.105 371.149 249.479 372.084L250.341 372.562L250.24 375.442C249.819 375.777 248.762 375.601 248.573 376.793L246.414 376.666L245.903 377.589C246.283 378.891 247.654 378.878 248.541 379.597L250.066 379.259C249.911 380.511 249.376 381.656 248.521 382.567L247.635 382.462C247.866 382.045 248.098 381.627 248.339 381.192C248.397 381.087 248.302 380.784 248.232 380.768C248.163 380.752 247.624 380.636 247.527 380.764C247.255 381.159 247.023 381.578 246.832 382.017C246.553 382 246.103 381.818 246.006 381.946C245.596 382.402 245.929 382.7 246.35 382.888C246.171 383.494 245.364 383.957 245.793 384.65C246.222 385.343 245.311 386.181 245.711 386.88C246.11 387.579 245.388 388.362 245.182 389.112C245.084 389.666 245.067 390.238 245.131 390.813L244.211 391.1L244.177 393.197L242.576 393.766L241.611 395.507L241.995 397.085L239.765 398.648L239.921 400.259C238.48 400.257 238.452 402.107 237.541 402.33C236.63 402.554 236.026 403.88 235.48 404.487C233.384 405.146 234.199 402.776 233.092 402.595C231.986 402.415 231.538 402.986 230.782 402.931L229.817 404.671C228.862 405.091 227.748 405.192 226.642 404.959C225.764 404.791 224.897 405.835 223.815 405.327C224.326 404.404 223.422 403.812 223.704 402.876L221.616 403.425L220.397 405.389L218.472 405.597C218.151 404.804 219.017 404.283 219.328 403.295L218.666 401.176L216.538 401.089C216.103 399.46 217.62 399.799 218.208 399.352L219.173 397.611L218.623 395.623L216.856 396.919L216.487 395.644C216.005 395.378 215.391 394.924 214.748 394.522L214.229 392.619L215.194 390.878C214.367 389.578 214.367 389.578 213.256 390.304C213.073 390.066 212.691 389.763 212.748 389.613C212.954 388.862 213.3 388.144 213.633 387.305L212.415 386.38L210.624 388.618C210.431 388.397 210.109 388.128 210.138 388.075C210.353 387.758 210.47 387.384 210.477 386.99C210.484 386.595 210.382 386.194 210.179 385.823C209.997 385.326 209.931 384.811 209.984 384.314C210.038 383.817 210.21 383.35 210.489 382.945L208.706 383.323L209.043 381.484C208.32 380.423 206.896 380.294 205.929 379.485L206.662 378.162L206.073 376.243L204.281 376.683L203.182 378.668L203.689 380.497L205.455 381.475L205.776 383.405C205.199 384.862 204.962 386.449 205.078 388.07L206.343 388.771C206.207 389.014 206.116 389.51 206.238 389.623C206.681 390.005 206.994 389.678 207.185 389.238L208.944 389.188L209.802 392.372C209.373 393.431 208.412 394.218 208.482 395.463C209.272 395.742 210.703 394.532 210.775 396.438L209.825 396.731C209.563 397.678 210.173 398.471 210.309 399.502L208.244 400.246L207.219 398.973L208.622 398.476L208.073 396.533L206.769 395.81L206.01 392.068L205.219 392.312L203.802 387.203C203.947 386.759 203.938 386.268 203.774 385.795C203.609 385.322 203.299 384.889 202.883 384.555C202.507 384.198 202.247 383.755 202.136 383.287C202.025 382.818 202.069 382.346 202.262 381.935C202.891 382.079 203.355 383.087 204.167 382.332C203.256 381.326 203.256 381.326 202.262 381.935C201.861 381.713 201.293 381.603 201.078 381.279C200.352 380.035 199.734 378.736 199.148 377.57L199.939 376.142C200.809 376.465 201.578 376.072 202.305 375.611C201.983 374.772 201.461 374.437 200.614 374.924L199.939 376.142L198.615 375.408L199.504 372.716L198.404 371.765C198.589 371.225 198.676 370.652 198.664 370.066C198.547 369.745 198.511 369.412 198.559 369.095C198.608 368.777 198.739 368.484 198.942 368.24C200.037 367.778 200.619 368.669 201.343 369.207L201.608 370.15L204.557 371.785C204.64 371.509 204.685 371.221 204.692 370.926C204.468 370.006 204.194 369.08 203.931 368.229L202.495 368.548L201.69 367.966C201.439 366.575 203.075 365.798 202.861 364.291L201.603 364.527C200.622 363.505 201.524 362.208 201.217 361.059L200.374 360.592L198.436 361.156L198.736 362.506L197.442 362.949C197.608 363.974 198.612 363.961 199.207 364.496L199.753 366.255L197.287 367.96C196.336 366.978 196.336 366.978 196.014 365.525L197.318 365.065C197.162 364.022 196.08 364.128 195.409 363.256L194.652 360.788L193.83 360.332C193.952 359.599 193.966 358.841 193.872 358.08C193.565 356.977 195.017 356.439 194.562 355.414C194.108 354.388 194.964 353.884 194.705 353.217C194.331 352.851 193.998 352.552 193.674 352.236L193.982 350.45L191.358 350.452L192.361 347.413L191.292 346.502C190.94 345.67 191.816 345.131 192.147 344.108L190.939 340.845L189.635 340.122C189.231 338.579 188.164 337.191 189.14 335.479L187.97 334.466C187.628 333.617 188.503 333.078 188.758 332.286L190.537 331.68C191.429 332.72 191.538 333.85 190.449 335.294C191.534 335.401 192.616 335.414 193.68 335.333C193.511 335.967 193.004 336.551 194.145 336.433C194.024 336.058 193.868 335.69 193.68 335.333L193.83 332.458C193.209 331.985 192.61 331.486 192.036 330.963C191.896 330.885 192.106 330.41 191.992 330.096C192.611 330.257 193.195 330.764 193.077 329.606C192.698 329.741 192.335 329.905 191.992 330.096C190.615 329.788 189.359 330.776 187.564 331.033L187.787 328.881L189.594 327.607C190.393 327.822 190.875 328.704 192.012 328.356C191.34 327.392 190.669 326.473 190.017 325.566C189.917 325.511 189.756 325.422 189.578 325.459C188.628 325.706 188.665 326.728 188.128 327.318C187.87 327.311 187.413 327.331 187.412 327.285C187.372 326.91 187.209 326.541 186.947 326.229C186.684 325.916 186.333 325.675 185.942 325.537C185.641 325.37 185.445 324.966 184.969 324.406L187.141 324.746C187.986 324.167 187.816 323.527 187.504 322.671L185.303 322.999C184.055 322.08 184.257 320.485 183.768 319.19L184.896 318.859L185.938 316.979L185.498 315.075L184.122 315.427C183.324 315.212 183.243 314.553 182.965 313.966C182.672 313.473 182.291 313.022 181.839 312.637L182.418 311.593C182.167 310.875 181.856 310.17 181.488 309.484C180.671 308.167 180.82 308.181 180.713 306.529C180.606 304.877 181.261 303.033 180.212 301.518C180.488 301.084 180.697 300.611 180.834 300.111C181.453 300.272 182.038 300.778 181.92 299.62C181.541 299.756 181.178 299.92 180.834 300.111C180.273 299.8 179.59 299.422 178.828 298.999L178.796 295.887L180.349 293.084L181.653 293.807L181.511 296.004L183.138 296.428L183.543 292.715L182.369 291.427L183.382 289.6C182.353 288.173 181.716 286.565 181.535 284.935C181.79 284.189 182.626 283.628 182.223 282.7L181.3 282.188C182.229 278.903 179.919 276.872 178.466 274.428L179.036 273.401C178.115 271.844 178.712 269.536 176.843 268.318C176.307 266.541 176.125 264.598 174.691 263.257L175.791 261.272C175.394 261.014 175.05 260.686 174.783 260.311C174.517 259.935 174.333 259.521 174.244 259.095C174.19 258.86 173.501 258.683 172.932 258.527C173.121 259.625 173.239 260.723 173.285 261.818C173.524 263.11 173.225 264.378 172.45 265.36C173.022 266.268 172.04 267.567 172.545 268.029C173.434 268.886 173.521 269.958 173.994 270.903C174.53 271.796 175.129 272.66 175.787 273.489C176.388 274.346 176.979 275.219 177.58 276.122L176.256 276.571L176.764 278.446L179.597 280.243L178.611 282.496L179.14 284.381L179.983 284.848C179.733 285.848 179.753 286.918 180.042 287.969C180.331 289.019 180.88 290.021 181.644 290.889L180.409 293.117L177.872 292.963C177.405 291.771 178.271 291.25 178.555 290.406L178.077 288.571C177.503 288.139 176.432 287.659 176.344 287.201C176.177 285.515 173.736 285.755 173.914 283.92C172.613 283.995 172.733 285.199 172.221 286.076L173.3 287.015C173.261 287.654 173.174 288.425 173.178 289.223C173.181 290.021 173.892 290.916 173.334 292.017C173.035 292.557 173.549 293.616 173.889 294.328C174.467 295.558 173.802 296.805 174.111 298.046C174.228 298.543 173.673 299.214 173.319 300.042C173.875 301.485 174.017 302.994 173.73 304.411C173.591 305.608 173.572 306.826 173.423 308.041C173.275 309.255 173.83 310.383 173.763 311.734C173.902 313.318 174.297 314.902 174.935 316.433C174.76 318.407 174.445 320.394 174.468 322.341C174.495 323.38 174.607 324.693 176.139 324.815L175.367 326.207C175.672 327.172 176.077 328.239 176.264 329.321C176.451 330.403 177.028 331.019 176.559 332.101C176.091 333.184 177.439 334.159 176.922 335.329C176.404 336.498 177.281 337.189 177.266 338.114C177.252 339.039 177.024 340.255 176.952 341.284C176.879 342.314 176.883 343.112 176.844 344.319C177.047 345.343 177.364 346.358 177.789 347.346C178.674 349.156 177.853 351.204 178.618 352.948C179.383 354.692 178.553 356.757 179.368 358.552C179.677 359.224 179.114 360.004 179.266 360.771C179.217 361.677 179.252 362.595 179.371 363.514C179.637 364.549 180.219 365.486 179.694 366.765C179.202 367.653 180.483 368.749 180.076 370.003C179.896 371.042 179.841 372.11 179.911 373.188L180.914 373.744C180.501 374.534 180.244 375.399 180.152 376.303C180.286 377.15 179.742 377.941 180.05 378.522C180.358 379.102 179.554 380.363 180.018 381.325C180.324 382.093 180.556 382.877 180.713 383.667C180.974 383.812 181.255 383.968 181.556 384.135L181.548 387.271C181.5 387.432 181.418 387.58 181.307 387.706L180.805 388.611L182.051 392.373L180.865 394.515L181.675 397.785L182.618 398.308C182.377 399.622 182.263 400.968 182.278 402.329C182.498 403.526 182.861 404.712 183.361 405.865L182.232 407.901C182.726 408.903 183.681 409.592 183.735 411.01L182.867 412.576C182.867 412.576 182.732 412.82 182.833 412.968C183.809 414.851 182.565 417.097 183.776 418.792L181.627 419.876L182.929 422.259L181.656 424.557C182.259 425.198 182.726 425.933 183.028 426.716C183.331 427.498 183.461 428.311 183.412 429.103L183.418 431.268L182.35 431.586L183.919 435.05L182.549 437.522L183.596 441.311C183.013 443.263 183.828 445.626 182.568 447.567L183.26 450.34L182.296 452.081L183.333 455.887C183.262 456.963 181.606 457.774 182.867 458.905L177.078 469.35L177.43 470.797L176.022 473.338L176.365 474.848L174.422 474.522L173.723 475.545C173.97 476.615 174.963 476.574 175.508 477.058C175.552 477.356 175.718 477.72 175.612 477.958C174.985 479.089 174.358 480.221 173.808 481.213L171.178 482.031C171.53 483.477 173.098 483.299 173.757 484.097L174.458 486.192L173.404 487.337L172.883 485.911C171.377 486.214 171.696 488.052 170.437 488.81L169.318 488.463L168.814 486.91L167.71 488.004L169.013 489.864L167.787 490.277C166.857 491.104 166.615 492.677 165.59 493.815L163.83 494.342C163.395 493.896 163.719 493.028 162.93 492.796C162.92 491.63 162.92 491.63 161.594 491.373C161.394 492.491 162.484 492.321 162.93 492.796L162.216 494.084L154.976 493.894C154.497 492.582 156.134 491.806 156.222 490.512C155.838 489.548 155.126 489.745 154.274 489.91C153.422 490.075 153.199 489.814 153.049 488.571C152.898 487.327 155.678 488.276 155.007 486.22L153.788 486.432C152.917 485.449 153.679 483.505 151.747 483.253L152.856 480.636L151.878 479.799L149.93 480.38C149.763 481.107 150.661 481.9 149.647 482.499C148.633 483.097 148.041 482.132 147.326 481.576C147.205 481.509 147.385 480.995 147.271 480.681C147.89 480.842 148.475 481.348 148.356 480.19C148.04 480.334 147.714 480.449 147.271 480.681C146.709 480.37 146.007 479.98 145.264 479.569L145.584 477.857C145.32 476.96 144.336 476.984 143.731 476.467L143.321 475.124L142.479 474.657L142.014 474.786C142.113 475.408 142.076 476.027 141.904 476.605C141.733 477.183 141.431 477.708 141.016 478.147L142.414 479.127L143.824 477.861C143.978 478.026 144.117 478.202 144.241 478.387C143.41 479.224 144.441 480.25 143.918 481.098L142.001 481.151L140.476 480.305C140.549 478.753 138.326 478.317 138.99 476.456L140.018 476.115L139.697 474.754L140.662 473.013L142.566 473.363L142.746 470.436C141.65 470.284 140.744 471.398 139.622 470.867L140.934 468.499L139.574 467.404L138.453 468.717C138.168 468.9 137.938 468.841 137.911 468.417C137.67 467.054 135.78 466.394 136.512 464.364L138.059 463.561L135.657 458.429L134.232 457.64C134.317 454.979 134.317 454.979 132.912 452.971L134.058 452.56L134.261 447.461L132.475 446.472L132.811 444.587L131.782 443.699L131.285 441.898L132.293 439.749L130.281 438.315L130.72 431.892L129.324 432.233C128.549 430.461 129.588 428.397 128.496 426.723L129.538 424.843C129.091 424.445 128.705 423.993 128.393 423.502C128.11 422.733 127.894 421.952 127.747 421.165L126.104 421.574L127.112 418.856L126.072 417.847L124.982 413.898C124.61 414.238 124.088 414.517 124.043 414.834C123.792 415.851 123.783 416.931 124.017 418.005C125.024 420.589 124 423.525 125.711 425.975L124.259 426.559C124.331 426.84 124.376 427.124 124.393 427.407L124.158 430.576C124.091 430.721 124.014 430.86 123.926 430.993L125.468 436.399C125.255 436.714 125.137 437.082 125.123 437.471C125.108 437.86 125.199 438.257 125.386 438.629C124.547 439.575 125.337 440.468 125.412 441.374C125.487 442.28 125.358 442.891 125.35 443.615L126.253 444.116L125.661 456.257C124.891 457.173 123.742 456.832 122.94 457.57L122.979 459.345L121.372 460.115L121.653 461.454L120.688 463.194L121.864 464.529C122.107 465.983 120.742 465.795 120.122 466.157C119.716 466.888 119.379 467.497 120.28 467.906L118.611 470.918L117.227 471.379L116.137 473.346L113.768 473.74C112.729 475.189 113.789 476.163 113.876 477.236C113.292 477.959 112.832 477.18 112.037 477.195C111.242 477.209 111.371 478.396 110.508 479.101L109.461 479.476L108.014 482.087L105.964 482.521L104.258 481.576L102.049 482.627L100.865 481.971L99.4206 482.353L99.6078 481.069C101.022 480.078 102.837 480.401 103.89 479.164C104.509 479.325 105.094 479.832 104.975 478.674C104.601 478.817 104.239 478.981 103.89 479.164C103.512 478.916 103.116 478.697 102.706 478.508C101.5 478.886 100.21 479.651 99.0453 479.529C97.7799 479.443 96.5405 479.6 95.4053 479.991C94.7725 479.004 94.1694 478.009 93.3931 476.76L92.1491 476.071L91.1467 474.377L91.6291 473.507L92.8932 474.207C93.2338 474.179 93.5338 474.029 93.7313 473.787C93.9289 473.545 94.0089 473.23 93.9548 472.907C93.8645 472.266 93.5863 471.679 94.1424 471.054C95.0159 470.954 95.9072 470.93 96.805 470.983C97.5545 471.169 98.2891 471.431 98.9948 471.764C99.9553 471.545 99.7473 470.406 100.437 470.015C100.271 469.65 100.205 469.249 99.994 469.109C98.6095 468.342 97.2251 467.575 95.981 466.885C95.5771 465.91 96.3056 465.495 95.8982 463.722C95.8087 463.126 96.1842 463.585 96.5885 463.991C96.9929 464.397 96.0181 465.541 97.4397 464.963L99.1281 461.917C97.8683 460.877 96.8515 461.292 95.8982 463.722C96.0533 464.673 95.6319 464.439 95.2306 464.217L93.8646 464.552C93.8156 464.245 93.8172 463.939 93.8692 463.644C94.2972 462.493 95.5738 461.563 94.784 460.101C95.1549 459.1 96.1038 458.193 95.3781 456.994C96.2051 455.928 95.4804 455.39 94.7928 454.69C94.3788 454.301 94.3456 453.509 94.1782 453.007L95.6639 450.326L95.363 448.976L96.657 448.487C96.2175 447.766 96.5386 446.761 95.6492 446.472C95.8078 445.855 96.3245 445.254 95.1738 445.39C95.2989 445.759 95.458 446.121 95.6492 446.472C95.2868 446.795 95.2798 447.565 94.488 447.763C94.205 447.413 94.0079 447.016 93.9129 446.603C93.8179 446.19 93.8276 445.774 93.9413 445.389C94.0898 444.657 94.0972 443.892 93.9631 443.126C94.582 443.287 95.1469 443.782 95.0482 442.635C94.6667 442.765 94.3035 442.929 93.9631 443.126C93.0474 442.459 93.6339 441.874 94.2004 441.278L96.0341 441.566C96.1812 440.259 94.9199 439.128 95.8827 437.864L94.909 434.321L92.7426 434.349L91.836 431.252C91.7681 430.759 92.4727 430.103 92.0406 429.227C91.6085 428.35 93.0784 427.686 92.7612 426.554C92.6592 425.795 92.68 425.039 92.8231 424.313L91.4177 424.672L90.4546 424.138L90.8251 422.523C90.2965 420.637 89.6735 418.449 89.06 416.243C89.7836 414.937 88.9984 413.751 88.7496 412.544C89.6704 411.734 88.5495 410.681 89.1218 409.837C89.2344 409.673 89.3312 409.498 89.4112 409.315L88.2255 407.953L88.6014 406.659L87.9143 404.208L89.4051 401.234L88.2047 400.182L88.4943 398.476C88.1709 398.161 87.8476 397.845 87.5146 397.546L87.8339 393.468C86.7279 390.717 86.4251 387.826 86.9584 385.11L86.0189 384.202L86.5333 375.75C85.2723 372.635 85.0985 369.343 86.0384 366.374L84.5631 366.716L85.0738 364.565L83.8083 361.406L85.0529 359.16L83.9333 355.217L85.7761 351.893L84.5108 350.531L84.9343 349.105L83.9619 348.02L84.4885 336.138L85.2604 334.746L83.8861 329.843L84.0946 326.863L84.8279 325.54L84.1146 322.71L85.3591 320.465L85.4674 317.43L84.2975 316.418L85.8894 313.545C85.0976 312.56 84.182 311.894 84.5575 309.986L86.1398 307.131C86.0221 306.633 85.6718 305.893 85.8285 305.752C86.9453 304.778 85.1935 303.443 86.3616 302.566L85.3029 298.703L86.547 298.209L86.2461 296.859C86.4936 296.462 86.6801 296.03 86.8011 295.574C87.42 295.735 88.0532 296.154 87.8862 295.083C87.5093 295.221 87.1467 295.385 86.8011 295.574C86.723 295.326 86.5826 295.092 86.3921 294.892C86.7719 293.828 87.0609 292.692 88.5006 292.602C88.4567 292.35 88.4795 291.93 88.339 291.853C87.1752 291.208 87.0885 290.181 87.2973 289C87.3484 288.328 87.3569 287.649 87.3229 286.966L88.6351 284.599L89.5546 284.312C89.8082 284.139 90.035 283.936 90.2303 283.708L93.5588 277.702C93.8397 277.858 94.1207 278.014 94.4016 278.169L93.8034 279.249L94.0425 281.657C94.5433 281.424 94.9627 281.077 95.2664 280.644C95.5701 280.211 95.7495 279.705 95.7899 279.166C95.3284 278.911 94.8268 278.633 94.3534 278.256C95.0474 277.236 95.593 276.124 95.9777 274.947C95.8172 274.858 95.7636 274.624 95.7138 274.619L92.4002 275.581C92.8338 276.007 93.2306 276.463 93.5859 276.944C93.7182 277.131 93.5357 277.507 93.5009 277.807C92.3892 277.304 91.4434 278.396 90.2569 278.17C90.838 276.585 91.5465 275.053 92.3768 273.588L90.7514 273.871C90.185 273.284 90.6944 272.838 91.1227 272.302L92.8665 272.563L93.8236 271.546C94.7624 271.224 95.1679 272.291 95.913 272.272L96.4362 273.836L97.4824 272.8L97.1197 271.325L98.4537 270.858C98.9905 270.268 98.9536 269.247 99.9831 268.998L100.462 270.31L105.619 273.168L106.921 272.002C108.113 271.934 108.885 272.908 109.905 273.291L111.102 272.931L112.564 273.605C112.964 274.591 113.739 275.444 114.731 275.989C114.851 276.056 115.032 276.156 115.025 276.311C115.17 278.462 117.417 279.708 117.185 281.877L119.011 282.889L119.712 285.553L123.103 287.432L123.823 290.107L127.174 291.965L127.625 293.375L129.632 294.487C129.803 295.219 130.047 296.151 130.252 297.106C130.836 297.567 131.781 297.613 132.056 298.584C131.367 298.976 130.391 298.89 130.24 299.967C130.638 300.574 131.046 301.21 131.484 301.84C131.886 302.285 132.247 302.759 132.562 303.256C132.892 303.985 132.869 304.973 133.345 305.533C133.833 305.937 134.186 306.46 134.354 307.026C134.509 307.816 134.732 308.602 135.02 309.374C135.526 310.542 135.263 312.012 136.352 312.934C136.225 313.319 136.203 313.737 136.286 314.154C136.369 314.572 136.555 314.977 136.829 315.337C137.678 314.989 138.017 314.471 137.535 313.59L136.231 312.867C136.486 312.03 137.397 312.467 138.134 311.373L138.742 310.277C138.575 309.206 137.514 309.323 136.843 308.45C137.203 307.583 137.386 306.644 137.383 305.678C137.205 304.532 138.348 303.937 138.184 303.05C138.02 302.163 136.886 302.126 136.229 301.466C136.412 301.135 136.34 300.367 136.597 300.282C137.426 299.848 138.191 299.326 138.877 298.724C138.954 298.584 139.446 298.88 139.516 298.896L141.017 304.279L140.878 304.862L142.206 306.394L139.898 306.298C139.91 307.602 141.376 307.322 141.788 308.188C142.201 309.053 141.156 309.612 140.97 310.374L141.288 311.551L140.301 313.712L142.355 315.305C142.455 316.544 141.602 316.663 140.722 316.926L140.944 318.278L139.525 320.837L141.197 325.723C141.34 325.813 141.487 325.895 141.639 325.967C141.851 327.336 141.091 328.849 142.374 330.084L140.892 330.628C141.969 331.971 142.609 333.542 142.727 335.126L141.292 335.537L142.423 337.756L141.728 339.01C143.165 341.149 143.165 341.149 143.009 343.656L143.972 344.19L143.816 344.991L145.362 350.626C145.763 350.849 146.321 350.93 146.858 349.772C146.72 348.649 146.121 347.315 145.827 345.764L146.792 344.023L145.712 341.855C146.079 341.297 146.362 340.69 146.556 340.047C147.175 340.208 147.76 340.715 147.641 339.557C147.267 339.7 146.905 339.864 146.556 340.047C145.834 339.647 146.125 338.648 145.766 337.971C146.645 337.048 145.692 335.928 146.171 334.828C146.649 333.728 145.371 332.815 145.66 331.632C146.279 331.793 146.864 332.299 146.745 331.141C146.379 331.28 146.053 331.395 145.61 331.627ZM149.408 376.83C150.177 377.005 150.79 377.413 150.643 376.354C150.29 376.458 149.972 376.63 149.707 376.859C149.058 376.704 148.614 375.707 147.782 376.452C148.633 377.424 148.633 377.424 149.328 376.785L149.408 376.83ZM203.778 361.454C203.926 360.808 204.942 360.348 204.241 359.436C203.243 360.384 203.243 360.384 203.851 361.085C203.685 361.858 203.249 362.504 204.319 362.323C204.16 362.024 203.951 361.747 203.699 361.502L203.778 361.454ZM196.976 357.684L198.655 354.656C198.346 354.029 198.54 353.159 197.697 352.646L196.008 355.692C196.523 356.182 196.064 357.247 197.625 357.839C196.72 358.002 195.925 358.427 195.349 359.058L197.1 359.779C197.222 359.456 197.263 359.104 197.221 358.747C197.179 358.389 197.055 358.036 196.857 357.71L196.976 357.684ZM184.815 303.387C184.332 305.395 186.058 306.351 186.758 307.832C186.851 307.997 187.317 307.959 187.796 308.043C187.693 307.638 187.63 307.229 187.606 306.822C187.667 306.239 187.767 305.663 187.905 305.1L184.775 303.365C184.766 302.199 184.766 302.199 183.43 301.959C183.181 303.118 184.282 302.978 184.697 303.412L184.815 303.387ZM246.823 355.958L247.576 354.601L247.244 353.211L248.209 351.47C247.644 349.177 247.594 349.172 246.154 349.262C246.925 351.373 245.138 353.841 246.935 355.52C246.739 356.299 246.313 356.927 247.373 356.764C247.247 356.451 247.006 356.179 246.695 356.001L246.823 355.958ZM301.175 47.4462L299.94 49.6743L300.271 51.064L299.499 52.4567L299.382 55.5087L299.73 55.5425C299.798 55.4207 300.056 55.4274 300.124 55.3056L301.513 52.799C300.717 51.5384 301.715 50.6356 302.036 49.6303C301.677 48.9534 301.929 47.9781 301.107 47.5222C301.255 46.8762 302.251 46.4042 301.521 45.5904C300.443 46.4947 300.443 46.4947 301.046 47.4888L301.175 47.4462ZM144.482 465.505C144.173 465.617 143.891 465.775 143.645 465.974C143.507 466.245 143.409 466.534 143.351 466.836C144.774 468.671 144.774 468.671 144.484 470.945L145.638 472.222L145.117 473.162C145.309 474.56 146.017 475.91 147.119 476.979C147.54 476.743 147.877 476.407 148.103 476C148.328 475.593 148.435 475.128 148.412 474.647L146.631 473.364L146.92 469.246C145.113 468.722 145.952 466.639 144.354 465.548L144.482 465.505ZM156.479 220.305L155.938 218.298L153.977 218.713L152.997 220.719L153.629 222.844C154.751 222.806 155.332 224.266 156.756 223.826L157.204 222.687L155.948 221.262L156.479 220.305ZM195.643 343.384C197.484 342.288 195.541 340.824 196.769 339.98C196.635 339.683 196.48 339.393 196.307 339.11L192.996 339.027L193.426 340.995L195.132 341.94L195.643 343.384ZM170.272 486.079C170.487 485.311 171.324 484.796 171.099 483.83L169.47 483.929C168.471 483.602 167.705 482.381 166.441 482.864L167.691 484.535L167.218 485.957L170.272 486.079ZM269.248 265.24L267.904 264.495C267.537 265.156 266.443 264.527 266.101 265.476L267.307 266.849L266.342 268.59C266.622 269.268 266.477 270.098 267.161 270.568C268.642 269.978 267.59 268.895 267.811 267.834L269.248 265.24ZM310.221 40.9687L308.552 40.4305C307.634 41.3864 307.089 42.6168 306.991 43.9569L308.33 44.3805L310.221 40.9687ZM198.662 342.622L198.659 345.42L200.281 345.522L200.821 344.547L199.57 342.83C199.917 342.203 199.917 342.203 199.583 341.244C199.107 341.577 198.783 342.062 198.662 342.622ZM311.068 47.6733C310.742 49.101 310.798 50.6218 311.232 52.1102C311.417 52.0735 311.596 52.0203 311.766 51.9511C311.824 51.8467 312.051 51.7679 312.059 51.6586L312.447 48.1191L311.068 47.6733ZM91.1125 302.56C89.5419 303.737 90.5825 304.746 90.7094 305.795L91.9786 306.203L92.0957 303.105L91.1125 302.56ZM156.818 214.44C156.253 214.611 155.796 214.97 155.528 215.454C155.26 215.939 155.197 216.516 155.351 217.086L156.56 217.46C157.071 216.537 158.027 215.997 157.6 214.874L156.818 214.44ZM261.288 256.414C260.168 256.744 259.076 257.134 258.018 257.582C258.241 257.985 258.588 258.328 259.009 258.562C259.431 258.795 259.905 258.908 260.365 258.883C260.931 258.241 261.636 257.585 261.318 256.407L261.288 256.414ZM297.364 72.1163C297.104 71.449 297.2 70.6603 296.595 70.1429C296.16 70.4081 295.817 70.7777 295.595 71.2188C295.374 71.6599 295.281 72.1586 295.325 72.6704L296.785 73.1607L297.364 72.1163ZM158.216 320.524L159.422 319.531L158.249 317.152C158.249 317.152 157.871 316.51 157.327 317.255L158.216 320.524ZM186.852 310.455L186.891 312.752L188.385 312.943L188.335 310.003L186.852 310.455ZM229.881 396.606C229.202 397.595 228.916 398.347 230.466 398.91L232.189 397.931C231.927 397.08 230.912 397.018 229.801 396.561L229.881 396.606ZM298.517 62.6525C296.545 65.3594 296.545 65.3593 296.904 67.2195C297.491 65.4512 298.601 64.6785 298.517 62.6525ZM146.451 354.575L147.095 352.657L145.326 352.063L144.825 353.628L146.451 354.575ZM187.44 314.08L186.796 315.999L188.575 316.575L189.095 315.02L187.44 314.08ZM190.359 323.435L191.003 321.516L189.254 320.934L188.733 322.488L190.359 323.435ZM193.545 323.13L192.901 325.048L194.65 325.631L195.171 324.076L193.545 323.13ZM203.06 354.184L201.191 353.581L200.595 355.367L202.124 355.873L203.06 354.184ZM296.257 188.872L296.212 190.895L298.42 190.412C298.003 189.225 297.16 188.758 296.309 188.969L296.257 188.872ZM258.246 273.023L260.095 273.615L260.691 271.829L259.182 271.334L258.246 273.023ZM149.302 371.674C148.966 370.577 148.465 370.345 147.563 370.505L147.068 371.824L149.302 371.674ZM296.033 77.5454C295.486 77.7314 295.044 78.0919 294.78 78.5687C294.515 79.0455 294.444 79.6108 294.576 80.1739C295.138 79.9992 295.592 79.6392 295.86 79.156C296.128 78.6728 296.193 78.0969 296.043 77.528L296.033 77.5454ZM147.829 358.479C147.406 357.585 147.552 356.755 146.877 356.268C146.545 356.397 146.29 356.642 146.159 356.955C146.029 357.268 146.033 357.629 146.17 357.969L147.829 358.479ZM193.471 318.151C193.118 317.227 193.214 316.438 192.609 315.921C192.266 316.039 191.997 316.276 191.854 316.587C191.711 316.898 191.703 317.261 191.832 317.607L193.471 318.151ZM145.596 273.822C145.398 274.122 145.224 274.436 145.075 274.763L144.961 275.632C145.215 275.663 145.469 275.667 145.716 275.641C146.162 275.547 146.576 275.367 147.278 275.142L145.596 273.822ZM146.641 362.94C147.066 362.874 147.425 362.652 147.642 362.322C147.86 361.991 147.918 361.579 147.804 361.173L146.784 360.79L146.641 362.94ZM101.272 448.11C101.047 447.097 100.485 446.786 99.5268 447.142C99.7961 447.792 99.6903 448.598 100.416 449.182L101.272 448.11ZM173.978 275.9C173.556 275.971 173.199 276.196 172.986 276.528C172.772 276.861 172.718 277.273 172.835 277.679L173.856 278.062L173.978 275.9ZM246.436 344.731C246.133 345.609 246.621 346.244 246.741 346.925C246.948 346.9 247.14 346.833 247.305 346.728C247.469 346.622 247.603 346.482 247.695 346.315C247.787 346.149 247.836 345.962 247.838 345.766C247.84 345.571 247.795 345.372 247.706 345.184L246.436 344.731ZM256.554 242.003C256.769 242.941 257.331 243.252 258.26 242.948C258.064 241.929 257.502 241.618 256.593 241.933L256.554 242.003ZM243.432 289.341C243.483 288.823 244.892 288.694 243.922 287.747C243.746 287.774 243.586 287.842 243.453 287.943C243.321 288.044 243.222 288.177 243.163 288.33C243.104 288.483 243.087 288.651 243.115 288.82C243.143 288.99 243.214 289.155 243.322 289.303L243.432 289.341ZM259.092 259.998L258.793 260.537C259.129 260.807 259.478 261.061 259.839 261.299C259.94 261.355 260.256 261.257 260.274 261.177C260.293 261.096 260.393 260.537 260.273 260.47C259.871 260.24 259.448 260.051 259.011 259.907L259.092 259.998ZM212.114 382.617C211.879 381.668 211.317 381.357 210.408 381.672C210.441 382.464 211.083 382.82 212.013 382.516L212.114 382.617ZM219.849 400.557C220.303 401.537 220.7 402.098 221.582 401.358C221.268 400.457 220.788 400.236 219.777 400.403L219.849 400.557ZM294.473 84.6674C294.677 84.6395 294.867 84.5701 295.029 84.4639C295.192 84.3577 295.323 84.2171 295.415 84.0519C295.507 83.8866 295.556 83.7006 295.56 83.5065C295.564 83.3122 295.522 83.1144 295.437 82.9266C295.24 82.9479 295.054 83.0079 294.891 83.1027C294.729 83.1976 294.594 83.3253 294.495 83.4778C294.395 83.6302 294.334 83.8041 294.315 83.9884C294.295 84.1727 294.318 84.3634 294.381 84.5484L294.473 84.6674ZM195.035 345.618C194.984 346.136 193.574 346.265 194.524 347.201C195.304 346.882 195.486 346.46 195.035 345.618ZM194.826 349.211C195.27 350.209 195.677 350.753 196.559 350.013C196.318 349.265 195.837 349.044 194.786 349.189L194.826 349.211ZM154.325 225.278L154.8 225.131C154.69 224.926 154.549 224.733 154.383 224.559C154.383 224.559 154.106 224.633 153.957 224.664L154.325 225.278ZM157.868 221.348L157.875 220.624C157.727 220.655 157.479 220.677 157.44 220.747C157.403 220.986 157.39 221.23 157.403 221.477L157.868 221.348ZM164.071 213.704L164.546 213.558C164.439 213.347 164.302 213.149 164.138 212.968C164.138 212.968 163.861 213.042 163.703 213.091L164.071 213.704ZM146.845 252.829L147.32 252.683C147.19 252.479 147.044 252.284 146.883 252.099C146.883 252.099 146.605 252.173 146.457 252.205L146.845 252.829ZM144.981 291.685L144.506 291.832C144.617 292.037 144.757 292.23 144.923 292.404C144.923 292.404 145.221 292.341 145.349 292.299L144.981 291.685ZM146.261 290.37L146.134 289.889C145.914 290.012 145.716 290.162 145.545 290.337C145.545 290.337 145.599 290.617 145.651 290.76L146.261 290.37ZM137.642 323.525L138.117 323.378C138.007 323.173 137.866 322.98 137.7 322.806C137.7 322.806 137.423 322.88 137.274 322.911L137.642 323.525ZM302.427 43.2477L302.554 43.7278C302.767 43.6041 302.967 43.4641 303.153 43.3091C303.153 43.3091 303.079 43.0175 303.036 42.8575L302.427 43.2477ZM174.117 281.802L173.391 281.787C173.333 281.891 173.448 282.205 173.518 282.221C173.764 282.263 174.011 282.277 174.254 282.265L174.117 281.802ZM94.1471 429.78C94.0989 429.867 93.7504 429.833 93.7319 429.914C93.685 430.154 93.6625 430.401 93.6647 430.65C93.7226 430.546 94.0711 430.58 94.0896 430.499C94.1254 430.281 94.135 430.058 94.1182 429.832L94.1471 429.78ZM304.239 50.0094L304.367 50.4895C304.58 50.37 304.775 50.2258 304.946 50.0597C304.946 50.0597 304.892 49.7792 304.849 49.6192L304.239 50.0094ZM99.3193 431.19L99.3271 430.466C99.2692 430.571 98.9208 430.537 98.9022 430.618C98.8522 430.851 98.8329 431.092 98.8447 431.337L99.3193 431.19ZM98.6795 433.339L99.4053 433.354C99.3629 433.194 99.3486 432.936 99.2787 432.92C99.0325 432.878 98.7854 432.863 98.5425 432.876L98.6795 433.339ZM99.6454 437.606L99.1708 437.752C99.2923 437.96 99.4391 438.156 99.6079 438.336C99.6079 438.336 99.885 438.262 100.034 438.23L99.6454 437.606ZM169.1 326.488C168.942 326.537 168.704 326.541 168.675 326.64C168.625 326.873 168.606 327.114 168.618 327.359C168.776 327.31 169.015 327.305 169.033 327.225C169.113 326.995 169.159 326.753 169.17 326.504L169.1 326.488ZM150.527 361.703L150.062 361.832C150.175 362.047 150.319 362.25 150.489 362.434C150.489 362.434 150.766 362.36 150.905 362.3L150.527 361.703ZM99.9526 464.262C99.995 464.423 100.009 464.681 100.079 464.697C100.325 464.738 100.572 464.753 100.815 464.741C100.763 464.598 100.749 464.34 100.679 464.324C100.468 464.276 100.254 464.249 100.042 464.244L99.9526 464.262ZM96.7488 475.343L97.2234 475.197C97.1048 474.995 96.965 474.803 96.8063 474.624C96.8063 474.624 96.5293 474.698 96.3807 474.73L96.7488 475.343ZM188.338 320.267L187.623 320.28C187.575 320.367 187.669 320.669 187.759 320.697C187.995 320.745 188.233 320.762 188.466 320.747L188.338 320.267ZM189.921 317.412L190.386 317.283C190.279 317.072 190.142 316.874 189.978 316.693C189.978 316.693 189.681 316.756 189.543 316.816L189.921 317.412ZM191.386 324.232L190.901 324.35C191.02 324.562 191.163 324.764 191.329 324.951C191.329 324.951 191.606 324.877 191.764 324.828L191.386 324.232ZM311.775 108.297C311.818 108.457 311.812 108.704 311.902 108.731C312.142 108.774 312.383 108.785 312.618 108.764C312.566 108.621 312.572 108.374 312.482 108.347C312.238 108.308 311.993 108.302 311.756 108.332L311.775 108.297ZM269.063 190.661L268.357 190.657C268.299 190.761 268.394 191.064 268.464 191.08C268.71 191.121 268.957 191.136 269.2 191.124L269.063 190.661ZM194.546 327.097L193.83 327.111C193.772 327.215 193.876 327.5 193.957 327.545C194.197 327.588 194.438 327.599 194.673 327.578L194.546 327.097ZM304.721 139.339L304.713 140.062C304.771 139.958 305.12 139.992 305.138 139.911C305.188 139.678 305.208 139.436 305.196 139.192L304.721 139.339ZM304.548 142.064L305.284 142.062C305.232 141.92 305.217 141.661 305.147 141.645C304.905 141.598 304.661 141.577 304.421 141.584L304.548 142.064ZM301.992 150.273L301.984 150.997C302.142 150.948 302.381 150.943 302.399 150.863C302.457 150.625 302.48 150.377 302.467 150.126L301.992 150.273ZM242.062 262.141C242.014 262.228 242.108 262.531 242.198 262.558C242.434 262.607 242.672 262.624 242.904 262.608C242.862 262.448 242.868 262.201 242.778 262.174C242.53 262.14 242.282 262.141 242.042 262.176L242.062 262.141ZM173.821 391.748L173.813 392.472C173.913 392.528 174.21 392.419 174.228 392.338C174.283 392.106 174.302 391.864 174.286 391.619L173.821 391.748ZM300.885 162.493L301.022 162.955C301.238 162.839 301.433 162.695 301.601 162.526C301.601 162.526 301.546 162.245 301.504 162.085L300.885 162.493ZM300.298 168.994L300.305 168.27C300.248 168.374 299.909 168.323 299.87 168.393C299.829 168.637 299.814 168.888 299.823 169.14L300.298 168.994ZM259.305 248.966L259.168 248.503C258.952 248.619 258.757 248.764 258.589 248.933C258.589 248.933 258.643 249.213 258.685 249.373L259.305 248.966ZM141.88 464.427L141.144 464.429C141.187 464.589 141.201 464.847 141.271 464.863C141.517 464.905 141.764 464.92 142.007 464.907L141.88 464.427ZM295.968 186.413L295.242 186.398C295.284 186.558 295.298 186.816 295.368 186.832C295.614 186.874 295.862 186.888 296.104 186.876L295.968 186.413ZM261.895 263.599C261.895 263.599 261.499 263.653 261.48 263.733C261.433 263.974 261.411 264.22 261.413 264.47C261.571 264.421 261.819 264.399 261.858 264.33C261.875 264.063 261.867 263.792 261.834 263.52L261.895 263.599ZM206.633 374.05L206.641 373.326C206.492 373.358 206.244 373.379 206.225 373.46C206.171 373.692 206.152 373.934 206.168 374.179L206.633 374.05ZM244.62 305.086L243.904 305.099C243.956 305.242 243.95 305.489 244.04 305.516C244.276 305.565 244.514 305.582 244.747 305.566L244.62 305.086ZM208.967 379.872L208.974 379.148C208.874 379.092 208.578 379.201 208.559 379.282C208.505 379.514 208.486 379.756 208.502 380.001L208.967 379.872ZM271.3 271.429L271.173 270.949C270.953 271.075 270.75 271.221 270.564 271.385C270.564 271.385 270.638 271.676 270.69 271.819L271.3 271.429ZM287.412 251.824L286.706 251.82C286.748 251.98 286.762 252.238 286.832 252.254C287.078 252.296 287.326 252.31 287.569 252.298L287.412 251.824ZM223.2 399.479C223.052 399.511 222.803 399.532 222.785 399.613C222.728 399.851 222.705 400.099 222.718 400.35C222.876 400.301 223.124 400.279 223.143 400.198C223.181 399.956 223.187 399.707 223.16 399.457L223.2 399.479ZM247.177 373.539L247.169 374.263C247.27 374.319 247.566 374.21 247.585 374.129C247.642 373.891 247.665 373.644 247.652 373.393L247.177 373.539ZM293.041 214.645L293.168 215.126C293.375 214.998 293.569 214.854 293.748 214.696C293.748 214.696 293.673 214.404 293.651 214.255L293.041 214.645Z" fill="#FF5220" fill-opacity="0.1"/>
</g>
<defs>
<clipPath id="clip0_907_1487">
<rect width="498.811" height="192.565" fill="white" transform="translate(0 436.281) rotate(-61.0028)"/>
</clipPath>
</defs>
</svg>
