<svg width="174" height="289" viewBox="0 0 174 289" fill="none" xmlns="http://www.w3.org/2000/svg">
<g clip-path="url(#clip0_907_1392)">
<path d="M73.2654 102.125C73.1267 102.41 73.1732 102.822 72.6044 102.849C72.4383 102.683 72.2197 102.54 72.1463 102.395C71.73 101.39 71.2708 100.389 70.8165 99.3773C70.4228 98.223 70.1449 97.0841 69.9849 95.9703L68.8441 94.4669L68.0766 91.1396C68.0862 91.0561 68.122 90.9825 68.1818 90.9234L68.5039 90.5576C68.9891 90.66 69.4695 90.7723 69.9713 90.8828C69.614 90.0526 69.8991 89.2554 68.7949 88.3533L67.9013 88.8786C67.747 88.7306 67.5118 88.5796 67.455 88.4425C67.2453 87.817 66.9823 87.1855 66.6673 86.5519C66.3282 86.0024 66.1334 85.452 66.0955 84.9365C66.0765 84.3462 65.8133 83.6999 65.3363 83.0719C64.7265 82.3376 65.2323 81.8058 64.639 81.1645C64.0457 80.5233 64.7405 80.5333 64.7746 80.2095C65.0956 80.4153 65.4462 80.5859 65.8061 80.7116C66.0677 80.766 66.2894 80.6065 66.4181 80.5112C66.9341 80.6772 67.4995 81.0375 67.1942 80.3541C66.9181 80.3845 66.6583 80.4371 66.4181 80.5112C65.9437 80.2607 65.4605 80.0255 64.9707 79.8066C65.2427 79.5015 64.6702 79.1134 64.5141 78.7578C64.3579 78.4022 63.802 78.0223 64.0788 77.7073C64.6162 77.8716 65.1715 78.5065 65.6839 78.1725C64.7529 77.4641 64.7528 77.4641 64.0788 77.7073C63.5558 77.5135 63.4541 77.2573 63.4691 76.9729L63.5203 76.4873L62.5269 75.0193L63.2061 73.6238C62.8412 73.1609 62.5125 72.6922 62.2221 72.2211C62.1182 71.87 62.0521 71.5249 62.0247 71.1891C61.4914 69.4101 61.2458 67.6739 60.4959 65.8747C60.2476 65.2433 61.1356 65.0678 60.5781 64.3953C60.0206 63.7228 60.5906 63.1859 59.8214 62.4833C59.0522 61.7807 59.6455 61.4496 59.2709 60.8661C58.8964 60.2827 59.1431 59.6492 58.4928 58.9559C57.8425 58.2626 58.4554 57.7222 57.8074 57.0664C58.5218 55.8948 57.2002 54.3399 57.1953 52.4899L57.8649 51.1142L57.3103 50.2243L58.8553 47.0503L59.893 46.9476L60.3235 46.0632C60.5365 46.0245 60.7993 46.0602 61.0566 46.1627C61.3138 46.2653 61.5453 46.4266 61.7022 46.6128C66.3215 51.1585 66.6703 51.5835 68.3176 54.16C68.5661 54.269 68.8106 54.388 69.0496 54.5163C69.1661 54.573 69.1848 54.7037 69.3152 54.9008L68.9182 55.7165C68.8847 55.7852 68.9724 55.9009 68.9936 55.9842C69.3998 56.2912 69.8012 56.6081 70.1955 56.8973L69.9706 57.3592L72.125 60.8388C71.7586 61.803 73.6713 62.9042 73.4808 63.9297C73.4625 64.0096 73.4271 64.0823 73.3756 64.1459L74.5609 65.9384L76.1185 68.2766C75.6695 68.9454 76.6716 69.7614 77.1029 70.4818C77.5342 71.2023 78.2366 71.9575 78.0825 72.6968C77.9677 72.9327 78.6185 73.4561 78.8031 73.8377C79.3241 74.8813 80.5541 75.9054 80.5705 76.9709C80.5869 78.0363 82.4046 79.0792 81.9384 79.9948L85.298 84.8877L85.0445 85.4085C85.9212 86.6495 86.3814 87.9118 86.3752 89.0585L88.6257 92.1716L88.4439 92.545C89.0548 93.7418 90.3416 94.903 90.5317 95.9922C90.7218 97.0814 91.8376 98.0865 92.3586 99.1301C92.413 99.2296 92.5769 99.358 92.5482 99.4169C92.223 100.085 93.3796 100.964 93.4233 101.593C93.5063 102.125 93.7301 102.684 94.0831 103.239C94.6633 104.372 95.936 105.478 95.9806 106.655C96.0164 107.596 97.8148 108.763 97.3818 109.695L100.118 113.713C99.5964 114.784 101.633 115.969 101.468 117.068C101.328 117.948 103.343 119.136 102.815 120.094C103.669 121.227 104.359 122.379 104.869 123.525C105.398 124.674 106.093 125.828 106.94 126.964C107.571 128.037 108.368 129.105 109.079 130.181L111.478 133.707L111.21 134.257C111.548 134.494 112.163 134.794 112.315 135.074C112.973 136.343 114.71 137.383 115.261 138.66L117.036 137.931L117.6 136.772L118.643 136.659L120.173 133.515L119.668 132.819L120.988 130.107L120.443 129.282L121.051 128.034L120.549 127.037L121.366 125.356L120.845 124.397L121.458 123.14L120.922 122.21L121.534 120.953L120.98 120.063L121.405 119.188L120.851 118.298L121.277 117.424L120.772 116.558C120.968 116.155 121.421 115.817 121.322 115.428C121.058 114.7 121.035 114.008 121.253 113.413C120.447 112.28 120.992 111.329 120.109 110.183L120.549 109.279L120.035 108.518L120.414 107.486C119.727 106.824 120.014 106.405 120.339 105.821C119.903 105.312 119.562 104.784 119.329 104.26C119.211 103.826 119.381 103.435 118.888 102.927L119.533 101.6C118.818 100.365 119.016 99.282 118.345 98.0805C119.084 97.4922 117.879 96.2489 118.701 95.5311L117.301 94.1809L117.899 92.9525C116.906 92.0319 116.996 91.1277 116.597 90.216C116.436 89.8702 116.67 89.5587 116.759 89.0794C115.869 87.5821 115.34 86.0865 115.199 84.6738C115.051 83.7915 114.706 82.8729 114.178 81.9524C113.893 81.3375 113.711 80.7302 113.637 80.1456L114.15 78.7542L112.955 77.9538C113.006 77.7366 113.034 77.5104 113.038 77.2768C113.017 77.1086 112.756 76.8842 112.701 76.6998C112.647 76.3966 112.62 76.0992 112.62 75.8095L111.722 74.4848C111.507 73.8696 112.509 73.5432 111.588 72.7302C111.567 71.7084 111.19 70.6 110.487 69.496C110.198 68.9518 110.041 68.4134 110.025 67.9095C109.908 66.9654 109.606 65.9796 109.365 65.0361C109.298 64.0556 108.841 62.9919 108.043 61.9614C108.156 61.1531 107.888 60.2299 107.274 59.314C106.662 58.372 106.85 57.4789 105.936 56.5237C106.715 56.1492 104.974 55.1192 105.769 54.7528L104.183 52.3885C104.822 51.7516 104.163 50.738 104.025 49.8806C104.014 49.0465 103.751 48.1488 103.251 47.2431C102.556 46.2607 102.742 45.415 102.021 44.4441C101.3 43.4733 101.647 42.6334 100.633 41.7145L101.303 40.3387L98.5289 36.2293L99.0072 35.2467L97.8387 34.3497L97.3353 32.0019L96.5035 31.597C96.4531 30.7644 96.1861 29.8811 95.7152 28.9889C95.0131 28.0638 95.4908 27.336 94.653 26.4785C94.475 26.2946 94.2211 26.013 94.2737 25.9049C94.642 25.1482 93.2214 24.1772 93.3945 23.4835C93.5675 22.7898 92.4745 22.1606 92.4722 21.1506L92.5296 21.0327C91.963 20.2609 91.4485 19.4829 90.9887 18.7025C90.5884 17.9607 89.6359 17.254 89.8996 16.4585C90.1197 16.0065 88.7559 15.1725 88.9859 14.5309C89.2159 13.8892 87.833 13.0945 88.0158 12.2962C88.1766 11.7546 87.6124 10.8844 87.3076 10.031L87.6807 9.26451L87.1261 8.37465L87.547 7.5099L87.0209 6.64604C87.4193 6.20793 87.1715 5.40661 88.0854 5.30452C88.513 5.60987 88.4285 6.07929 89.0944 6.23324C89.0721 6.57489 88.7883 6.86213 89.6686 6.91381C89.4955 6.6833 89.3036 6.45587 89.0944 6.23324C89.2112 6.03906 89.3102 5.8357 89.391 5.62398L90.8641 5.51449L91.6941 6.68423L90.8847 6.8251C91.1569 7.612 91.3499 8.38851 91.4619 9.14809C91.4705 9.55335 91.8623 9.88994 91.9922 10.2571C92.1222 10.6242 93.5561 11.0183 93.2021 11.7454C93.0682 12.0206 93.6448 12.6538 93.9268 13.1314C94.2088 13.609 93.8744 14.1269 94.4772 14.7485C94.9419 15.2793 95.3667 15.819 95.7487 16.3641L95.2177 17.4548L96.2866 18.2182C96.8656 18.9254 97.3232 19.652 97.6447 20.3743L96.2036 21.0099C96.4825 21.7899 97.296 21.8941 97.9731 22.3209C98.1249 22.5164 98.4549 22.8107 98.5352 23.0686C98.6943 23.8797 99.0947 24.7295 99.7093 25.5606C99.3792 26.2386 100.262 27.0453 100.684 27.7854C100.812 28.03 100.573 28.2664 100.697 28.5208C101.07 29.3591 102.046 30.1866 102.051 31.0642C102.056 31.9418 103.631 32.9759 103.486 33.8656C103.341 34.7552 104.948 35.598 104.361 36.2967C104.683 36.8985 105.08 37.4991 105.546 38.0892C106.128 38.7126 105.565 39.1073 106.07 39.7179C106.576 40.3285 107.115 40.8703 106.647 41.3235C107.34 41.9283 106.911 42.3878 107.214 42.9487C107.6 43.5016 107.864 44.0625 107.993 44.604C108.036 45.5274 108.318 46.5083 108.826 47.5012C109.406 48.4644 109.297 49.3229 110.04 50.292C110.566 50.9228 110.82 51.5859 110.756 52.1601C110.502 52.6809 111.369 53.3095 111.111 53.7552C110.853 54.2009 111.609 54.678 111.776 55.1365C111.866 55.4064 111.929 55.6727 111.965 55.9332C112.028 56.4379 112.614 57.0514 112.33 57.5086C112.921 58.3406 113.319 59.1864 113.504 60.0006C113.714 60.5406 114.208 61.0483 114.126 61.6403C114.043 62.2323 115.132 62.8714 115.035 63.5778C114.969 64.0079 115.865 64.7475 115.937 65.2326C116.01 65.7176 115.897 66.076 116.393 66.5363L115.915 67.519C116.398 68.2509 116.734 68.9892 116.909 69.7045C117.052 70.4671 117.312 71.2864 117.45 72.0588C117.589 72.8311 118.774 73.5662 118.321 74.2448C118.97 75.1081 118.778 75.8411 119.048 76.6407C119.317 77.4403 119.522 78.2451 119.808 79.0528C119.879 79.8225 120.124 80.6311 120.535 81.4487C120.024 81.9053 120.891 82.5339 121.107 83.0641C121.287 83.514 121.415 83.9586 121.489 84.3927C121.616 85.1697 121.828 85.9638 122.123 86.7678C122.355 87.476 122.836 88.2207 123.098 88.9926C123.805 91.7677 124.645 94.6076 125.302 97.4435C125.565 98.0854 125.625 98.7019 125.476 99.242C125.304 99.5957 125.759 100.267 125.834 100.79C125.909 101.312 126.658 102.224 126.469 102.655C126.249 103.252 126.284 103.952 126.571 104.686C126.796 105.406 126.843 106.096 126.712 106.723C126.794 107.408 127.029 108.125 127.406 108.848C127.537 109.543 127.729 110.249 127.981 110.963C128.329 111.728 127.086 112.083 128.257 113.018C127.321 113.462 128.436 114.552 128.199 115.251C127.976 115.936 128.177 116.775 128.762 117.603C128.077 118.291 129.338 119.634 128.539 120.302L129.065 121.166L128.639 122.041L129.194 122.931L128.768 123.805L129.287 124.556L128.412 126.355L128.692 126.795C128.768 126.892 128.905 127.032 128.881 127.081C128.556 127.75 129.001 128.611 128.921 129.325C128.82 129.66 128.668 129.973 128.467 130.259L128.971 131.124L128.34 132.421L128.895 133.311L128.249 134.638L128.803 135.528L127.722 137.748L128.201 138.456L126.398 142.16L125.61 142.214L126.008 143.004L125.101 143.134L124.441 144.49L123.399 144.602L122.968 145.486L119.437 145.724L114.296 143.222C112.971 141.97 111.822 140.863 110.626 139.77C109.932 139.223 109.265 138.659 108.629 138.081C108.162 137.491 107.765 136.891 107.443 136.289C107.22 135.897 106.948 135.508 106.63 135.127C106.281 134.803 105.889 134.498 105.466 134.22L105.71 133.719C105.234 132.88 104.18 132.002 104.812 131.337L103.697 130.795C102.424 128.886 101.213 126.936 99.7926 124.992C99.0124 123.932 99.1908 122.973 98.3082 121.912C97.4622 120.854 96.7387 119.777 96.1485 118.697C95.7931 118.074 95.9515 117.495 95.3917 116.785C94.8915 116.249 94.5821 115.673 94.5059 115.138C94.4882 114.583 93.8072 113.826 93.4066 113.169C93.0683 112.568 92.672 111.968 92.2213 111.376C91.716 110.766 92.3 110.369 91.6757 109.749C90.7524 108.814 91.3542 107.915 90.3119 106.971C89.2697 106.026 89.9233 105.359 89.1855 104.465C88.4428 103.502 87.7828 102.526 87.2106 101.547C87.0982 101.203 87.0526 100.87 87.075 100.557L85.0597 97.5951C85.3548 96.6083 83.994 95.557 83.5587 94.5064C83.8449 94.2568 83.5746 93.8821 83.3566 93.4843C83.2486 93.1351 83.2117 92.7975 83.2472 92.4829L82.4154 92.0781C81.9126 91.42 82.2876 90.8611 81.6421 90.158C81.2265 89.6859 80.8952 89.1965 80.6605 88.7078C80.5871 88.5627 80.9255 88.3749 80.871 88.2754C79.8059 86.9548 79.847 85.6864 78.9651 84.3698C79.2234 83.8391 78.4991 83.2556 78.1697 82.7063C77.8403 82.1571 78.4453 81.9289 77.8495 81.335C77.2537 80.7411 77.4124 80.0769 77.0713 79.4247L76.4558 79.1251C75.7452 78.1941 75.2519 77.2395 75.0041 76.3156C74.8444 75.46 73.4644 74.4479 73.6998 73.5415C73.7572 73.4236 73.4343 73.157 73.342 72.9662C72.7123 71.6387 70.969 70.3161 71.1579 68.9981L68.6543 65.2634L68.1411 63.0201C67.6069 62.5535 66.9635 61.9729 66.3198 61.4773C66.3255 61.1275 66.626 60.8484 65.7291 60.7886C65.9125 61.0211 66.1097 61.2509 66.3198 61.4773C66.1764 61.7721 66.0042 62.1259 65.7841 62.5779L66.9183 63.8836C66.7669 64.4905 66.6494 64.8588 66.6199 65.2577C66.5864 65.3264 66.9547 65.5422 67.147 65.6966L66.64 66.7382C67.8324 69.5308 67.5716 72.0536 69.3801 74.8909L68.9688 75.736L69.5115 76.6079L69.0093 77.6397L70.4115 79.2825L68.9517 79.7874C68.5024 80.3819 68.2515 81.0834 68.2113 81.858L69.3987 81.8283C69.9159 82.4568 69.2159 82.6266 69.3571 83.2666L69.7529 83.9333L69.2745 84.9159L70.4006 85.6464C71.2339 85.4564 71.1212 84.8424 71.4267 84.4685C71.5598 84.5333 71.7761 84.6385 71.7927 84.6466C72.1042 85.6977 72.4109 86.7586 72.6677 87.7952C72.6247 87.8837 72.4103 87.986 72.272 88.101C71.5283 87.6417 71.4607 87.0619 70.9766 86.5345C70.322 86.6535 70.2785 86.9119 70.7354 87.8757L70.3288 88.711C70.8084 89.1632 70.7451 89.7159 71.5366 90.0768L71.94 91.4887L69.7359 91.7893C69.6649 92.9485 70.2439 94.2739 71.3614 95.5098C72.5919 95.3277 73.6055 94.886 74.3128 94.2237C74.6288 94.3793 74.9061 94.591 75.1029 94.8271C75.2996 95.0631 75.4053 95.3108 75.4041 95.5328C75.2666 96.2803 75.9905 97.0338 76.3933 97.7282L75.9628 98.6126L76.4819 99.4487C75.5558 99.6178 74.1838 99.266 74.1236 100.489C73.1739 99.6496 72.6896 99.2072 72.0936 98.6984C72.0873 98.3307 72.7992 98.1788 72.0487 97.6069C71.4242 98.0443 71.4242 98.0443 72.0936 98.6984L71.754 99.396C72.1019 100.161 73.035 100.992 72.7001 101.68C72.7213 101.763 73.0849 101.989 73.2654 102.125ZM61.9448 65.0119C61.9893 65.301 60.8807 65.2111 61.8308 65.8802C62.3401 65.8486 62.4597 65.6029 61.9256 65.0512L61.9448 65.0119ZM74.0858 97.4802C73.9354 97.4663 73.7986 97.4815 73.6881 97.5244C73.5777 97.5672 73.497 97.6364 73.4536 97.7255C73.4103 97.8146 73.4056 97.9207 73.44 98.0341C73.4744 98.1476 73.5468 98.2646 73.6506 98.3744C73.7906 98.3832 73.917 98.3657 74.0191 98.3233C74.1211 98.2809 74.1958 98.2149 74.2367 98.131C74.2775 98.047 74.2834 97.9475 74.2538 97.841C74.2242 97.7346 74.16 97.6243 74.0667 97.5195L74.0858 97.4802ZM73.5543 95.9087L73.7606 96.2036C73.9033 96.159 74.0297 96.098 74.137 96.0222C74.137 96.0222 74.0351 95.851 73.9759 95.7614L73.5543 95.9087ZM67.1237 78.0468L66.7762 78.0843C66.9074 78.2221 67.0585 78.3529 67.225 78.4729C67.225 78.4729 67.4345 78.4655 67.5415 78.4568L67.1237 78.0468ZM67.5686 76.1606L67.3623 75.8657C67.2151 75.9111 67.0868 75.9755 66.9811 76.0569C66.9811 76.0569 67.083 76.2281 67.1423 76.3177L67.5686 76.1606ZM88.8663 8.05482C88.9661 8.1034 89.185 8.07629 89.1875 8.02888C89.183 7.89614 89.1472 7.75558 89.0815 7.6126C88.9744 7.62125 88.7793 7.59924 88.7768 7.64665C88.7833 7.77787 88.8133 7.91495 88.8663 8.05482Z" fill="#FF5220" fill-opacity="0.1"/>
<path d="M7.88646 262.056L7.25239 261.541L7.88854 260.234L7.35787 259.295L9.07505 255.767L8.53001 254.857L9.16615 253.55C8.39714 252.763 8.99357 252.129 8.29589 251.364C8.72533 250.905 8.35832 250.179 8.28118 249.619C8.35909 248.969 8.60929 248.383 9.02069 247.888L8.46357 247.046L9.11886 245.7L8.60918 244.929L9.46061 243.18L8.91553 242.27L10.2118 239.607L9.65242 238.727L12.2832 233.322L11.7876 232.607L12.883 230.357L12.3022 229.478L13.3928 227.238L12.8071 226.369L13.8929 224.139L13.3073 223.27L14.417 220.991L13.9026 220.23L14.5435 218.913L13.9889 218.023L14.4289 217.119L14.0424 216.603C13.8086 215.857 14.3997 215.488 14.4939 214.914L14.0031 214.189L14.8784 212.391L14.281 211.504C14.4532 211.15 15.0038 210.738 14.8645 210.305C14.6813 209.595 14.6397 208.911 14.741 208.276C14.5883 207.616 14.3583 206.943 14.0535 206.264L14.8667 204.594L14.3121 203.704L14.7043 202.898L14.1782 202.034C14.3982 201.582 14.9227 201.181 14.087 200.446L14.8857 198.805L14.0448 196.305L14.614 195.136L14.0642 194.236L14.7051 192.919L14.1457 192.039L14.581 191.145L14.0784 190.402L14.6388 188.912L14.1244 188.151C14.384 187.784 14.5794 187.383 14.7079 186.952C14.7876 186.493 14.1633 185.873 14.4785 185.394C14.622 185.099 14.1762 184.493 14.2748 184.08C14.3733 183.666 14.7101 183.185 14.0621 182.53L14.4926 181.645L13.938 180.755L14.3637 179.881L13.809 178.991L14.4261 177.723C14.2437 177.379 13.8688 176.966 13.9738 176.835C14.3462 176.323 13.9863 175.625 13.8925 175.057C13.7987 174.489 14.1635 174.204 13.8106 173.534C13.4577 172.864 14.077 172.606 14.2662 172.091L13.7805 171.271L14.6367 169.512L14.0773 168.632L15.6079 165.487L17.9079 165.877L18.4392 166.561L18.9868 166.451C19.5849 166.11 17.6465 164.766 19.3524 164.855L19.8028 165.536L22.5146 166.856L24.4852 168.641L24.4144 169.336L25.4286 170.085L27.1692 172.513C28.5837 173.031 28.1881 174.224 29.5573 174.793C29.6196 174.824 29.6774 174.863 29.7272 174.906C29.777 174.949 29.8177 174.996 29.847 175.044C30.4326 175.912 31.0323 176.836 31.6204 177.657C32.2085 178.478 33.7108 179.112 33.5564 179.937C34.4756 180.627 35.6576 180.862 35.8816 181.712C36.8883 181.631 38.1883 182.3 39.055 182.042L40.8216 180.653L42.1405 180.395L41.5033 179.21L43.4549 175.201L42.9522 174.458L43.8276 172.659L43.2301 171.773C43.3408 171.423 43.5008 171.094 43.7084 170.79C44.0449 170.395 43.242 169.846 43.4048 169.427C43.5677 169.008 43.7683 168.68 43.9692 168.268L43.4646 167.402L44.096 166.105L43.5413 165.215L43.967 164.34L43.5688 163.721C43.3611 163.049 43.9473 162.69 44.063 162.114L43.6504 161.524C43.3854 160.885 44.0761 160.65 43.9091 159.851C43.1307 158.998 44.2098 158.515 44.1905 157.667C42.996 156.696 45.0076 156.326 43.5823 155.365L44.2615 153.97L43.7116 153.07L44.1326 152.205L43.578 151.315L44.3911 149.645C44.0948 148.964 43.8666 148.288 43.7084 147.623C43.6459 146.948 44.0064 146.419 43.5635 145.596C43.3788 145.214 43.9175 144.868 44.1231 144.446L43.6351 143.588L44.2617 142.301L43.7119 141.401L44.3528 140.085L43.7934 139.205L44.2478 138.271L43.6932 137.381L44.1045 136.536L43.5691 135.607C44.6463 134.916 43.4722 133.396 44.0146 132.493C43.1437 131.535 44.0631 131.168 44.2003 130.505L43.6908 129.649L44.107 128.795L43.5524 127.905L43.9828 127.02L43.4921 126.295L44.1379 124.969L43.5522 124.1L44.4275 122.302L43.8253 121.425L44.7006 119.627L44.191 118.856L44.851 117.5L45.7794 117.369L46.2051 116.494L50.772 116.201C51.5743 117.005 52.7526 115.852 53.4965 117.199C53.2294 117.409 52.464 117.122 52.4201 117.55C51.509 117.435 51.509 117.435 51.5548 118.186C52.4679 118.424 52.1483 117.77 52.4201 117.55L53.5642 118.666L55.0282 119.379L55.0902 120.308C55.641 120.783 56.3795 121.422 57.1227 122.051C57.1227 122.051 57.339 122.157 57.6054 122.201L58.1873 121.682L59.4192 121.941L60.1054 123.491C59.745 123.935 58.4126 123.882 58.4628 124.794L56.9598 124.415C56.9598 124.415 56.8145 124.502 56.8833 124.572L60.8804 130.566C60.8804 130.566 61.1299 130.687 61.2464 130.744C61.1184 130.866 61.0403 131.019 61.0169 131.194C60.9935 131.368 61.0254 131.56 61.1105 131.757C61.1956 131.955 61.3322 132.154 61.5118 132.342C61.6914 132.53 61.9103 132.703 62.1549 132.851L61.7196 133.745C60.7907 133.16 60.6402 132.454 60.1683 131.775C59.6965 131.095 59.1242 130.622 59.5917 130.169L57.823 127.546L55.1939 123.604L51.483 120.278L49.7347 120.995L49.3138 121.86L49.8163 122.603L48.941 124.402L49.4744 125.208L48.6804 126.839L49.5309 129.32L48.9569 130.499L49.4949 131.381L48.5119 131.498C48.4271 132.606 48.924 133.87 49.9189 135.076L48.633 135.434L49.0833 136.2L48.4423 137.517L48.9732 138.371L48.1593 138.437L49.1805 142.131L48.3865 143.762C48.8355 144.065 49.1609 144.285 49.4815 144.514C49.9222 145.299 49.0033 145.496 49.227 146.432L49.5258 146.833C49.6001 147.61 48.904 148.11 48.7522 148.887L49.1976 149.663L48.4479 149.723C48.361 150.24 49.1853 150.787 49.2238 151.596L48.4872 153.109L49.037 154.009L47.9465 156.25L49.592 158.619L48.5205 160.82L49.0321 161.798L48.4837 163.221L48.9744 163.946L47.9795 165.99L48.7152 168.706C49.0401 169.409 49.019 170.07 48.656 170.561C48.4742 170.934 48.2924 171.308 48.1107 171.681L48.7738 173.912L48.0073 174.05C47.7055 174.308 47.5839 174.676 47.662 175.097C47.9875 175.316 48.3082 175.545 48.6336 175.765C48.6712 175.941 48.7921 176.158 48.7347 176.276C48.0411 177.701 47.3476 179.125 46.6588 180.541L47.1849 181.404C47.281 182.01 46.4059 181.779 46.0627 181.976L46.4701 182.746L45.5324 182.812L43.997 185.967L43.0808 186.031L42.4494 187.328C41.2551 187.245 41.2166 188.381 39.7306 187.925C38.9268 187.716 38.0124 187.016 37.1764 187.338L31.6864 184.666C31.4032 183.726 30.0964 182.944 29.411 182.027C28.7256 181.11 28.0928 180.085 27.4361 179.109C26.7793 178.133 26.2035 177.16 25.4563 176.2C24.7092 175.241 23.71 174.208 22.6588 173.028C22.1597 172.785 21.6508 172.646 21.478 173.255L21.966 174.113L21.1194 175.852L21.6692 176.752L21.2483 177.616L21.803 178.506L21.3677 179.4L21.8771 180.256C21.7154 181.888 21.8309 183.607 22.2214 185.383L21.6427 186.572C21.8165 187.235 22.0461 187.907 22.3301 188.584C22.6901 189.282 21.752 189.518 22.39 190.363C23.028 191.209 22.0564 191.514 22.611 192.404C22.9404 192.953 21.7833 193.216 22.3571 194.067C22.9308 194.917 22.095 195.155 22.0223 195.727C22.2327 196.058 22.3494 196.39 22.3635 196.698C22.3776 197.006 22.2887 197.282 22.1035 197.505L22.6248 198.378L22.1991 199.253L22.7538 200.143L22.108 201.47L22.5277 202.087C22.538 202.683 22.3376 203.211 21.9433 203.626L20.8983 203.786L22.1194 204.575L22.8614 205.714L22.23 207.011L22.7798 207.91L22.3589 208.775L22.9135 209.665L22.2678 210.992L22.7538 211.727L22.4252 212.782L22.854 213.55C22.6005 214.071 22.1567 214.56 22.422 215.029C22.5962 215.314 22.686 215.598 22.6841 215.859C22.6823 216.12 22.5887 216.351 22.4112 216.531C21.9913 216.971 22.7416 217.628 22.6121 218.063C22.4825 218.499 22.1768 218.958 22.8248 219.613L22.1743 220.95L22.7336 221.83L22.2983 222.724L22.8058 223.457L21.9304 225.255L22.5112 226.134L21.6407 227.922L22.2215 228.8L21.1309 231.041L21.6573 231.82L20.1458 234.925L20.6908 235.835L20.069 237.112L20.6118 237.984L19.0859 241.119L19.4771 241.71C19.5315 241.81 19.636 241.933 19.612 241.983L17.2204 246.896L17.7112 247.621L16.5776 249.95L15.4802 250.133L16.0001 251.602L14.7977 251.916L14.3959 252.741L14.9197 253.567L13.1786 257.144L13.7262 258.006C13.4161 258.305 13.6407 258.901 12.8506 258.917L12.2126 258.072L9.87997 258.383L11.9075 260.221L13.0806 260.22C13.596 260.641 13.3289 260.852 13.1 261.069C12.3883 261.135 11.821 260.568 11.1838 260.355L10.1154 260.394L9.81156 259.115C8.84747 259.278 9.06683 260.054 8.65882 260.511L10.4585 262.141L11.3807 261.557C11.6188 262.128 11.6158 262.667 11.3722 263.096L12.427 263.804C12.7946 264.275 12.6844 264.586 11.9372 264.599L11.4346 263.856L9.94936 263.06L9.11172 262.117C8.56022 261.898 8.01124 261.63 7.88646 262.056ZM55.6635 122.301C55.6743 122.744 55.4403 123.056 56.2707 123.083C56.1182 122.872 55.9258 122.667 55.7011 122.478C55.7506 122.425 55.7746 122.357 55.7708 122.28C55.767 122.204 55.7357 122.121 55.6795 122.04C55.6234 121.958 55.5442 121.881 55.4491 121.813C55.354 121.746 55.2459 121.692 55.1345 121.655C54.5962 120.984 54.0021 120.326 53.3571 119.684C53.0244 119.587 52.6922 119.507 52.363 119.443L53.188 120.707L55.1345 121.655C54.9696 121.951 55.1639 122.228 55.6635 122.301Z" fill="#FF5220" fill-opacity="0.1"/>
<path d="M84.8085 161.104L84.4785 161.782C83.8261 161.938 83.2326 161.382 82.5502 161.135L81.9145 160.327L79.0483 159.917C78.5361 159.193 79.3769 158.861 79.4424 158.346C78.9387 157.163 77.9246 155.979 76.5691 154.99L75.8242 155.041L75.2266 154.24L74.2175 154.283L72.6704 153.53C72.2748 152.779 71.47 152.022 71.2771 151.15L72.4627 150.913L71.9603 150.085L72.2042 149.584L73.2671 149.895L73.9477 150.822L75.3127 150.173L80.4953 157.874C80.5785 157.914 80.8114 158.028 81.0896 158.09C82.1964 157.973 81.2916 157.253 81.0716 156.732L81.7125 155.416L81.2573 154.744C81.2765 154.081 81.6215 153.535 82.2391 153.192C82.9282 153.978 83.3051 154.813 83.3088 155.56L84.4064 154.32L85.5997 154.828L85.5645 155.577L84.484 155.683L84.1635 156.341L83.3834 156.168L82.2163 158.566L83.4466 159.505L82.6129 159.865C83.249 160.503 84.0838 160.69 84.8085 161.104ZM75.1557 152.102L74.813 152.13C74.9477 152.269 75.0964 152.402 75.2569 152.529C75.2569 152.529 75.4711 152.511 75.5782 152.503L75.1557 152.102Z" fill="#FF5220" fill-opacity="0.1"/>
<path d="M75.8373 108.672L75.3017 107.828L75.7417 106.924L78.3081 107.359C79.9239 108.267 79.2722 109.141 79.8268 110.031C80.0709 110.417 79.6868 110.826 79.315 111.082C78.4 110.637 78.9976 110.466 78.9435 110.196C78.8895 109.927 78.6682 109.917 78.3763 109.629C77.8202 110.306 77.6444 111.132 77.1717 111.765C75.7414 110.899 76.688 110.095 75.5597 109.327C75.4528 109.251 75.7321 108.889 75.8373 108.672Z" fill="#FF5220" fill-opacity="0.1"/>
<path d="M71.4488 90.1296C71.7377 89.7475 71.6653 89.1775 72.2725 88.9869C72.3557 89.0274 72.5175 89.0332 72.5387 89.1164L73.8904 90.9899L73.4121 91.9725L74.5694 93.569L74.2345 94.2569C73.166 93.7999 72.1394 93.2387 71.1953 92.5952L72.276 92.4041C72.1323 91.8115 73.294 91.6233 72.6015 90.6785L71.4488 90.1296Z" fill="#FF5220" fill-opacity="0.1"/>
<path d="M81.8107 125.66L82.6105 124.567L83.7183 124.997L84.2159 126.807C84.1608 127.168 83.9517 127.466 83.6118 127.668L82.6384 126.793L81.778 127.334L80.9296 126.921L80.3725 125.106L81.8107 125.66Z" fill="#FF5220" fill-opacity="0.1"/>
<path d="M81.8336 139.647C81.6413 139.493 81.254 139.231 81.278 139.182C81.6864 138.554 80.0927 137.39 81.4641 137.024L80.0977 135.35L80.9252 133.65C81.1175 133.804 81.4407 133.986 81.4642 134.107C81.6291 134.783 81.6846 135.43 81.8233 136.117C81.7802 136.206 82.1866 136.428 82.379 136.582L81.8385 137.692L82.3741 138.537L81.8336 139.647Z" fill="#FF5220" fill-opacity="0.1"/>
<path d="M82.3798 136.584L82.9443 135.424L84.2309 135.698L85.2344 137.864L84.2358 137.548L83.1638 138.059C82.4108 137.535 83.654 137.095 82.3798 136.584Z" fill="#FF5220" fill-opacity="0.1"/>
<path d="M67.2701 142.004L66.83 142.908C65.6189 141.929 65.3479 140.837 64.5032 139.867C64.5952 139.255 65.0261 139.173 65.8625 139.653C66.2792 140.488 66.0132 141.246 67.2701 142.004Z" fill="#FF5220" fill-opacity="0.1"/>
<path d="M78.4911 121.865C78.9043 123.031 79.1543 124.175 79.2369 125.279C79.213 125.328 79.0346 125.314 78.9394 125.341C77.7347 124.645 78.1527 123.998 77.8688 123.313C77.585 122.627 77.5172 122.132 77.3142 121.45L78.4911 121.865Z" fill="#FF5220" fill-opacity="0.1"/>
<path d="M69.016 138.413C69.931 138.858 69.6655 139.446 70.212 139.761C70.1338 140.598 68.3695 140.08 68.7074 141.034L67.9255 140.654L67.5711 139.606L68.4803 139.514L69.016 138.413Z" fill="#FF5220" fill-opacity="0.1"/>
<path d="M87.9987 156.58C87.5682 157.464 87.2477 158.122 86.7391 158.871L85.7336 157.47L86.7314 157.154C87.2345 156.755 85.8278 155.924 86.5401 155.602C86.6414 155.575 86.748 155.554 86.8591 155.539C87.5248 155.778 87.2619 156.233 87.9987 156.58Z" fill="#FF5220" fill-opacity="0.1"/>
<path d="M85.0717 146.775C85.6396 146.116 83.7127 145.931 83.9926 145.314C84.3688 145.218 84.8508 145.622 85.3453 145.79C85.8842 145.938 86.4208 146.053 86.9483 146.133L87.6241 147.069C87.4184 147.492 86.5723 147.117 86.3194 147.382L85.0717 146.775Z" fill="#FF5220" fill-opacity="0.1"/>
<path d="M62.0282 131.123L62.8767 131.536L64.2608 133.766L63.1898 133.852L62.1549 132.85L62.4323 132.28L62.0282 131.123Z" fill="#FF5220" fill-opacity="0.1"/>
<path d="M76.8155 117.662C75.7685 116.727 76.0347 115.884 75.6633 114.999C75.597 114.881 75.8875 114.792 76.0353 114.657C76.7673 115.013 76.7114 115.509 77.1125 115.911C76.3264 116.257 78.0371 117.309 77.1631 117.625C77.0537 117.646 76.9374 117.659 76.8155 117.662Z" fill="#FF5220" fill-opacity="0.1"/>
<path d="M82.266 139.859C82.3492 139.9 82.4989 139.972 82.5156 139.981C82.824 140.98 82.7501 141.908 82.302 142.66C81.7529 142.393 81.8422 141.914 81.4768 141.48L82.266 139.859Z" fill="#FF5220" fill-opacity="0.1"/>
<path d="M74.1858 108.136C72.6794 107.257 73.3739 106.38 72.6956 105.491C72.5723 105.321 72.8822 105.107 73.0687 104.724L73.7947 105.6C74.3784 106.261 73.7988 106.818 74.48 107.49C74.6011 107.621 74.291 107.92 74.1858 108.136Z" fill="#FF5220" fill-opacity="0.1"/>
<path d="M74.8571 110.689C74.5945 110.454 74.3478 110.212 74.1189 109.965C73.9432 109.718 73.7895 109.468 73.6591 109.218L74.1852 108.138C74.3849 108.235 74.5748 108.437 74.7457 108.593C74.9166 108.749 75.2655 109.089 75.5172 109.333L74.8571 110.689Z" fill="#FF5220" fill-opacity="0.1"/>
<path d="M68.1626 144.1L68.507 143.392C69.4129 143.687 69.6799 144.449 70.5379 144.843L70.3555 145.471C70.1676 145.477 70.0509 145.505 69.9319 145.496C68.8876 145.401 68.9899 144.429 68.1626 144.1Z" fill="#FF5220" fill-opacity="0.1"/>
<path d="M68.7083 141.036L70.1355 141.232L70.887 142.351C70.0278 142.468 69.2704 141.783 68.4883 141.488L68.7083 141.036Z" fill="#FF5220" fill-opacity="0.1"/>
<path d="M74.8816 110.638C75.6469 111.01 75.6098 111.551 76.0916 112.041L75.7 112.592C74.9348 112.22 74.9098 111.721 74.5515 111.316L74.8816 110.638Z" fill="#FF5220" fill-opacity="0.1"/>
<path d="M79.3093 129.107C80.0745 129.479 80.138 129.814 80.6629 130.215L80.4052 130.491C79.6399 130.118 79.5289 129.797 79.1275 129.48L79.3093 129.107Z" fill="#FF5220" fill-opacity="0.1"/>
<path d="M84.6915 161.216C85.1686 160.743 84.873 159.955 85.8866 159.986C86.3254 160.565 85.8893 160.826 85.7078 161.115C85.6313 161.272 85.1579 161.188 84.6915 161.216Z" fill="#FF5220" fill-opacity="0.1"/>
<path d="M76.8736 158.162L77.0907 157.927C77.0668 157.976 77.1379 158.084 77.1022 158.115L76.8803 158.36L76.8736 158.162Z" fill="#FF5220" fill-opacity="0.1"/>
<path d="M79.9956 131.882L80.284 131.67C80.2601 131.719 80.3478 131.835 80.3286 131.874C80.3095 131.913 80.1498 132.03 80.0687 132.112L79.9956 131.882Z" fill="#FF5220" fill-opacity="0.1"/>
</g>
<defs>
<clipPath id="clip0_907_1392">
<rect width="270.286" height="102.449" fill="white" transform="translate(173.406 45.8359) rotate(115.955)"/>
</clipPath>
</defs>
</svg>
