<svg width="74" height="65" viewBox="0 0 74 65" fill="none" xmlns="http://www.w3.org/2000/svg">
<path d="M60.7064 27.4849C60.1751 27.4849 58.3955 27.5005 57.8939 27.5317L47.7533 27.7974C47.7006 27.8006 47.648 27.7892 47.6014 27.7643C47.5548 27.7395 47.5159 27.7023 47.4892 27.6567L27.2423 3.04111C27.1195 2.87855 26.9629 2.74461 26.7832 2.64856C26.6035 2.55252 26.4051 2.49666 26.2017 2.48486H22.0002L33.4064 27.6411C33.4336 27.6987 33.4454 27.7624 33.4405 27.8259C33.4357 27.8894 33.4144 27.9505 33.3788 28.0033C33.3432 28.0561 33.2944 28.0987 33.2374 28.127C33.1803 28.1553 33.1169 28.1682 33.0533 28.1645L14.0392 28.4458C13.8414 28.4518 13.6449 28.4111 13.4657 28.3269C13.2865 28.2427 13.1297 28.1175 13.008 27.9614L7.22672 20.9302C6.75797 20.3208 5.87984 19.9927 5.11578 19.9927H2.16891C1.96734 19.9927 1.99703 20.1817 2.05172 20.3724L5.15172 31.5317C5.38605 32.1294 5.38605 32.7935 5.15172 33.3911L2.04859 44.5161C1.95641 44.8208 1.96734 44.9849 2.32516 44.9849H5.12516C6.39703 44.9849 6.57047 44.8192 7.22047 44.0005L13.1111 36.8599C13.2339 36.705 13.3909 36.5806 13.5698 36.4966C13.7488 36.4125 13.9447 36.3711 14.1423 36.3755L32.9986 36.7974C33.0672 36.7989 33.1345 36.8172 33.1945 36.8507C33.2544 36.8841 33.3053 36.9317 33.3428 36.9893C33.3802 37.0469 33.403 37.1127 33.4092 37.1811C33.4153 37.2495 33.4047 37.3184 33.3783 37.3817L22.0002 62.4849H26.1627C26.3657 62.473 26.5637 62.4173 26.7431 62.3215C26.9224 62.2258 27.0789 62.0923 27.2017 61.9302L47.4908 37.3286C47.5517 37.2349 47.8033 37.188 47.9111 37.188L57.8955 37.4536C58.4111 37.4849 60.1751 37.5005 60.708 37.5005C67.6251 37.5005 72.0001 35.5989 72.0001 32.4849C72.0001 29.3708 67.6439 27.4849 60.7064 27.4849Z" stroke="#FF5220" stroke-width="4" stroke-linecap="round" stroke-linejoin="round"/>
</svg>
