<svg width="209" height="373" viewBox="0 0 209 373" fill="none" xmlns="http://www.w3.org/2000/svg">
<g clip-path="url(#clip0_1472_492)">
<path d="M-10.2016 275.452C9.34794 257.459 28.3989 238.097 55.9417 225.801C74.2439 217.628 112.275 202.156 125.573 190.331C140.196 177.316 150.18 158.444 153.808 143.629C160.334 117.1 117.895 77.9098 85.5045 39.7086C76.529 29.1423 61.0816 21.9006 41.8857 20.3978C0.0465211 17.1274 -25.9864 42.4155 -48.9063 63.8687" fill="#EA7A2F" fill-opacity="0.2"/>
</g>
<path d="M116.24 300.095C117.33 281.939 126.611 264.28 142.461 249.344C183.911 210.294 166.691 167.871 150.461 154.831C131.641 139.688 102.13 131.887 72.6205 131.23C43.1105 130.572 13.6205 136.484 -13.4695 145.241C-34.6295 152.124 -55.0695 160.949 -69.6395 173.538C-83.8795 185.843 -91.6395 200.894 -98.7195 215.701C-107.83 234.752 -116.32 254.284 -116.52 274.131C-116.7 290.306 -108.599 308.592 -86.7895 314.382C-68.1895 319.315 -45.6795 313.449 -27.2095 318.603C-1.35953 325.815 3.36046 350.006 24.9105 362.013C50.0305 376.016 85.4405 371.756 97.8005 358.678C110.72 345.042 115.02 320.217 116.24 300.095Z" stroke="#EA7A2F" stroke-opacity="0.2" stroke-width="3.03" stroke-miterlimit="10"/>
<path d="M154.764 269.103C155.854 250.947 165.134 233.288 180.984 218.352C222.434 179.301 205.214 136.878 188.984 123.839C170.164 108.696 140.654 100.895 111.144 100.237C81.6339 99.5796 52.1439 105.491 25.0539 114.248C3.89389 121.131 -16.5461 129.957 -31.1161 142.546C-45.3561 154.851 -53.1161 169.902 -60.1961 184.709C-69.3061 203.76 -77.7961 223.292 -77.9961 243.139C-78.1761 259.314 -70.0761 277.6 -48.2661 283.39C-29.6661 288.322 -7.1561 282.457 11.3139 287.611C37.1639 294.823 41.8839 319.014 63.4339 331.021C88.5539 345.024 123.964 340.764 136.324 327.686C149.244 314.05 153.544 289.225 154.764 269.103Z" stroke="#EA7A2F" stroke-opacity="0.2" stroke-width="3.03" stroke-miterlimit="10"/>
<defs>
<clipPath id="clip0_1472_492">
<rect width="228.494" height="229.91" fill="white" transform="matrix(-0.919286 0.393589 0.59066 0.806921 64.0518 0)"/>
</clipPath>
</defs>
</svg>
