<svg width="75" height="65" viewBox="0 0 75 65" fill="none" xmlns="http://www.w3.org/2000/svg">
<path d="M61.4564 27.4849C60.9251 27.4849 59.1455 27.5005 58.6439 27.5318L48.5033 27.7974C48.4506 27.8007 48.398 27.7892 48.3514 27.7644C48.3048 27.7396 48.2659 27.7023 48.2392 27.6568L27.9923 3.04117C27.8695 2.87861 27.7129 2.74467 27.5332 2.64862C27.3535 2.55258 27.1551 2.49672 26.9517 2.48492H22.7502L34.1564 27.6412C34.1836 27.6988 34.1954 27.7624 34.1905 27.8259C34.1857 27.8894 34.1644 27.9506 34.1288 28.0034C34.0932 28.0562 34.0444 28.0988 33.9874 28.1271C33.9303 28.1553 33.8669 28.1683 33.8033 28.1646L14.7892 28.4459C14.5914 28.4519 14.3949 28.4111 14.2157 28.327C14.0365 28.2428 13.8797 28.1176 13.758 27.9615L7.97672 20.9302C7.50797 20.3209 6.62984 19.9927 5.86578 19.9927H2.91891C2.71734 19.9927 2.74703 20.1818 2.80172 20.3724L5.90172 31.5318C6.13605 32.1294 6.13605 32.7935 5.90172 33.3912L2.79859 44.5162C2.70641 44.8209 2.71734 44.9849 3.07516 44.9849H5.87516C7.14703 44.9849 7.32047 44.8193 7.97047 44.0005L13.8611 36.8599C13.9839 36.705 14.1409 36.5807 14.3198 36.4966C14.4988 36.4126 14.6947 36.3711 14.8923 36.3755L33.7486 36.7974C33.8172 36.799 33.8845 36.8173 33.9445 36.8507C34.0044 36.8842 34.0553 36.9317 34.0928 36.9893C34.1302 37.0469 34.153 37.1128 34.1592 37.1812C34.1653 37.2496 34.1547 37.3184 34.1283 37.3818L22.7502 62.4849H26.9127C27.1157 62.4731 27.3137 62.4174 27.4931 62.3216C27.6724 62.2258 27.8289 62.0923 27.9517 61.9302L48.2408 37.3287C48.3017 37.2349 48.5533 37.188 48.6611 37.188L58.6455 37.4537C59.1611 37.4849 60.9251 37.5005 61.458 37.5005C68.3751 37.5005 72.7501 35.599 72.7501 32.4849C72.7501 29.3709 68.3939 27.4849 61.4564 27.4849Z" stroke="#43A047" stroke-width="4" stroke-linecap="round" stroke-linejoin="round"/>
</svg>
