<svg width="36" height="36" viewBox="0 0 36 36" fill="none" xmlns="http://www.w3.org/2000/svg">
<path d="M22.906 19.815C23.773 20.0925 24.523 20.439 25.2205 20.865L25.174 20.838C25.9675 21.1905 26.653 21.603 27.2785 22.0875L27.256 22.071C27.286 22.1625 27.304 22.266 27.304 22.3755C27.304 22.392 27.304 22.407 27.3025 22.4235V22.422C27.28 23.0655 27.1375 23.67 26.896 24.2205L26.908 24.189C26.5615 24.8835 25.984 25.419 25.2775 25.704L25.2565 25.7115C24.568 26.076 23.755 26.301 22.8925 26.328H22.8835C21.2335 26.109 19.7425 25.602 18.4015 24.855L18.466 24.888C16.933 24.186 15.6235 23.2635 14.512 22.1445L14.5105 22.143C13.2745 20.8575 12.142 19.4505 11.1385 17.952L11.068 17.841C10.114 16.5975 9.50655 15.042 9.41805 13.3485L9.41655 13.329V13.143C9.46455 11.6805 10.1185 10.3785 11.1325 9.4725L11.137 9.468C11.4475 9.159 11.8735 8.9655 12.3445 8.9565H12.346C12.4975 8.961 12.643 8.973 12.784 8.994L12.7645 8.991C12.895 9.0105 13.0465 9.0225 13.2025 9.0255H13.207C13.2355 9.0225 13.267 9.021 13.3 9.021C13.495 9.021 13.6765 9.0795 13.828 9.1785L13.825 9.177C13.9855 9.354 14.1085 9.5685 14.182 9.804L14.185 9.816C14.309 10.126 14.565 10.808 14.953 11.862C15.1555 12.333 15.3535 12.9135 15.5125 13.5105L15.5335 13.605C15.4195 14.1465 15.1315 14.607 14.734 14.9385L14.7295 14.9415C14.1945 15.5075 13.927 15.8675 13.927 16.0215C13.933 16.1535 13.978 16.2735 14.0485 16.3725L14.047 16.371C14.6545 17.6145 15.451 18.6705 16.411 19.5495L16.4185 19.557C17.431 20.4705 18.5875 21.255 19.8415 21.867L19.93 21.906C20.0755 22.0005 20.2495 22.0605 20.4385 22.0695H20.4415C20.6745 22.0695 21.0935 21.6935 21.6985 20.9415C22.3035 20.1895 22.7055 19.8135 22.9045 19.8135L22.906 19.815ZM18.1855 32.139H18.2185C20.254 32.139 22.189 31.7115 23.9395 30.9405L23.848 30.9765C27.382 29.4855 30.1375 26.73 31.5925 23.2905L31.6285 23.196C32.3635 21.5265 32.791 19.5795 32.791 17.5335C32.791 15.4875 32.3635 13.5405 31.5925 11.778L31.6285 11.871C30.1375 8.337 27.382 5.5815 23.9425 4.1265L23.848 4.0905C22.1785 3.3555 20.2315 2.928 18.1855 2.928C16.1395 2.928 14.1925 3.3555 12.43 4.1265L12.523 4.0905C8.98905 5.5815 6.23355 8.337 4.77855 11.7765L4.74255 11.871C4.00755 13.5465 3.58005 15.4995 3.58005 17.5515C3.58005 20.763 4.62705 23.7315 6.39855 26.1315L6.37005 26.0925L4.53255 31.512L10.1605 29.721C12.3955 31.236 15.151 32.139 18.118 32.139H18.1885H18.1855ZM18.1855 0H18.235C20.677 0 22.999 0.513 25.0975 1.4385L24.988 1.395C29.2255 3.1905 32.53 6.495 34.282 10.6185L34.3255 10.7325C35.2075 12.738 35.7205 15.0765 35.7205 17.535C35.7205 19.9935 35.2075 22.332 34.282 24.4485L34.3255 24.3375C32.53 28.575 29.2255 31.8795 25.102 33.6315L24.988 33.675C22.9975 34.557 20.6755 35.07 18.2335 35.07C18.217 35.07 18.199 35.07 18.1825 35.07H18.1855C18.1615 35.07 18.1345 35.07 18.106 35.07C15.0175 35.07 12.118 34.2585 9.61005 32.838L9.69555 32.883L-0.00195312 36L3.16155 26.5815C1.58505 24.0105 0.650547 20.898 0.650547 17.5665C0.650547 15.0975 1.16355 12.7485 2.08905 10.62L2.04555 10.7325C3.84105 6.495 7.14555 3.1905 11.269 1.4385L11.383 1.395C13.3735 0.513 15.6955 0 18.1375 0H18.187L18.1855 0Z" fill="white"/>
</svg>
