<svg width="36" height="546" viewBox="0 0 36 546" fill="none" xmlns="http://www.w3.org/2000/svg">
<line x1="18.5" y1="35" x2="18.5" y2="260" stroke="#FF5220"/>
<line x1="18.5" y1="294" x2="18.5" y2="511" stroke="#FF5220"/>
<path d="M35 17.5C35 26.5863 27.4156 34 18 34C8.58442 34 1 26.5863 1 17.5C1 8.41367 8.58442 1 18 1C27.4156 1 35 8.41367 35 17.5Z" fill="white" stroke="#FF5220" stroke-width="2"/>
<path d="M35 276.5C35 285.586 27.4156 293 18 293C8.58442 293 1 285.586 1 276.5C1 267.414 8.58442 260 18 260C27.4156 260 35 267.414 35 276.5Z" fill="white" stroke="#FF5220" stroke-width="2"/>
<path d="M35 528.5C35 537.586 27.4156 545 18 545C8.58442 545 1 537.586 1 528.5C1 519.414 8.58442 512 18 512C27.4156 512 35 519.414 35 528.5Z" fill="white" stroke="#FF5220" stroke-width="2"/>
<path d="M18.915 23H17.8076V15.918C17.8076 15.6491 17.8076 15.4189 17.8076 15.2275C17.8122 15.0316 17.8167 14.8538 17.8213 14.6943C17.8304 14.5303 17.8418 14.3639 17.8555 14.1953C17.7142 14.3411 17.582 14.4665 17.459 14.5713C17.3359 14.6715 17.1833 14.7969 17.001 14.9473L15.8594 15.8633L15.2646 15.0908L17.9717 13.0059H18.915V23Z" fill="#FF5220"/>
<path d="M21.2393 282H14.6904V281.05L17.3633 278.336C17.86 277.835 18.277 277.388 18.6143 276.996C18.9561 276.604 19.2158 276.219 19.3936 275.841C19.5713 275.458 19.6602 275.039 19.6602 274.583C19.6602 274.018 19.4915 273.587 19.1543 273.291C18.8216 272.99 18.3818 272.84 17.835 272.84C17.3564 272.84 16.9326 272.922 16.5635 273.086C16.1943 273.25 15.8161 273.482 15.4287 273.783L14.8203 273.018C15.0846 272.794 15.3717 272.596 15.6816 272.423C15.9961 272.25 16.3311 272.113 16.6865 272.013C17.0465 271.912 17.4294 271.862 17.835 271.862C18.4502 271.862 18.9811 271.969 19.4277 272.184C19.8743 272.398 20.2184 272.703 20.46 273.1C20.7061 273.496 20.8291 273.968 20.8291 274.515C20.8291 275.043 20.7243 275.535 20.5146 275.991C20.305 276.442 20.0111 276.891 19.6328 277.338C19.2546 277.78 18.8125 278.249 18.3066 278.746L16.1328 280.913V280.961H21.2393V282Z" fill="#FF5220"/>
<path d="M20.8701 526.337C20.8701 526.784 20.7835 527.171 20.6104 527.499C20.4372 527.827 20.1956 528.096 19.8857 528.306C19.5758 528.511 19.2113 528.654 18.792 528.736V528.791C19.585 528.891 20.1797 529.146 20.5762 529.557C20.9772 529.967 21.1777 530.505 21.1777 531.17C21.1777 531.749 21.041 532.261 20.7676 532.708C20.4987 533.155 20.084 533.506 19.5234 533.761C18.9674 534.011 18.2542 534.137 17.3838 534.137C16.8551 534.137 16.3652 534.093 15.9141 534.007C15.4674 533.925 15.0391 533.786 14.6289 533.59V532.523C15.0436 532.729 15.4948 532.89 15.9824 533.009C16.4701 533.123 16.9417 533.18 17.3975 533.18C18.3089 533.18 18.9674 533 19.373 532.64C19.7786 532.275 19.9814 531.778 19.9814 531.149C19.9814 530.716 19.8675 530.368 19.6396 530.104C19.4163 529.835 19.0928 529.639 18.6689 529.516C18.2497 529.388 17.7438 529.324 17.1514 529.324H16.1533V528.354H17.1582C17.7005 528.354 18.1608 528.274 18.5391 528.114C18.9173 527.955 19.2044 527.731 19.4004 527.444C19.6009 527.153 19.7012 526.809 19.7012 526.412C19.7012 525.906 19.5326 525.517 19.1953 525.243C18.8581 524.965 18.4001 524.826 17.8213 524.826C17.4658 524.826 17.1423 524.863 16.8506 524.936C16.5589 525.008 16.2855 525.109 16.0303 525.236C15.7751 525.364 15.5199 525.512 15.2646 525.681L14.6904 524.901C15.055 524.619 15.4993 524.375 16.0234 524.17C16.5475 523.965 17.1423 523.862 17.8076 523.862C18.8285 523.862 19.5941 524.095 20.1045 524.56C20.6149 525.024 20.8701 525.617 20.8701 526.337Z" fill="#FF5220"/>
</svg>
