<svg width="61" height="60" viewBox="0 0 61 60" fill="none" xmlns="http://www.w3.org/2000/svg">
<path d="M38.9514 33.025C40.3964 33.4875 41.6464 34.065 42.8089 34.775L42.7314 34.73C44.0539 35.3175 45.1964 36.005 46.2389 36.8125L46.2014 36.785C46.2514 36.9375 46.2814 37.11 46.2814 37.2925C46.2814 37.32 46.2814 37.345 46.2789 37.3725V37.37C46.2414 38.4425 46.0039 39.45 45.6014 40.3675L45.6214 40.315C45.0439 41.4725 44.0814 42.365 42.9039 42.84L42.8689 42.8525C41.7214 43.46 40.3664 43.835 38.9289 43.88H38.9139C36.1639 43.515 33.6789 42.67 31.4439 41.425L31.5514 41.48C28.9964 40.31 26.8139 38.7725 24.9614 36.9075L24.9589 36.905C22.8989 34.7625 21.0114 32.4175 19.3389 29.92L19.2214 29.735C17.6314 27.6625 16.6189 25.07 16.4714 22.2475L16.4689 22.215V21.905C16.5489 19.4675 17.6389 17.2975 19.3289 15.7875L19.3364 15.78C19.8539 15.265 20.5639 14.9425 21.3489 14.9275H21.3514C21.6039 14.935 21.8464 14.955 22.0814 14.99L22.0489 14.985C22.2664 15.0175 22.5189 15.0375 22.7789 15.0425H22.7864C22.8339 15.0375 22.8864 15.035 22.9414 15.035C23.2664 15.035 23.5689 15.1325 23.8214 15.2975L23.8164 15.295C24.0839 15.59 24.2889 15.9475 24.4114 16.34L24.4164 16.36C24.623 16.8767 25.0497 18.0133 25.6964 19.77C26.0339 20.555 26.3639 21.5225 26.6289 22.5175L26.6639 22.675C26.4739 23.5775 25.9939 24.345 25.3314 24.8975L25.3239 24.9025C24.4322 25.8458 23.9864 26.4458 23.9864 26.7025C23.9964 26.9225 24.0714 27.1225 24.1889 27.2875L24.1864 27.285C25.1989 29.3575 26.5264 31.1175 28.1264 32.5825L28.1389 32.595C29.8264 34.1175 31.7539 35.425 33.8439 36.445L33.9914 36.51C34.2339 36.6675 34.5239 36.7675 34.8389 36.7825H34.8439C35.2322 36.7825 35.9305 36.1558 36.9389 34.9025C37.9472 33.6492 38.6172 33.0225 38.9489 33.0225L38.9514 33.025ZM31.0839 53.565H31.1389C34.5314 53.565 37.7564 52.8525 40.6739 51.5675L40.5214 51.6275C46.4114 49.1425 51.0039 44.55 53.4289 38.8175L53.4889 38.66C54.7139 35.8775 55.4264 32.6325 55.4264 29.2225C55.4264 25.8125 54.7139 22.5675 53.4289 19.63L53.4889 19.785C51.0039 13.895 46.4114 9.3025 40.6789 6.8775L40.5214 6.8175C37.7389 5.5925 34.4939 4.88 31.0839 4.88C27.6739 4.88 24.4289 5.5925 21.4914 6.8775L21.6464 6.8175C15.7564 9.3025 11.1639 13.895 8.73886 19.6275L8.67886 19.785C7.45386 22.5775 6.74136 25.8325 6.74136 29.2525C6.74136 34.605 8.48636 39.5525 11.4389 43.5525L11.3914 43.4875L8.32886 52.52L17.7089 49.535C21.4339 52.06 26.0264 53.565 30.9714 53.565H31.0889H31.0839ZM31.0839 0H31.1664C35.2364 0 39.1064 0.855 42.6039 2.3975L42.4214 2.325C49.4839 5.3175 54.9914 10.825 57.9114 17.6975L57.9839 17.8875C59.4539 21.23 60.3089 25.1275 60.3089 29.225C60.3089 33.3225 59.4539 37.22 57.9114 40.7475L57.9839 40.5625C54.9914 47.625 49.4839 53.1325 42.6114 56.0525L42.4214 56.125C39.1039 57.595 35.2339 58.45 31.1639 58.45C31.1364 58.45 31.1064 58.45 31.0789 58.45H31.0839C31.0439 58.45 30.9989 58.45 30.9514 58.45C25.8039 58.45 20.9714 57.0975 16.7914 54.73L16.9339 54.805L0.771362 60L6.04386 44.3025C3.41636 40.0175 1.85886 34.83 1.85886 29.2775C1.85886 25.1625 2.71386 21.2475 4.25636 17.7L4.18386 17.8875C7.17636 10.825 12.6839 5.3175 19.5564 2.3975L19.7464 2.325C23.0639 0.855 26.9339 0 31.0039 0H31.0864L31.0839 0Z" fill="#FF5220"/>
</svg>
