<svg width="385" height="51" viewBox="0 0 385 51" fill="none" xmlns="http://www.w3.org/2000/svg">
<path d="M0.5 16C0.5 7.16344 7.66344 0 16.5 0H384.5V51H16.5C7.66345 51 0.5 43.8366 0.5 35V16Z" fill="#FF5220"/>
<path d="M33.5 22.172H57.5M38.8333 14.5156V17.0678M52.1667 14.5156V17.0678M37.5 26.0002H40.1667M44.1667 26.0002H46.8333M50.8333 26.0002H53.5M37.5 29.8284H40.1667M44.1667 29.8284H46.8333M50.8333 29.8284H53.5M37.5 33.6566H40.1667M44.1667 33.6566H46.8333M50.8333 33.6566H53.5M37.7667 37.4848H53.2333C54.7268 37.4848 55.4736 37.4848 56.044 37.2066C56.5457 36.9619 56.9537 36.5715 57.2093 36.0913C57.5 35.5454 57.5 34.8307 57.5 33.4014V21.1512C57.5 19.7218 57.5 19.0072 57.2093 18.4612C56.9537 17.981 56.5457 17.5906 56.044 17.3459C55.4736 17.0678 54.7268 17.0678 53.2333 17.0678H37.7667C36.2732 17.0678 35.5265 17.0678 34.956 17.3459C34.4543 17.5906 34.0463 17.981 33.7907 18.4612C33.5 19.0072 33.5 19.7218 33.5 21.1512V33.4014C33.5 34.8307 33.5 35.5454 33.7907 36.0913C34.0463 36.5715 34.4543 36.9619 34.956 37.2066C35.5265 37.4848 36.2732 37.4848 37.7667 37.4848Z" stroke="white" stroke-width="2" stroke-linecap="round"/>
<path d="M77.9531 27.2812C77.9531 28.2031 77.8802 29.0286 77.7344 29.7578C77.5938 30.4818 77.3698 31.0964 77.0625 31.6016C76.7552 32.1068 76.3542 32.4922 75.8594 32.7578C75.3646 33.0234 74.7656 33.1562 74.0625 33.1562C73.1823 33.1562 72.4557 32.9245 71.8828 32.4609C71.3099 31.9922 70.8854 31.3203 70.6094 30.4453C70.3333 29.5651 70.1953 28.5104 70.1953 27.2812C70.1953 26.0521 70.3203 25 70.5703 24.125C70.8255 23.2448 71.237 22.5703 71.8047 22.1016C72.3724 21.6328 73.125 21.3984 74.0625 21.3984C74.9479 21.3984 75.6771 21.6328 76.25 22.1016C76.8281 22.5651 77.2552 23.237 77.5312 24.1172C77.8125 24.9922 77.9531 26.0469 77.9531 27.2812ZM72.0469 27.2812C72.0469 28.2448 72.1094 29.0495 72.2344 29.6953C72.3646 30.3411 72.5781 30.8255 72.875 31.1484C73.1719 31.4661 73.5677 31.625 74.0625 31.625C74.5573 31.625 74.9531 31.4661 75.25 31.1484C75.5469 30.8307 75.7604 30.349 75.8906 29.7031C76.026 29.0573 76.0938 28.25 76.0938 27.2812C76.0938 26.3229 76.0286 25.5208 75.8984 24.875C75.7682 24.2292 75.5547 23.7448 75.2578 23.4219C74.9609 23.0938 74.5625 22.9297 74.0625 22.9297C73.5625 22.9297 73.1641 23.0938 72.8672 23.4219C72.5755 23.7448 72.3646 24.2292 72.2344 24.875C72.1094 25.5208 72.0469 26.3229 72.0469 27.2812ZM83.2578 25.8594C83.9922 25.8594 84.638 25.9922 85.1953 26.2578C85.7578 26.5182 86.1953 26.9036 86.5078 27.4141C86.8203 27.9193 86.9766 28.5391 86.9766 29.2734C86.9766 30.0755 86.8073 30.7682 86.4688 31.3516C86.1302 31.9297 85.6328 32.375 84.9766 32.6875C84.3203 33 83.5208 33.1562 82.5781 33.1562C81.9792 33.1562 81.4193 33.1042 80.8984 33C80.3828 32.8958 79.9375 32.7396 79.5625 32.5312V30.875C79.9531 31.0938 80.4219 31.2734 80.9688 31.4141C81.5156 31.5495 82.0391 31.6172 82.5391 31.6172C83.0703 31.6172 83.526 31.5391 83.9062 31.3828C84.2865 31.2266 84.5781 30.987 84.7812 30.6641C84.9896 30.3411 85.0938 29.9323 85.0938 29.4375C85.0938 28.7812 84.8828 28.276 84.4609 27.9219C84.0443 27.5625 83.3906 27.3828 82.5 27.3828C82.1875 27.3828 81.8542 27.4115 81.5 27.4688C81.151 27.5208 80.8594 27.5781 80.625 27.6406L79.8203 27.1641L80.25 21.5781H86.1875V23.1953H81.8672L81.6172 26.0391C81.8047 25.9974 82.0286 25.9583 82.2891 25.9219C82.5495 25.8802 82.8724 25.8594 83.2578 25.8594ZM93.9297 21.5781L89.6719 33H87.9531L92.2109 21.5781H93.9297ZM102.516 27.2812C102.516 28.2031 102.443 29.0286 102.297 29.7578C102.156 30.4818 101.932 31.0964 101.625 31.6016C101.318 32.1068 100.917 32.4922 100.422 32.7578C99.9271 33.0234 99.3281 33.1562 98.625 33.1562C97.7448 33.1562 97.0182 32.9245 96.4453 32.4609C95.8724 31.9922 95.4479 31.3203 95.1719 30.4453C94.8958 29.5651 94.7578 28.5104 94.7578 27.2812C94.7578 26.0521 94.8828 25 95.1328 24.125C95.388 23.2448 95.7995 22.5703 96.3672 22.1016C96.9349 21.6328 97.6875 21.3984 98.625 21.3984C99.5104 21.3984 100.24 21.6328 100.812 22.1016C101.391 22.5651 101.818 23.237 102.094 24.1172C102.375 24.9922 102.516 26.0469 102.516 27.2812ZM96.6094 27.2812C96.6094 28.2448 96.6719 29.0495 96.7969 29.6953C96.9271 30.3411 97.1406 30.8255 97.4375 31.1484C97.7344 31.4661 98.1302 31.625 98.625 31.625C99.1198 31.625 99.5156 31.4661 99.8125 31.1484C100.109 30.8307 100.323 30.349 100.453 29.7031C100.589 29.0573 100.656 28.25 100.656 27.2812C100.656 26.3229 100.591 25.5208 100.461 24.875C100.331 24.2292 100.117 23.7448 99.8203 23.4219C99.5234 23.0938 99.125 22.9297 98.625 22.9297C98.125 22.9297 97.7266 23.0938 97.4297 23.4219C97.138 23.7448 96.9271 24.2292 96.7969 24.875C96.6719 25.5208 96.6094 26.3229 96.6094 27.2812ZM112.086 30.4922H110.539V33H108.727V30.4922H103.531V29.1016L108.75 21.5469H110.539V28.9688H112.086V30.4922ZM108.727 28.9688V26.1328C108.727 25.8984 108.729 25.6615 108.734 25.4219C108.745 25.1771 108.755 24.9427 108.766 24.7188C108.776 24.4948 108.786 24.2891 108.797 24.1016C108.807 23.9089 108.815 23.75 108.82 23.625H108.758C108.659 23.8333 108.549 24.0469 108.43 24.2656C108.31 24.4792 108.182 24.6875 108.047 24.8906L105.234 28.9688H108.727ZM118.492 21.5781L114.234 33H112.516L116.773 21.5781H118.492ZM127.078 33H119.344V31.6172L122.305 28.6172C122.878 28.0339 123.349 27.5312 123.719 27.1094C124.089 26.6823 124.362 26.2786 124.539 25.8984C124.721 25.5182 124.812 25.1042 124.812 24.6562C124.812 24.1042 124.654 23.6875 124.336 23.4062C124.018 23.1198 123.599 22.9766 123.078 22.9766C122.583 22.9766 122.125 23.0755 121.703 23.2734C121.286 23.4661 120.854 23.7422 120.406 24.1016L119.398 22.8906C119.716 22.6198 120.055 22.3724 120.414 22.1484C120.779 21.9245 121.185 21.7474 121.633 21.6172C122.081 21.4818 122.591 21.4141 123.164 21.4141C123.888 21.4141 124.513 21.5443 125.039 21.8047C125.565 22.0599 125.969 22.4167 126.25 22.875C126.536 23.3333 126.68 23.8672 126.68 24.4766C126.68 25.0911 126.557 25.6589 126.312 26.1797C126.068 26.7005 125.719 27.2161 125.266 27.7266C124.812 28.2318 124.273 28.7812 123.648 29.375L121.672 31.3047V31.3906H127.078V33ZM136.234 27.2812C136.234 28.2031 136.161 29.0286 136.016 29.7578C135.875 30.4818 135.651 31.0964 135.344 31.6016C135.036 32.1068 134.635 32.4922 134.141 32.7578C133.646 33.0234 133.047 33.1562 132.344 33.1562C131.464 33.1562 130.737 32.9245 130.164 32.4609C129.591 31.9922 129.167 31.3203 128.891 30.4453C128.615 29.5651 128.477 28.5104 128.477 27.2812C128.477 26.0521 128.602 25 128.852 24.125C129.107 23.2448 129.518 22.5703 130.086 22.1016C130.654 21.6328 131.406 21.3984 132.344 21.3984C133.229 21.3984 133.958 21.6328 134.531 22.1016C135.109 22.5651 135.536 23.237 135.812 24.1172C136.094 24.9922 136.234 26.0469 136.234 27.2812ZM130.328 27.2812C130.328 28.2448 130.391 29.0495 130.516 29.6953C130.646 30.3411 130.859 30.8255 131.156 31.1484C131.453 31.4661 131.849 31.625 132.344 31.625C132.839 31.625 133.234 31.4661 133.531 31.1484C133.828 30.8307 134.042 30.349 134.172 29.7031C134.307 29.0573 134.375 28.25 134.375 27.2812C134.375 26.3229 134.31 25.5208 134.18 24.875C134.049 24.2292 133.836 23.7448 133.539 23.4219C133.242 23.0938 132.844 22.9297 132.344 22.9297C131.844 22.9297 131.445 23.0938 131.148 23.4219C130.857 23.7448 130.646 24.2292 130.516 24.875C130.391 25.5208 130.328 26.3229 130.328 27.2812ZM145.391 33H137.656V31.6172L140.617 28.6172C141.19 28.0339 141.661 27.5312 142.031 27.1094C142.401 26.6823 142.674 26.2786 142.852 25.8984C143.034 25.5182 143.125 25.1042 143.125 24.6562C143.125 24.1042 142.966 23.6875 142.648 23.4062C142.331 23.1198 141.911 22.9766 141.391 22.9766C140.896 22.9766 140.438 23.0755 140.016 23.2734C139.599 23.4661 139.167 23.7422 138.719 24.1016L137.711 22.8906C138.029 22.6198 138.367 22.3724 138.727 22.1484C139.091 21.9245 139.497 21.7474 139.945 21.6172C140.393 21.4818 140.904 21.4141 141.477 21.4141C142.201 21.4141 142.826 21.5443 143.352 21.8047C143.878 22.0599 144.281 22.4167 144.562 22.875C144.849 23.3333 144.992 23.8672 144.992 24.4766C144.992 25.0911 144.87 25.6589 144.625 26.1797C144.38 26.7005 144.031 27.2161 143.578 27.7266C143.125 28.2318 142.586 28.7812 141.961 29.375L139.984 31.3047V31.3906H145.391V33ZM154.109 24.1875C154.109 24.7031 154.005 25.151 153.797 25.5312C153.589 25.9115 153.302 26.224 152.938 26.4688C152.578 26.7083 152.161 26.8802 151.688 26.9844V27.0391C152.599 27.1536 153.286 27.4401 153.75 27.8984C154.219 28.3568 154.453 28.9635 154.453 29.7188C154.453 30.3802 154.294 30.9714 153.977 31.4922C153.659 32.0078 153.172 32.4141 152.516 32.7109C151.859 33.0078 151.016 33.1562 149.984 33.1562C149.365 33.1562 148.789 33.1068 148.258 33.0078C147.732 32.9089 147.232 32.75 146.758 32.5312V30.8984C147.242 31.138 147.758 31.3229 148.305 31.4531C148.852 31.5833 149.37 31.6484 149.859 31.6484C150.812 31.6484 151.492 31.4714 151.898 31.1172C152.305 30.7578 152.508 30.263 152.508 29.6328C152.508 29.2266 152.401 28.8932 152.188 28.6328C151.979 28.3724 151.654 28.1771 151.211 28.0469C150.773 27.9167 150.208 27.8516 149.516 27.8516H148.508V26.375H149.523C150.185 26.375 150.716 26.2969 151.117 26.1406C151.518 25.9792 151.807 25.7578 151.984 25.4766C152.167 25.1953 152.258 24.8672 152.258 24.4922C152.258 24.0026 152.099 23.6224 151.781 23.3516C151.464 23.0755 150.992 22.9375 150.367 22.9375C149.982 22.9375 149.63 22.9818 149.312 23.0703C149 23.1589 148.711 23.2708 148.445 23.4062C148.18 23.5417 147.927 23.6875 147.688 23.8438L146.805 22.5703C147.237 22.2474 147.753 21.974 148.352 21.75C148.951 21.526 149.648 21.4141 150.445 21.4141C151.617 21.4141 152.521 21.6667 153.156 22.1719C153.792 22.6719 154.109 23.3438 154.109 24.1875Z" fill="white"/>
<path d="M232 22.502V18.5645C232 17.9843 232.23 17.4279 232.641 17.0177C233.051 16.6074 233.607 16.377 234.187 16.377H238.338C238.77 16.377 239.192 16.5048 239.551 16.7445L241.074 17.7595C241.433 17.9991 241.855 18.1269 242.287 18.127H250.812C251.393 18.127 251.949 18.3574 252.359 18.7677C252.77 19.1779 253 19.7343 253 20.3145V22.502" stroke="white" stroke-width="1.5" stroke-linecap="round" stroke-linejoin="round"/>
<path d="M254.745 24.3924L253.858 33.4404C253.858 34.0199 253.628 34.5757 253.218 34.9859C252.809 35.396 252.253 35.6269 251.674 35.6279H233.326C232.747 35.6269 232.191 35.396 231.782 34.9859C231.373 34.5757 231.143 34.0199 231.143 33.4404L230.256 24.3924C230.236 24.1516 230.267 23.9094 230.346 23.6811C230.425 23.4528 230.55 23.2433 230.714 23.0658C230.878 22.8883 231.077 22.7467 231.298 22.6498C231.52 22.5529 231.759 22.5029 232 22.5029H253.006C253.247 22.5037 253.485 22.5542 253.706 22.6514C253.926 22.7486 254.125 22.8904 254.288 23.0678C254.451 23.2452 254.576 23.4544 254.655 23.6824C254.733 23.9103 254.764 24.152 254.745 24.3924V24.3924Z" stroke="white" stroke-width="1.5" stroke-linecap="round" stroke-linejoin="round"/>
<path d="M279.273 27.1797C279.273 28.4661 279.034 29.5417 278.555 30.4062C278.076 31.2656 277.38 31.9141 276.469 32.3516C275.557 32.7839 274.458 33 273.172 33H270V21.5781H273.516C274.698 21.5781 275.719 21.7917 276.578 22.2188C277.438 22.6406 278.102 23.2682 278.57 24.1016C279.039 24.9297 279.273 25.9557 279.273 27.1797ZM277.32 27.2344C277.32 26.2969 277.172 25.526 276.875 24.9219C276.583 24.3177 276.151 23.8698 275.578 23.5781C275.01 23.2812 274.31 23.1328 273.477 23.1328H271.875V31.4297H273.203C274.583 31.4297 275.615 31.0781 276.297 30.375C276.979 29.6719 277.32 28.625 277.32 27.2344ZM284.992 24.1875C285.763 24.1875 286.424 24.3464 286.977 24.6641C287.529 24.9818 287.953 25.4323 288.25 26.0156C288.547 26.599 288.695 27.2969 288.695 28.1094V29.0938H282.922C282.943 29.9323 283.167 30.5781 283.594 31.0312C284.026 31.4844 284.63 31.7109 285.406 31.7109C285.958 31.7109 286.453 31.6589 286.891 31.5547C287.333 31.4453 287.789 31.2865 288.258 31.0781V32.5703C287.826 32.7734 287.385 32.9219 286.938 33.0156C286.49 33.1094 285.953 33.1562 285.328 33.1562C284.479 33.1562 283.732 32.9922 283.086 32.6641C282.445 32.3307 281.943 31.8359 281.578 31.1797C281.219 30.5234 281.039 29.7083 281.039 28.7344C281.039 27.7656 281.203 26.9427 281.531 26.2656C281.859 25.5885 282.32 25.0729 282.914 24.7188C283.508 24.3646 284.201 24.1875 284.992 24.1875ZM284.992 25.5703C284.414 25.5703 283.945 25.7578 283.586 26.1328C283.232 26.5078 283.023 27.0573 282.961 27.7812H286.898C286.893 27.349 286.82 26.9661 286.68 26.6328C286.544 26.2995 286.336 26.0391 286.055 25.8516C285.779 25.6641 285.424 25.5703 284.992 25.5703ZM295.148 24.1875C295.294 24.1875 295.453 24.1953 295.625 24.2109C295.797 24.2266 295.945 24.2474 296.07 24.2734L295.898 25.9922C295.789 25.9609 295.654 25.9375 295.492 25.9219C295.336 25.9062 295.195 25.8984 295.07 25.8984C294.742 25.8984 294.43 25.9531 294.133 26.0625C293.836 26.1667 293.573 26.3281 293.344 26.5469C293.115 26.7604 292.935 27.0286 292.805 27.3516C292.674 27.6745 292.609 28.0495 292.609 28.4766V33H290.766V24.3516H292.203L292.453 25.875H292.539C292.711 25.5677 292.924 25.2865 293.18 25.0312C293.435 24.776 293.727 24.5729 294.055 24.4219C294.388 24.2656 294.753 24.1875 295.148 24.1875ZM301.117 24.1875C301.888 24.1875 302.549 24.3464 303.102 24.6641C303.654 24.9818 304.078 25.4323 304.375 26.0156C304.672 26.599 304.82 27.2969 304.82 28.1094V29.0938H299.047C299.068 29.9323 299.292 30.5781 299.719 31.0312C300.151 31.4844 300.755 31.7109 301.531 31.7109C302.083 31.7109 302.578 31.6589 303.016 31.5547C303.458 31.4453 303.914 31.2865 304.383 31.0781V32.5703C303.951 32.7734 303.51 32.9219 303.062 33.0156C302.615 33.1094 302.078 33.1562 301.453 33.1562C300.604 33.1562 299.857 32.9922 299.211 32.6641C298.57 32.3307 298.068 31.8359 297.703 31.1797C297.344 30.5234 297.164 29.7083 297.164 28.7344C297.164 27.7656 297.328 26.9427 297.656 26.2656C297.984 25.5885 298.445 25.0729 299.039 24.7188C299.633 24.3646 300.326 24.1875 301.117 24.1875ZM301.117 25.5703C300.539 25.5703 300.07 25.7578 299.711 26.1328C299.357 26.5078 299.148 27.0573 299.086 27.7812H303.023C303.018 27.349 302.945 26.9661 302.805 26.6328C302.669 26.2995 302.461 26.0391 302.18 25.8516C301.904 25.6641 301.549 25.5703 301.117 25.5703ZM310.375 33.1562C309.557 33.1562 308.849 32.9974 308.25 32.6797C307.651 32.362 307.19 31.875 306.867 31.2188C306.544 30.5625 306.383 29.7292 306.383 28.7188C306.383 27.6667 306.56 26.8073 306.914 26.1406C307.268 25.474 307.758 24.9818 308.383 24.6641C309.013 24.3464 309.734 24.1875 310.547 24.1875C311.062 24.1875 311.529 24.2396 311.945 24.3438C312.367 24.4427 312.724 24.5651 313.016 24.7109L312.469 26.1797C312.151 26.0495 311.826 25.9401 311.492 25.8516C311.159 25.763 310.839 25.7188 310.531 25.7188C310.026 25.7188 309.604 25.8307 309.266 26.0547C308.932 26.2786 308.682 26.612 308.516 27.0547C308.354 27.4974 308.273 28.0469 308.273 28.7031C308.273 29.3385 308.357 29.875 308.523 30.3125C308.69 30.7448 308.938 31.0729 309.266 31.2969C309.594 31.5156 309.997 31.625 310.477 31.625C310.951 31.625 311.375 31.5677 311.75 31.4531C312.125 31.3385 312.479 31.1901 312.812 31.0078V32.6016C312.484 32.7891 312.133 32.9271 311.758 33.0156C311.383 33.1094 310.922 33.1562 310.375 33.1562ZM316.68 20.8438V23.8984C316.68 24.2161 316.669 24.526 316.648 24.8281C316.633 25.1302 316.615 25.3646 316.594 25.5312H316.695C316.878 25.2292 317.102 24.9818 317.367 24.7891C317.633 24.5911 317.93 24.4427 318.258 24.3438C318.591 24.2448 318.945 24.1953 319.32 24.1953C319.982 24.1953 320.544 24.3073 321.008 24.5312C321.471 24.75 321.826 25.0911 322.07 25.5547C322.32 26.0182 322.445 26.6198 322.445 27.3594V33H320.609V27.7031C320.609 27.0312 320.471 26.5286 320.195 26.1953C319.919 25.8568 319.492 25.6875 318.914 25.6875C318.357 25.6875 317.914 25.8047 317.586 26.0391C317.263 26.2682 317.031 26.6094 316.891 27.0625C316.75 27.5104 316.68 28.0573 316.68 28.7031V33H314.844V20.8438H316.68ZM332.672 28.6562C332.672 29.375 332.578 30.013 332.391 30.5703C332.203 31.1276 331.93 31.599 331.57 31.9844C331.211 32.3646 330.779 32.6562 330.273 32.8594C329.768 33.0573 329.198 33.1562 328.562 33.1562C327.969 33.1562 327.424 33.0573 326.93 32.8594C326.435 32.6562 326.005 32.3646 325.641 31.9844C325.281 31.599 325.003 31.1276 324.805 30.5703C324.607 30.013 324.508 29.375 324.508 28.6562C324.508 27.7031 324.672 26.8958 325 26.2344C325.333 25.5677 325.807 25.0599 326.422 24.7109C327.036 24.362 327.768 24.1875 328.617 24.1875C329.414 24.1875 330.117 24.362 330.727 24.7109C331.336 25.0599 331.812 25.5677 332.156 26.2344C332.5 26.901 332.672 27.7083 332.672 28.6562ZM326.398 28.6562C326.398 29.2865 326.474 29.8255 326.625 30.2734C326.781 30.7214 327.021 31.0651 327.344 31.3047C327.667 31.5391 328.083 31.6562 328.594 31.6562C329.104 31.6562 329.521 31.5391 329.844 31.3047C330.167 31.0651 330.404 30.7214 330.555 30.2734C330.706 29.8255 330.781 29.2865 330.781 28.6562C330.781 28.026 330.706 27.4922 330.555 27.0547C330.404 26.612 330.167 26.276 329.844 26.0469C329.521 25.8125 329.102 25.6953 328.586 25.6953C327.826 25.6953 327.271 25.9505 326.922 26.4609C326.573 26.9714 326.398 27.7031 326.398 28.6562ZM340.594 30.5312C340.594 31.099 340.456 31.5781 340.18 31.9688C339.904 32.3594 339.5 32.6562 338.969 32.8594C338.443 33.0573 337.797 33.1562 337.031 33.1562C336.427 33.1562 335.906 33.112 335.469 33.0234C335.036 32.9401 334.628 32.8099 334.242 32.6328V31.0469C334.654 31.2396 335.115 31.4062 335.625 31.5469C336.141 31.6875 336.628 31.7578 337.086 31.7578C337.69 31.7578 338.125 31.6641 338.391 31.4766C338.656 31.2839 338.789 31.0286 338.789 30.7109C338.789 30.5234 338.734 30.3568 338.625 30.2109C338.521 30.0599 338.323 29.9062 338.031 29.75C337.745 29.5885 337.323 29.3958 336.766 29.1719C336.219 28.9531 335.758 28.7344 335.383 28.5156C335.008 28.2969 334.724 28.0339 334.531 27.7266C334.339 27.4141 334.242 27.0156 334.242 26.5312C334.242 25.7656 334.544 25.1849 335.148 24.7891C335.758 24.388 336.562 24.1875 337.562 24.1875C338.094 24.1875 338.594 24.2422 339.062 24.3516C339.536 24.4557 340 24.6094 340.453 24.8125L339.875 26.1953C339.484 26.0234 339.091 25.8828 338.695 25.7734C338.305 25.6589 337.906 25.6016 337.5 25.6016C337.026 25.6016 336.664 25.6745 336.414 25.8203C336.169 25.9661 336.047 26.1745 336.047 26.4453C336.047 26.6484 336.107 26.8203 336.227 26.9609C336.346 27.1016 336.552 27.2422 336.844 27.3828C337.141 27.5234 337.552 27.6979 338.078 27.9062C338.594 28.1042 339.039 28.3125 339.414 28.5312C339.794 28.7448 340.086 29.0078 340.289 29.3203C340.492 29.6328 340.594 30.0365 340.594 30.5312Z" fill="white"/>
</svg>
