<svg width="29" height="23" viewBox="0 0 29 23" fill="none" xmlns="http://www.w3.org/2000/svg">
<path d="M2.92863 7.6269V3.28765C2.92863 2.64829 3.18261 2.03512 3.6347 1.58303C4.0868 1.13094 4.69997 0.876953 5.33932 0.876953H9.91301C10.389 0.876965 10.8543 1.01789 11.2503 1.28195L12.9282 2.40051C13.3242 2.66458 13.7895 2.8055 14.2655 2.80551H23.6606C24.3 2.80551 24.9131 3.05949 25.3652 3.51159C25.8173 3.96368 26.0713 4.57685 26.0713 5.2162V7.6269M27.9939 9.7103L27.0163 19.6815C27.0163 20.3202 26.7629 20.9327 26.3117 21.3847C25.8606 21.8366 25.2485 22.0911 24.6099 22.0922H4.39015C3.75152 22.0911 3.13944 21.8366 2.68825 21.3847C2.23707 20.9327 1.98367 20.3202 1.98367 19.6815L1.00613 9.7103C0.984919 9.44492 1.01888 9.17803 1.10587 8.92642C1.19286 8.67481 1.33101 8.44394 1.5116 8.24834C1.6922 8.05274 1.91134 7.89665 2.15522 7.7899C2.3991 7.68315 2.66244 7.62804 2.92866 7.62806H26.0774C26.3431 7.62887 26.6058 7.68459 26.8489 7.79171C27.0921 7.89883 27.3105 8.05504 27.4904 8.25055C27.6704 8.44606 27.808 8.67665 27.8946 8.92784C27.9813 9.17904 28.015 9.44543 27.9939 9.7103Z" stroke="#345A47" stroke-width="1.65305" stroke-linecap="round" stroke-linejoin="round"/>
</svg>
