<svg width="26" height="25" viewBox="0 0 26 25" fill="none" xmlns="http://www.w3.org/2000/svg">
<path d="M1 8.65638H25M6.33333 1V3.55213M19.6667 1V3.55213M5 12.4846H7.66667M11.6667 12.4846H14.3333M18.3333 12.4846H21M5 16.3128H7.66667M11.6667 16.3128H14.3333M18.3333 16.3128H21M5 20.1409H7.66667M11.6667 20.1409H14.3333M18.3333 20.1409H21M5.26667 23.9691H20.7333C22.2268 23.9691 22.9736 23.9691 23.544 23.6909C24.0457 23.4463 24.4537 23.0559 24.7093 22.5757C25 22.0298 25 21.315 25 19.8857V7.63553C25 6.20619 25 5.49154 24.7093 4.94561C24.4537 4.46539 24.0457 4.07497 23.544 3.83029C22.9736 3.55213 22.2268 3.55213 20.7333 3.55213H5.26667C3.7732 3.55213 3.02645 3.55213 2.45603 3.83029C1.95425 4.07497 1.54631 4.46539 1.29065 4.94561C1 5.49154 1 6.20619 1 7.63553V19.8857C1 21.315 1 22.0298 1.29065 22.5757C1.54631 23.0559 1.95425 23.4463 2.45603 23.6909C3.02645 23.9691 3.77319 23.9691 5.26667 23.9691Z" stroke="#345A47" stroke-width="2" stroke-linecap="round"/>
</svg>
