<svg width="88" height="82" viewBox="0 0 88 82" fill="none" xmlns="http://www.w3.org/2000/svg">
<path d="M79.3733 8.6207C79.3441 8.48926 79.2752 8.36834 79.1747 8.27216C79.0742 8.17598 78.9463 8.10853 78.8061 8.07777C69.4596 5.94769 47.8686 13.5375 36.1588 24.4409C34.0718 26.3696 32.1689 28.4638 30.4714 30.6998C26.8621 30.3955 23.2527 30.6518 20.1796 31.901C11.5016 35.4565 8.97676 44.7423 8.27207 48.7286C8.23389 48.9471 8.2502 49.1707 8.31973 49.3823C8.38926 49.594 8.51015 49.7878 8.67303 49.9489C8.83591 50.1099 9.0364 50.2339 9.25896 50.3111C9.48152 50.3884 9.72019 50.4168 9.95645 50.3943L23.8904 48.9689C23.9 49.9482 23.9631 50.9264 24.0794 51.8997C24.1521 52.5725 24.4743 53.2005 24.9904 53.6759L30.3855 58.7032C30.896 59.1844 31.5707 59.4846 32.2933 59.552C33.3316 59.6599 34.3751 59.7187 35.4197 59.7282L33.8918 72.7008C33.8679 72.9207 33.8986 73.1427 33.9815 73.3498C34.0645 73.5568 34.1974 73.7433 34.37 73.8949C34.5426 74.0464 34.7503 74.1589 34.977 74.2238C35.2037 74.2886 35.4434 74.304 35.6775 74.2687C39.9572 73.6281 49.9432 71.2754 53.7364 63.1907C55.0771 60.3239 55.3521 56.9783 55.0427 53.631C57.4494 52.0508 59.7032 50.2775 61.7785 48.3314C73.5313 37.4408 81.6249 17.764 79.3733 8.6207ZM51.3319 34.2233C50.3054 33.2669 49.6062 32.0484 49.3229 30.7218C49.0396 29.3952 49.1848 28.0201 49.7402 26.7704C50.2957 25.5207 51.2363 24.4525 52.4433 23.701C53.6502 22.9495 55.0692 22.5484 56.5208 22.5484C57.9724 22.5484 59.3914 22.9495 60.5984 23.701C61.8053 24.4525 62.746 25.5207 63.3014 26.7704C63.8568 28.0201 64.0021 29.3952 63.7187 30.7218C63.4354 32.0484 62.7363 33.2669 61.7097 34.2233C61.0288 34.8591 60.22 35.3635 59.3296 35.7077C58.4393 36.0519 57.4848 36.229 56.5208 36.229C55.5569 36.229 54.6024 36.0519 53.712 35.7077C52.8216 35.3635 52.0128 34.8591 51.3319 34.2233V34.2233Z" stroke="#FF5220" stroke-width="4" stroke-linecap="round" stroke-linejoin="round"/>
<path d="M18.8444 56.3809C17.131 56.5768 15.537 57.3006 14.3155 58.4373C11.287 61.2688 11 71.7559 11 71.7559C11 71.7559 22.2612 71.4884 25.2914 68.6632C26.5161 67.5268 27.2942 66.039 27.5 64.4399" stroke="#FF5220" stroke-width="4" stroke-linecap="round" stroke-linejoin="round"/>
</svg>
