<svg width="88" height="82" viewBox="0 0 88 82" fill="none" xmlns="http://www.w3.org/2000/svg">
<path d="M79.3737 8.62021C79.3445 8.48878 79.2756 8.36785 79.1751 8.27167C79.0746 8.17549 78.9467 8.10805 78.8065 8.07728C69.46 5.9472 47.869 13.537 36.1592 24.4404C34.0722 26.3691 32.1693 28.4633 30.4718 30.6993C26.8625 30.3951 23.2531 30.6513 20.18 31.9005C11.502 35.456 8.97716 44.7418 8.27247 48.7281C8.23429 48.9466 8.2506 49.1703 8.32013 49.3819C8.38966 49.5935 8.51055 49.7873 8.67343 49.9484C8.8363 50.1094 9.03679 50.2334 9.25936 50.3106C9.48192 50.3879 9.72058 50.4163 9.95684 50.3938L23.8907 48.9684C23.9004 49.9477 23.9635 50.9259 24.0798 51.8992C24.1525 52.572 24.4747 53.2001 24.9907 53.6754L30.3859 58.7027C30.8964 59.1839 31.5711 59.4841 32.2937 59.5515C33.332 59.6594 34.3755 59.7182 35.4201 59.7277L33.8922 72.7003C33.8683 72.9202 33.899 73.1422 33.9819 73.3493C34.0649 73.5563 34.1978 73.7428 34.3704 73.8944C34.543 74.0459 34.7507 74.1585 34.9774 74.2233C35.2041 74.2881 35.4438 74.3035 35.6779 74.2683C39.9576 73.6276 49.9436 71.2749 53.7368 63.1902C55.0775 60.3235 55.3525 56.9778 55.0431 53.6305C57.4498 52.0503 59.7036 50.277 61.7789 48.331C73.5317 37.4403 81.6253 17.7635 79.3737 8.62021ZM51.3323 34.2228C50.3058 33.2664 49.6066 32.0479 49.3233 30.7213C49.04 29.3947 49.1852 28.0196 49.7406 26.7699C50.2961 25.5202 51.2367 24.452 52.4437 23.7005C53.6506 22.949 55.0696 22.5479 56.5212 22.5479C57.9728 22.5479 59.3918 22.949 60.5988 23.7005C61.8057 24.452 62.7464 25.5202 63.3018 26.7699C63.8572 28.0196 64.0025 29.3947 63.7191 30.7213C63.4358 32.0479 62.7367 33.2664 61.7101 34.2228C61.0292 34.8586 60.2204 35.363 59.33 35.7072C58.4397 36.0514 57.4852 36.2286 56.5212 36.2286C55.5573 36.2286 54.6028 36.0514 53.7124 35.7072C52.822 35.363 52.0132 34.8586 51.3323 34.2228V34.2228Z" stroke="#43A047" stroke-width="4" stroke-linecap="round" stroke-linejoin="round"/>
<path d="M18.8448 56.3812C17.1314 56.5772 15.5374 57.3009 14.3159 58.4376C11.2874 61.2691 11.0004 71.7562 11.0004 71.7562C11.0004 71.7562 22.2616 71.4887 25.2918 68.6635C26.5165 67.5271 27.2946 66.0393 27.5004 64.4402" stroke="#43A047" stroke-width="4" stroke-linecap="round" stroke-linejoin="round"/>
</svg>
