<svg width="89" height="82" viewBox="0 0 89 82" fill="none" xmlns="http://www.w3.org/2000/svg">
<path d="M79.8733 8.6207C79.8441 8.48926 79.7752 8.36834 79.6747 8.27216C79.5742 8.17598 79.4463 8.10853 79.3061 8.07777C69.9596 5.94769 48.3686 13.5375 36.6588 24.4409C34.5718 26.3696 32.6689 28.4638 30.9714 30.6998C27.3621 30.3955 23.7527 30.6518 20.6796 31.901C12.0016 35.4565 9.47676 44.7423 8.77207 48.7286C8.73389 48.9471 8.7502 49.1707 8.81973 49.3823C8.88926 49.594 9.01015 49.7878 9.17303 49.9489C9.33591 50.1099 9.5364 50.2339 9.75896 50.3111C9.98152 50.3884 10.2202 50.4168 10.4564 50.3943L24.3904 48.9689C24.4 49.9482 24.4631 50.9264 24.5794 51.8997C24.6521 52.5725 24.9743 53.2005 25.4904 53.6759L30.8855 58.7032C31.396 59.1844 32.0707 59.4846 32.7933 59.552C33.8316 59.6599 34.8751 59.7187 35.9197 59.7282L34.3918 72.7008C34.3679 72.9207 34.3986 73.1427 34.4815 73.3498C34.5645 73.5568 34.6974 73.7433 34.87 73.8949C35.0426 74.0464 35.2503 74.1589 35.477 74.2238C35.7037 74.2886 35.9434 74.304 36.1775 74.2687C40.4572 73.6281 50.4432 71.2754 54.2364 63.1907C55.5771 60.3239 55.8521 56.9783 55.5427 53.631C57.9494 52.0508 60.2032 50.2775 62.2785 48.3314C74.0313 37.4408 82.1249 17.764 79.8733 8.6207ZM51.8319 34.2233C50.8054 33.2669 50.1062 32.0484 49.8229 30.7218C49.5396 29.3952 49.6848 28.0201 50.2402 26.7704C50.7957 25.5207 51.7363 24.4525 52.9433 23.701C54.1502 22.9495 55.5692 22.5484 57.0208 22.5484C58.4724 22.5484 59.8914 22.9495 61.0984 23.701C62.3053 24.4525 63.246 25.5207 63.8014 26.7704C64.3568 28.0201 64.5021 29.3952 64.2187 30.7218C63.9354 32.0484 63.2363 33.2669 62.2097 34.2233C61.5288 34.8591 60.72 35.3635 59.8296 35.7077C58.9393 36.0519 57.9848 36.229 57.0208 36.229C56.0569 36.229 55.1024 36.0519 54.212 35.7077C53.3216 35.3635 52.5128 34.8591 51.8319 34.2233V34.2233Z" stroke="#02311A" stroke-width="1.5" stroke-linecap="round" stroke-linejoin="round"/>
<path d="M19.3444 56.3809C17.631 56.5768 16.037 57.3006 14.8155 58.4373C11.787 61.2688 11.5 71.7559 11.5 71.7559C11.5 71.7559 22.7612 71.4884 25.7914 68.6632C27.0161 67.5268 27.7942 66.039 28 64.4399" stroke="#02311A" stroke-width="1.5" stroke-linecap="round" stroke-linejoin="round"/>
</svg>
