<svg width="85" height="84" viewBox="0 0 85 84" fill="none" xmlns="http://www.w3.org/2000/svg">
<path d="M42.4444 18.3672C29.6573 18.3672 16.5405 25.768 6.21445 40.5698C5.91971 40.9969 5.75819 41.5018 5.7503 42.0207C5.74242 42.5396 5.88852 43.0493 6.17016 43.4852C14.1042 55.9047 27.0455 65.6172 42.4444 65.6172C57.6759 65.6172 70.883 55.8751 78.8318 43.4277C79.1068 43.0004 79.2531 42.5029 79.2531 41.9946C79.2531 41.4864 79.1068 40.9889 78.8318 40.5616C70.8649 28.2569 57.5611 18.3672 42.4444 18.3672Z" stroke="#02311A" stroke-width="1.5" stroke-linecap="round" stroke-linejoin="round"/>
<path d="M42.5 55.123C49.7487 55.123 55.625 49.2468 55.625 41.998C55.625 34.7493 49.7487 28.873 42.5 28.873C35.2513 28.873 29.375 34.7493 29.375 41.998C29.375 49.2468 35.2513 55.123 42.5 55.123Z" stroke="#02311A" stroke-width="1.5" stroke-miterlimit="10"/>
</svg>
