<svg width="84" height="84" viewBox="0 0 84 84" fill="none" xmlns="http://www.w3.org/2000/svg">
<path d="M41.9442 18.3664C29.1572 18.3664 16.0404 25.7673 5.71432 40.569C5.41957 40.9961 5.25805 41.501 5.25017 42.0199C5.24228 42.5389 5.38839 43.0485 5.67002 43.4844C13.6041 55.9039 26.5453 65.6164 41.9442 65.6164C57.1758 65.6164 70.3828 55.8744 78.3317 43.4269C78.6067 42.9996 78.753 42.5021 78.753 41.9939C78.753 41.4856 78.6067 40.9881 78.3317 40.5608C70.3648 28.2561 57.061 18.3664 41.9442 18.3664Z" stroke="#43A047" stroke-width="4" stroke-linecap="round" stroke-linejoin="round"/>
<path d="M42.0003 55.1227C49.249 55.1227 55.1253 49.2465 55.1253 41.9977C55.1253 34.749 49.249 28.8727 42.0003 28.8727C34.7515 28.8727 28.8753 34.749 28.8753 41.9977C28.8753 49.2465 34.7515 55.1227 42.0003 55.1227Z" stroke="#43A047" stroke-width="4" stroke-miterlimit="10"/>
</svg>
