<svg width="84" height="84" viewBox="0 0 84 84" fill="none" xmlns="http://www.w3.org/2000/svg">
<path d="M41.9444 18.3662C29.1573 18.3662 16.0405 25.7671 5.71445 40.5688C5.41971 40.9959 5.25819 41.5009 5.2503 42.0198C5.24242 42.5387 5.38852 43.0483 5.67016 43.4842C13.6042 55.9037 26.5455 65.6162 41.9444 65.6162C57.1759 65.6162 70.383 55.8742 78.3318 43.4268C78.6068 42.9994 78.7531 42.5019 78.7531 41.9937C78.7531 41.4854 78.6068 40.9879 78.3318 40.5606C70.3649 28.2559 57.0611 18.3662 41.9444 18.3662Z" stroke="#FF5220" stroke-width="4" stroke-linecap="round" stroke-linejoin="round"/>
<path d="M42 55.123C49.2487 55.123 55.125 49.2468 55.125 41.998C55.125 34.7493 49.2487 28.873 42 28.873C34.7513 28.873 28.875 34.7493 28.875 41.998C28.875 49.2468 34.7513 55.123 42 55.123Z" stroke="#FF5220" stroke-width="4" stroke-miterlimit="10"/>
</svg>
