<svg width="84" height="84" viewBox="0 0 84 84" fill="none" xmlns="http://www.w3.org/2000/svg">
<path d="M13.1245 76.1365V11.1907C13.1253 10.9611 13.1864 10.7357 13.3015 10.5371C13.4167 10.3384 13.5819 10.1735 13.7808 10.0587C15.0621 9.30726 18.5254 7.88647 26.2495 7.88647C36.7495 7.88647 50.0386 15.7615 57.7495 15.7615C62.103 15.7502 66.4106 14.8706 70.4201 13.1742C70.47 13.1534 70.5243 13.1452 70.5781 13.1505C70.6319 13.1557 70.6836 13.1741 70.7286 13.2042C70.7736 13.2342 70.8105 13.2749 70.8359 13.3226C70.8614 13.3704 70.8746 13.4236 70.8745 13.4777V49.4665C70.8741 49.5935 70.8369 49.7177 70.7673 49.824C70.6977 49.9303 70.5987 50.0142 70.4824 50.0653C69.1305 50.6576 64.3661 52.5115 57.7495 52.5115C49.8745 52.5115 36.7495 47.2615 26.2495 47.2615C15.7495 47.2615 13.1245 49.8865 13.1245 49.8865" stroke="#43A047" stroke-width="4" stroke-miterlimit="10" stroke-linecap="round"/>
</svg>
