<svg width="84" height="84" viewBox="0 0 84 84" fill="none" xmlns="http://www.w3.org/2000/svg">
<path d="M13.125 76.1367V11.1909C13.1258 10.9613 13.1868 10.736 13.302 10.5373C13.4172 10.3387 13.5824 10.1737 13.7812 10.0589C15.0626 9.3075 18.5259 7.88672 26.25 7.88672C36.75 7.88672 50.0391 15.7617 57.75 15.7617C62.1035 15.7504 66.4111 14.8708 70.4205 13.1745C70.4705 13.1536 70.5248 13.1455 70.5786 13.1507C70.6324 13.1559 70.6841 13.1744 70.7291 13.2044C70.7741 13.2345 70.8109 13.2752 70.8364 13.3229C70.8618 13.3706 70.8751 13.4239 70.875 13.478V49.4667C70.8746 49.5938 70.8374 49.718 70.7678 49.8243C70.6982 49.9306 70.5992 50.0144 70.4829 50.0655C69.131 50.6578 64.3666 52.5117 57.75 52.5117C49.875 52.5117 36.75 47.2617 26.25 47.2617C15.75 47.2617 13.125 49.8867 13.125 49.8867" stroke="#FF5220" stroke-width="4" stroke-miterlimit="10" stroke-linecap="round"/>
</svg>
