<svg width="85" height="84" viewBox="0 0 85 84" fill="none" xmlns="http://www.w3.org/2000/svg">
<path d="M13.625 76.1367V11.1909C13.6258 10.9613 13.6868 10.736 13.802 10.5373C13.9172 10.3387 14.0824 10.1737 14.2812 10.0589C15.5626 9.3075 19.0259 7.88672 26.75 7.88672C37.25 7.88672 50.5391 15.7617 58.25 15.7617C62.6035 15.7504 66.9111 14.8708 70.9205 13.1745C70.9705 13.1536 71.0248 13.1455 71.0786 13.1507C71.1324 13.1559 71.1841 13.1744 71.2291 13.2044C71.2741 13.2345 71.3109 13.2752 71.3364 13.3229C71.3618 13.3706 71.3751 13.4239 71.375 13.478V49.4667C71.3746 49.5938 71.3374 49.718 71.2678 49.8243C71.1982 49.9306 71.0992 50.0144 70.9829 50.0655C69.631 50.6578 64.8666 52.5117 58.25 52.5117C50.375 52.5117 37.25 47.2617 26.75 47.2617C16.25 47.2617 13.625 49.8867 13.625 49.8867" stroke="#02311A" stroke-width="1.5" stroke-miterlimit="10" stroke-linecap="round"/>
</svg>
