<svg width="24" height="16" viewBox="0 0 24 16" fill="none" xmlns="http://www.w3.org/2000/svg">
<rect width="24" height="16" fill="#CACACA"/>
<g id="Servicios 1 2 " clip-path="url(#clip0_907_1390)">
<rect width="1728" height="4058" transform="translate(-338 -1175)" fill="#F0F2F5"/>
<g id="sitio">
<g id="conoce">
<rect width="1728" height="1424" transform="translate(-338 -456)" fill="white"/>
<g id="Frame 427319195">
<g id="Frame 427319220">
<g id="Frame 427319218">
<g id="compras">
<g id="Frame 427318923">
<g id="Frame 427318918">
<path id="Vector" d="M7.53002 16H7.46997C7.18411 15.991 6.90481 15.9141 6.6563 15.7759C6.40779 15.6377 6.19757 15.4425 6.04388 15.2071C4.09238 12.2185 0.671623 9.44049 0.637847 9.40569C0.277787 9.11429 0.0510938 8.69523 0.00763397 8.24071C-0.0358258 7.78619 0.107508 7.33343 0.406106 6.98204C0.704704 6.63066 1.13411 6.40942 1.59985 6.36701C2.06559 6.3246 2.52952 6.46448 2.88958 6.75589C4.61158 8.18373 6.19569 9.76277 7.62197 11.4732C9.78363 9.09255 14.274 4.6701 21.2843 0.273287C21.479 0.151122 21.6964 0.0675729 21.9242 0.0274098C22.1519 -0.0127534 22.3856 -0.00874393 22.6117 0.0392092C22.8379 0.0871624 23.0522 0.17812 23.2423 0.306889C23.4325 0.435658 23.5948 0.599716 23.72 0.789697C23.8451 0.979678 23.9308 1.19186 23.9719 1.41413C24.0131 1.6364 24.009 1.86441 23.9598 2.08513C23.9107 2.30585 23.8175 2.51496 23.6855 2.70053C23.5536 2.8861 23.3855 3.04449 23.1908 3.16665C13.6772 9.1365 8.99365 15.24 8.94673 15.3023C8.78296 15.5186 8.56947 15.6944 8.32342 15.8156C8.07737 15.9368 7.80563 15.9999 7.53002 16Z" fill="#2FA124"/>
</g>
</g>
<rect x="-46" y="-241" width="550" height="480" rx="14" stroke="#43A047" stroke-width="4"/>
</g>
</g>
</g>
</g>
</g>
</g>
</g>
<defs>
<clipPath id="clip0_907_1390">
<rect width="1728" height="4058" fill="white" transform="translate(-338 -1175)"/>
</clipPath>
</defs>
</svg>
