<svg width="85" height="84" viewBox="0 0 85 84" fill="none" xmlns="http://www.w3.org/2000/svg">
<path d="M60.1872 70.8889C60.1872 77.0253 65.1619 82 71.2983 82C77.4348 82 82.4094 77.0253 82.4094 70.8889C82.4094 64.7524 77.4348 59.7778 71.2983 59.7778M60.1872 70.8889C60.1872 64.7524 65.1619 59.7778 71.2983 59.7778M60.1872 70.8889H24.6316M71.2983 59.7778V24.2222M24.6316 70.8889C24.6316 77.0253 19.657 82 13.5205 82C7.38405 82 2.40942 77.0253 2.40942 70.8889C2.40942 64.7524 7.38405 59.7778 13.5205 59.7778M24.6316 70.8889C24.6316 64.7524 19.657 59.7778 13.5205 59.7778M71.2983 24.2222C65.1619 24.2222 60.1872 19.2476 60.1872 13.1111M71.2983 24.2222C77.4348 24.2222 82.4094 19.2476 82.4094 13.1111C82.4094 6.97462 77.4348 2 71.2983 2C65.1619 2 60.1872 6.97462 60.1872 13.1111M13.5205 59.7778V24.2222M13.5205 24.2222C7.38405 24.2222 2.40942 19.2476 2.40942 13.1111C2.40942 6.97462 7.38405 2 13.5205 2C19.657 2 24.6316 6.97462 24.6316 13.1111M13.5205 24.2222C19.657 24.2222 24.6316 19.2476 24.6316 13.1111M24.6316 13.1111H60.1872" stroke="#43A047" stroke-width="4" stroke-linecap="round" stroke-linejoin="round"/>
</svg>
