<svg width="129" height="185" viewBox="0 0 129 185" fill="none" xmlns="http://www.w3.org/2000/svg">
<path d="M82.1872 92.8889C82.1872 99.0253 87.1619 104 93.2983 104C99.4348 104 104.409 99.0253 104.409 92.8889C104.409 86.7524 99.4348 81.7778 93.2983 81.7778M82.1872 92.8889C82.1872 86.7524 87.1619 81.7778 93.2983 81.7778M82.1872 92.8889H46.6316M93.2983 81.7778V46.2222M46.6316 92.8889C46.6316 99.0253 41.657 104 35.5205 104C29.384 104 24.4094 99.0253 24.4094 92.8889C24.4094 86.7524 29.384 81.7778 35.5205 81.7778M46.6316 92.8889C46.6316 86.7524 41.657 81.7778 35.5205 81.7778M93.2983 46.2222C87.1619 46.2222 82.1872 41.2476 82.1872 35.1111M93.2983 46.2222C99.4348 46.2222 104.409 41.2476 104.409 35.1111C104.409 28.9746 99.4348 24 93.2983 24C87.1619 24 82.1872 28.9746 82.1872 35.1111M35.5205 81.7778V46.2222M35.5205 46.2222C29.384 46.2222 24.4094 41.2476 24.4094 35.1111C24.4094 28.9746 29.384 24 35.5205 24C41.657 24 46.6316 28.9746 46.6316 35.1111M35.5205 46.2222C41.657 46.2222 46.6316 41.2476 46.6316 35.1111M46.6316 35.1111H82.1872" stroke="#43A047" stroke-width="4" stroke-linecap="round" stroke-linejoin="round"/>
<path d="M48.1165 145.41C48.1165 146.73 47.9524 147.934 47.6243 149.02C47.2961 150.098 46.7961 151.027 46.1243 151.809C45.4602 152.59 44.6165 153.191 43.593 153.613C42.5696 154.027 41.3586 154.234 39.9602 154.234C38.5618 154.234 37.3508 154.027 36.3274 153.613C35.304 153.191 34.4563 152.59 33.7844 151.809C33.1204 151.027 32.6243 150.094 32.2961 149.008C31.968 147.922 31.804 146.715 31.804 145.387C31.804 143.613 32.093 142.07 32.6711 140.758C33.2571 139.438 34.1555 138.414 35.3665 137.688C36.5774 136.961 38.1165 136.598 39.9836 136.598C41.843 136.598 43.3704 136.961 44.5657 137.688C45.7688 138.414 46.6594 139.438 47.2375 140.758C47.8235 142.078 48.1165 143.629 48.1165 145.41ZM35.6125 145.41C35.6125 146.605 35.761 147.637 36.0579 148.504C36.3625 149.363 36.8352 150.027 37.4758 150.496C38.1165 150.957 38.9446 151.188 39.9602 151.188C40.9915 151.188 41.8274 150.957 42.468 150.496C43.1086 150.027 43.5735 149.363 43.8625 148.504C44.1594 147.637 44.3079 146.605 44.3079 145.41C44.3079 143.613 43.9719 142.199 43.3 141.168C42.6282 140.137 41.5227 139.621 39.9836 139.621C38.9602 139.621 38.1243 139.855 37.4758 140.324C36.8352 140.785 36.3625 141.449 36.0579 142.316C35.761 143.176 35.6125 144.207 35.6125 145.41ZM56.9055 151.387C57.2961 151.387 57.675 151.348 58.0422 151.27C58.4172 151.191 58.7883 151.094 59.1555 150.977V153.637C58.7727 153.809 58.2961 153.949 57.7258 154.059C57.1633 154.176 56.5461 154.234 55.8743 154.234C55.093 154.234 54.3899 154.109 53.7649 153.859C53.1477 153.602 52.6594 153.16 52.3 152.535C51.9485 151.902 51.7727 151.023 51.7727 149.898V143.582H50.0618V142.07L52.0305 140.875L53.0618 138.109H55.3469V140.898H59.0149V143.582H55.3469V149.898C55.3469 150.398 55.4875 150.773 55.7688 151.023C56.0579 151.266 56.4368 151.387 56.9055 151.387ZM69.1282 140.652C69.3079 140.652 69.5149 140.664 69.7493 140.688C69.9915 140.703 70.1868 140.727 70.3352 140.758L70.0657 144.109C69.9485 144.07 69.7805 144.043 69.5618 144.027C69.3508 144.004 69.1672 143.992 69.011 143.992C68.55 143.992 68.1008 144.051 67.6633 144.168C67.2336 144.285 66.8469 144.477 66.5032 144.742C66.1594 145 65.886 145.344 65.6829 145.773C65.4875 146.195 65.3899 146.715 65.3899 147.332V154H61.8157V140.898H64.5227L65.05 143.102H65.2258C65.4836 142.656 65.804 142.25 66.1868 141.883C66.5774 141.508 67.0188 141.211 67.511 140.992C68.011 140.766 68.55 140.652 69.1282 140.652ZM84.6204 147.426C84.6204 148.52 84.4719 149.488 84.175 150.332C83.886 151.176 83.4602 151.891 82.8977 152.477C82.343 153.055 81.6711 153.492 80.8821 153.789C80.1008 154.086 79.218 154.234 78.2336 154.234C77.3118 154.234 76.4641 154.086 75.6907 153.789C74.925 153.492 74.2571 153.055 73.6868 152.477C73.1243 151.891 72.6868 151.176 72.3743 150.332C72.0696 149.488 71.9172 148.52 71.9172 147.426C71.9172 145.973 72.175 144.742 72.6907 143.734C73.2063 142.727 73.9407 141.961 74.8938 141.438C75.8469 140.914 76.9836 140.652 78.304 140.652C79.5305 140.652 80.6165 140.914 81.5618 141.438C82.5149 141.961 83.261 142.727 83.8 143.734C84.3469 144.742 84.6204 145.973 84.6204 147.426ZM75.5618 147.426C75.5618 148.285 75.6555 149.008 75.843 149.594C76.0305 150.18 76.3235 150.621 76.7219 150.918C77.1204 151.215 77.6399 151.363 78.2805 151.363C78.9133 151.363 79.425 151.215 79.8157 150.918C80.2141 150.621 80.5032 150.18 80.6829 149.594C80.8704 149.008 80.9641 148.285 80.9641 147.426C80.9641 146.559 80.8704 145.84 80.6829 145.27C80.5032 144.691 80.2141 144.258 79.8157 143.969C79.4172 143.68 78.8977 143.535 78.2571 143.535C77.3118 143.535 76.6243 143.859 76.1946 144.508C75.7727 145.156 75.5618 146.129 75.5618 147.426ZM96.7141 150.109C96.7141 151 96.5032 151.754 96.0813 152.371C95.6672 152.98 95.0461 153.445 94.218 153.766C93.3899 154.078 92.3586 154.234 91.1243 154.234C90.2102 154.234 89.425 154.176 88.7688 154.059C88.1204 153.941 87.4641 153.746 86.8 153.473V150.52C87.511 150.84 88.2727 151.105 89.0852 151.316C89.9055 151.52 90.6243 151.621 91.2415 151.621C91.9368 151.621 92.4329 151.52 92.7297 151.316C93.0344 151.105 93.1868 150.832 93.1868 150.496C93.1868 150.277 93.1243 150.082 92.9993 149.91C92.8821 149.73 92.6243 149.531 92.2258 149.312C91.8274 149.086 91.2024 148.793 90.3508 148.434C89.5305 148.09 88.8547 147.742 88.3235 147.391C87.8 147.039 87.4094 146.625 87.1516 146.148C86.9016 145.664 86.7766 145.051 86.7766 144.309C86.7766 143.098 87.2454 142.188 88.1829 141.578C89.1282 140.961 90.3899 140.652 91.968 140.652C92.7805 140.652 93.554 140.734 94.2883 140.898C95.0305 141.062 95.7922 141.324 96.5735 141.684L95.4954 144.262C94.8469 143.98 94.2336 143.75 93.6555 143.57C93.0852 143.391 92.5032 143.301 91.9094 143.301C91.386 143.301 90.9915 143.371 90.7258 143.512C90.4602 143.652 90.3274 143.867 90.3274 144.156C90.3274 144.367 90.3938 144.555 90.5266 144.719C90.6672 144.883 90.9329 145.066 91.3235 145.27C91.7219 145.465 92.304 145.719 93.0696 146.031C93.8118 146.336 94.4563 146.656 95.0032 146.992C95.55 147.32 95.9719 147.73 96.2688 148.223C96.5657 148.707 96.7141 149.336 96.7141 150.109Z" fill="#02311A"/>
</svg>
