<svg width="84" height="84" viewBox="0 0 84 84" fill="none" xmlns="http://www.w3.org/2000/svg">
<path d="M59.7778 70.8889C59.7778 77.0253 64.7524 82 70.8889 82C77.0253 82 82 77.0253 82 70.8889C82 64.7524 77.0253 59.7778 70.8889 59.7778M59.7778 70.8889C59.7778 64.7524 64.7524 59.7778 70.8889 59.7778M59.7778 70.8889H24.2222M70.8889 59.7778V24.2222M24.2222 70.8889C24.2222 77.0253 19.2476 82 13.1111 82C6.97462 82 2 77.0253 2 70.8889C2 64.7524 6.97462 59.7778 13.1111 59.7778M24.2222 70.8889C24.2222 64.7524 19.2476 59.7778 13.1111 59.7778M70.8889 24.2222C64.7524 24.2222 59.7778 19.2476 59.7778 13.1111M70.8889 24.2222C77.0253 24.2222 82 19.2476 82 13.1111C82 6.97462 77.0253 2 70.8889 2C64.7524 2 59.7778 6.97462 59.7778 13.1111M13.1111 59.7778V24.2222M13.1111 24.2222C6.97462 24.2222 2 19.2476 2 13.1111C2 6.97462 6.97462 2 13.1111 2C19.2476 2 24.2222 6.97462 24.2222 13.1111M13.1111 24.2222C19.2476 24.2222 24.2222 19.2476 24.2222 13.1111M24.2222 13.1111H59.7778" stroke="#FF5220" stroke-width="4" stroke-linecap="round" stroke-linejoin="round"/>
</svg>
